  0
SECTION
  2
BLOCKS
  0
BLOCK
  8
1
  2
P0001_05
 70
64
 10
0.0000
 20
0.0000
  0
TEXT
  8
1
 10
21.2993
 20
21.0898
 40
5.0000
 50
0.0000
  1
PIECE: 左内耳
  7
STANDARD
  0
TEXT
  8
1
 10
21.2993
 20
15.3398
 40
5.0000
 50
0.0000
  1
SIZE: Free
  7
STANDARD
  0
TEXT
  8
1
 10
21.2993
 20
9.5898
 40
5.0000
 50
0.0000
  1
FABRIC: 表 地
  7
STANDARD
  0
TEXT
  8
1
 10
21.2993
 20
3.8398
 40
5.0000
 50
0.0000
  1
QUANTITY: 1
  7
STANDARD
  0
TEXT
  8
1
 10
36.2993
 20
18.0898
 40
3.0000
 50
0.0000
  1
COMMENT: テディベア
  7
STANDARD
  0
TEXT
  8
1
 10
36.2993
 20
15.0898
 40
3.0000
 50
0.0000
  1
COMMENT: 左内耳
  7
STANDARD
  0
TEXT
  8
1
 10
36.2993
 20
12.0898
 40
3.0000
 50
0.0000
  1
COMMENT: Free
  7
STANDARD
  0
TEXT
  8
1
 10
36.2993
 20
9.0898
 40
3.0000
 50
0.0000
  1
COMMENT: 表 地 x 1
  7
STANDARD
  0
TEXT
  8
1
 10
36.0903
 20
14.1553
 40
5.0000
 50
0.0975
  1
COMMENT: 顔中央
  7
STANDARD
  0
POLYLINE
999
1
  8
1
 66
1
 70
0
  0
VERTEX
999
1,1,,1
  8
1
 10
12.6216
 20
2.0938
  0
VERTEX
999
1,2
  8
1
 10
8.8560
 20
7.9961
  0
VERTEX
999
1,2
  8
1
 10
7.0259
 20
10.8633
  0
VERTEX
999
1,2
  8
1
 10
6.1128
 20
12.2969
  0
VERTEX
999
1,2
  8
1
 10
3.2117
 20
17.5985
  0
VERTEX
999
1,2
  8
1
 10
1.2386
 20
22.8627
  0
VERTEX
999
1,2
  8
1
 10
0.1744
 20
28.0103
  0
VERTEX
999
1,2
  8
1
 10
0.0000
 20
32.9623
  0
VERTEX
999
1,2
  8
1
 10
0.6962
 20
37.6395
  0
VERTEX
999
1,2
  8
1
 10
2.2437
 20
41.9629
  0
VERTEX
999
1,2
  8
1
 10
4.6304
 20
45.8103
  0
VERTEX
999
1,2
  8
1
 10
7.8318
 20
49.1102
  0
VERTEX
999
1,2
  8
1
 10
11.7797
 20
51.7947
  0
VERTEX
999
1,2
  8
1
 10
16.4055
 20
53.7960
  0
VERTEX
999
1,2
  8
1
 10
21.6409
 20
55.0466
  0
VERTEX
999
1,1,,2
  8
1
 10
27.4175
 20
55.4785
  0
VERTEX
999
1,2
  8
1
 10
33.3525
 20
55.1260
  0
VERTEX
999
1,2
  8
1
 10
38.6321
 20
54.0967
  0
VERTEX
999
1,2
  8
1
 10
43.2325
 20
52.4121
  0
VERTEX
999
1,2
  8
1
 10
47.1302
 20
50.0941
  0
VERTEX
999
1,2
  8
1
 10
50.3018
 20
47.1643
  0
VERTEX
999
1,2
  8
1
 10
52.7231
 20
43.6445
  0
VERTEX
999
1,2
  8
1
 10
54.4219
 20
39.4204
  0
VERTEX
999
1,2
  8
1
 10
55.2788
 20
34.6941
  0
VERTEX
999
1,2
  8
1
 10
55.2936
 20
29.5046
  0
VERTEX
999
1,2
  8
1
 10
54.4659
 20
23.8912
  0
VERTEX
999
1,2
  8
1
 10
52.7958
 20
17.8929
  0
VERTEX
999
1,2
  8
1
 10
50.2827
 20
11.5488
  0
VERTEX
999
1,2
  8
1
 10
49.9487
 20
10.8086
  0
VERTEX
999
1,2
  8
1
 10
49.2886
 20
9.3438
  0
VERTEX
999
1,1,1,3
  8
1
 10
46.4224
 20
2.9580
 38
10.0000
 50
65.8291
  0
VERTEX
999
1,1,,4
  8
1
 10
40.7603
 20
5.4990
  0
VERTEX
999
1,2,1
  8
1
 10
39.9639
 20
5.6573
 38
10.0000
 50
65.8535
  0
VERTEX
999
1,1,,5
  8
1
 10
33.6772
 20
6.9072
  0
VERTEX
999
1,2,1
  8
1
 10
18.9417
 20
5.1984
 38
10.0001
 50
122.5325
  0
VERTEX
999
1,1,,6
  8
1
 10
17.1636
 20
4.9922
  0
VERTEX
999
1,1,,7
  8
1
 10
12.6216
 20
2.0938
  0
SEQEND
  0
POLYLINE
999
2
  8
1
 66
1
 70
0
  0
VERTEX
999
2,1,,8
  8
1
 10
8.8560
 20
7.9961
  0
VERTEX
999
2,2
  8
1
 10
7.0259
 20
10.8633
  0
VERTEX
999
2,2
  8
1
 10
6.1128
 20
12.2969
  0
VERTEX
999
2,2
  8
1
 10
3.2117
 20
17.5985
  0
VERTEX
999
2,2
  8
1
 10
1.2386
 20
22.8627
  0
VERTEX
999
2,2
  8
1
 10
0.1744
 20
28.0103
  0
VERTEX
999
2,2
  8
1
 10
0.0000
 20
32.9623
  0
VERTEX
999
2,2
  8
1
 10
0.6962
 20
37.6395
  0
VERTEX
999
2,2
  8
1
 10
2.2437
 20
41.9629
  0
VERTEX
999
2,2
  8
1
 10
4.6304
 20
45.8103
  0
VERTEX
999
2,2
  8
1
 10
7.8318
 20
49.1102
  0
VERTEX
999
2,2
  8
1
 10
11.7797
 20
51.7947
  0
VERTEX
999
2,2
  8
1
 10
16.4055
 20
53.7960
  0
VERTEX
999
2,2
  8
1
 10
21.6409
 20
55.0466
  0
VERTEX
999
2,1,,9
  8
1
 10
27.4175
 20
55.4785
  0
VERTEX
999
2,2
  8
1
 10
33.3525
 20
55.1260
  0
VERTEX
999
2,2
  8
1
 10
38.6321
 20
54.0967
  0
VERTEX
999
2,2
  8
1
 10
43.2325
 20
52.4121
  0
VERTEX
999
2,2
  8
1
 10
47.1302
 20
50.0941
  0
VERTEX
999
2,2
  8
1
 10
50.3018
 20
47.1643
  0
VERTEX
999
2,2
  8
1
 10
52.7231
 20
43.6445
  0
VERTEX
999
2,2
  8
1
 10
54.4219
 20
39.4204
  0
VERTEX
999
2,2
  8
1
 10
55.2788
 20
34.6941
  0
VERTEX
999
2,2
  8
1
 10
55.2936
 20
29.5046
  0
VERTEX
999
2,2
  8
1
 10
54.4659
 20
23.8912
  0
VERTEX
999
2,2
  8
1
 10
52.7958
 20
17.8929
  0
VERTEX
999
2,2
  8
1
 10
50.2827
 20
11.5488
  0
VERTEX
999
2,2
  8
1
 10
49.9487
 20
10.8086
  0
VERTEX
999
2,1,,10
  8
1
 10
49.2886
 20
9.3438
  0
VERTEX
999
2,1,,11
  8
1
 10
42.9019
 20
12.2109
  0
VERTEX
999
2,1,,12
  8
1
 10
33.9634
 20
13.9883
  0
VERTEX
999
2,1,,13
  8
1
 10
14.7563
 20
11.7598
  0
VERTEX
999
2,1,,14
  8
1
 10
8.8560
 20
7.9961
  0
SEQEND
  0
LINE
999
5,1,,15
  8
1
 10
42.9019
 20
12.2109
 11
46.9926
 21
21.3359
  0
LINE
999
5,1,,17
  8
1
 10
14.7563
 20
11.7598
 11
9.3785
 21
20.1907
  0
LINE
999
5,1,,19
  8
1
 10
27.4019
 20
38.4785
 11
27.4253
 21
58.4785
  0
LINE
999
3,1,,21
  8
1
 10
20.1890
 20
54.7910
 11
20.1890
 21
5.3438
  0
LINE
999
5,1,,21
  8
1
 10
33.9634
 20
13.9883
 11
33.3970
 21
0.0000
  0
POLYLINE
999
5
  8
1
 66
1
 70
0
  0
VERTEX
999
5,1,,23
  8
1
 10
14.7563
 20
11.7598
  0
VERTEX
999
5,2
  8
1
 10
13.8433
 20
13.1934
  0
VERTEX
999
5,2
  8
1
 10
12.0171
 20
16.0586
  0
VERTEX
999
5,2
  8
1
 10
8.8474
 20
22.1942
  0
VERTEX
999
5,2
  8
1
 10
7.1906
 20
28.1841
  0
VERTEX
999
5,2
  8
1
 10
7.0830
 20
33.8334
  0
VERTEX
999
5,2
  8
1
 10
8.5610
 20
38.9473
  0
VERTEX
999
5,2
  8
1
 10
11.4755
 20
42.9933
  0
VERTEX
999
5,2
  8
1
 10
15.7329
 20
45.9856
  0
VERTEX
999
5,2
  8
1
 10
21.1176
 20
47.8416
  0
VERTEX
999
5,1,,24
  8
1
 10
27.4136
 20
48.4785
  0
SEQEND
  0
POLYLINE
999
5
  8
1
 66
1
 70
0
  0
VERTEX
999
5,1,,25
  8
1
 10
27.4136
 20
48.4785
  0
VERTEX
999
5,2
  8
1
 10
33.9049
 20
48.0004
  0
VERTEX
999
5,2
  8
1
 10
39.3357
 20
46.5327
  0
VERTEX
999
5,2
  8
1
 10
43.5898
 20
44.0038
  0
VERTEX
999
5,2
  8
1
 10
46.5513
 20
40.3418
  0
VERTEX
999
5,2
  8
1
 10
48.2529
 20
35.0693
  0
VERTEX
999
5,2
  8
1
 10
48.2947
 20
28.9287
  0
VERTEX
999
5,2
  8
1
 10
46.8022
 20
22.0161
  0
VERTEX
999
5,2
  8
1
 10
43.9019
 20
14.4277
  0
VERTEX
999
5,2
  8
1
 10
43.2368
 20
12.9531
  0
VERTEX
999
5,1,,26
  8
1
 10
42.9019
 20
12.2109
  0
SEQEND
  0
ENDBLK
  0
BLOCK
  8
1
  2
P0002_05
 70
64
 10
0.0000
 20
0.0000
  0
TEXT
  8
1
 10
15.1299
 20
21.2715
 40
5.0000
 50
0.0000
  1
PIECE: 右内耳
  7
STANDARD
  0
TEXT
  8
1
 10
15.1299
 20
15.5215
 40
5.0000
 50
0.0000
  1
SIZE: Free
  7
STANDARD
  0
TEXT
  8
1
 10
15.1299
 20
9.7715
 40
5.0000
 50
0.0000
  1
FABRIC: 表 地
  7
STANDARD
  0
TEXT
  8
1
 10
15.1299
 20
4.0215
 40
5.0000
 50
0.0000
  1
QUANTITY: 1
  7
STANDARD
  0
TEXT
  8
1
 10
30.1299
 20
18.2715
 40
3.0000
 50
0.0000
  1
COMMENT: テディベア
  7
STANDARD
  0
TEXT
  8
1
 10
30.1299
 20
15.2715
 40
3.0000
 50
0.0000
  1
COMMENT: 右内耳
  7
STANDARD
  0
TEXT
  8
1
 10
30.1299
 20
12.2715
 40
3.0000
 50
0.0000
  1
COMMENT: Free
  7
STANDARD
  0
TEXT
  8
1
 10
30.1299
 20
9.2715
 40
3.0000
 50
0.0000
  1
COMMENT: 表 地 x 1
  7
STANDARD
  0
TEXT
  8
1
 10
4.3682
 20
14.1807
 40
5.0000
 50
359.9018
  1
COMMENT: 顔中央
  7
STANDARD
  0
POLYLINE
999
1
  8
1
 66
1
 70
0
  0
VERTEX
999
1,1,,1
  8
1
 10
27.8613
 20
55.4795
  0
VERTEX
999
1,2
  8
1
 10
33.6379
 20
55.0476
  0
VERTEX
999
1,2
  8
1
 10
38.8733
 20
53.7970
  0
VERTEX
999
1,2
  8
1
 10
43.4991
 20
51.7957
  0
VERTEX
999
1,2
  8
1
 10
47.4470
 20
49.1112
  0
VERTEX
999
1,2
  8
1
 10
50.6484
 20
45.8113
  0
VERTEX
999
1,2
  8
1
 10
53.0352
 20
41.9639
  0
VERTEX
999
1,2
  8
1
 10
54.5826
 20
37.6404
  0
VERTEX
999
1,2
  8
1
 10
55.2788
 20
32.9630
  0
VERTEX
999
1,2
  8
1
 10
55.1044
 20
28.0109
  0
VERTEX
999
1,2
  8
1
 10
54.0402
 20
22.8632
  0
VERTEX
999
1,2
  8
1
 10
52.0671
 20
17.5991
  0
VERTEX
999
1,2
  8
1
 10
49.1660
 20
12.2979
  0
VERTEX
999
1,2
  8
1
 10
48.2529
 20
10.8643
  0
VERTEX
999
1,2
  8
1
 10
46.4229
 20
7.9961
  0
VERTEX
999
1,1,,2
  8
1
 10
42.6572
 20
2.0947
  0
VERTEX
999
1,1,,3
  8
1
 10
38.1152
 20
4.9932
  0
VERTEX
999
1,2,1
  8
1
 10
36.3361
 20
5.1993
 38
10.0000
 50
57.4605
  0
VERTEX
999
1,1,,4
  8
1
 10
21.6016
 20
6.9072
  0
VERTEX
999
1,2,1
  8
1
 10
15.3149
 20
5.6573
 38
10.0000
 50
114.1465
  0
VERTEX
999
1,1,,5
  8
1
 10
14.5186
 20
5.4990
  0
VERTEX
999
1,1,1,6
  8
1
 10
8.8564
 20
2.9580
 38
10.0000
 50
114.1709
  0
VERTEX
999
1,2
  8
1
 10
5.9902
 20
9.3447
  0
VERTEX
999
1,2
  8
1
 10
5.3301
 20
10.8096
  0
VERTEX
999
1,2
  8
1
 10
4.9961
 20
11.5488
  0
VERTEX
999
1,2
  8
1
 10
2.4830
 20
17.8929
  0
VERTEX
999
1,2
  8
1
 10
0.8129
 20
23.8915
  0
VERTEX
999
1,2
  8
1
 10
-0.0148
 20
29.5051
  0
VERTEX
999
1,2
  8
1
 10
0.0000
 20
34.6948
  0
VERTEX
999
1,2
  8
1
 10
0.8569
 20
39.4213
  0
VERTEX
999
1,2
  8
1
 10
2.5557
 20
43.6455
  0
VERTEX
999
1,2
  8
1
 10
4.9771
 20
47.1653
  0
VERTEX
999
1,2
  8
1
 10
8.1486
 20
50.0948
  0
VERTEX
999
1,2
  8
1
 10
12.0463
 20
52.4127
  0
VERTEX
999
1,2
  8
1
 10
16.6467
 20
54.0972
  0
VERTEX
999
1,2
  8
1
 10
21.9263
 20
55.1267
  0
VERTEX
999
1,1,,7
  8
1
 10
27.8613
 20
55.4795
  0
SEQEND
  0
POLYLINE
999
2
  8
1
 66
1
 70
0
  0
VERTEX
999
2,1,,8
  8
1
 10
27.8613
 20
55.4795
  0
VERTEX
999
2,2
  8
1
 10
33.6379
 20
55.0476
  0
VERTEX
999
2,2
  8
1
 10
38.8733
 20
53.7970
  0
VERTEX
999
2,2
  8
1
 10
43.4991
 20
51.7957
  0
VERTEX
999
2,2
  8
1
 10
47.4470
 20
49.1112
  0
VERTEX
999
2,2
  8
1
 10
50.6484
 20
45.8113
  0
VERTEX
999
2,2
  8
1
 10
53.0352
 20
41.9639
  0
VERTEX
999
2,2
  8
1
 10
54.5826
 20
37.6404
  0
VERTEX
999
2,2
  8
1
 10
55.2788
 20
32.9630
  0
VERTEX
999
2,2
  8
1
 10
55.1044
 20
28.0109
  0
VERTEX
999
2,2
  8
1
 10
54.0402
 20
22.8632
  0
VERTEX
999
2,2
  8
1
 10
52.0671
 20
17.5991
  0
VERTEX
999
2,2
  8
1
 10
49.1660
 20
12.2979
  0
VERTEX
999
2,2
  8
1
 10
48.2529
 20
10.8643
  0
VERTEX
999
2,1,,9
  8
1
 10
46.4229
 20
7.9961
  0
VERTEX
999
2,1,,10
  8
1
 10
40.5225
 20
11.7607
  0
VERTEX
999
2,1,,11
  8
1
 10
21.3154
 20
13.9883
  0
VERTEX
999
2,1,,12
  8
1
 10
12.3770
 20
12.2109
  0
VERTEX
999
2,1,,13
  8
1
 10
5.9902
 20
9.3447
  0
VERTEX
999
2,2
  8
1
 10
5.3301
 20
10.8096
  0
VERTEX
999
2,2
  8
1
 10
4.9961
 20
11.5488
  0
VERTEX
999
2,2
  8
1
 10
2.4830
 20
17.8929
  0
VERTEX
999
2,2
  8
1
 10
0.8129
 20
23.8915
  0
VERTEX
999
2,2
  8
1
 10
-0.0148
 20
29.5051
  0
VERTEX
999
2,2
  8
1
 10
0.0000
 20
34.6948
  0
VERTEX
999
2,2
  8
1
 10
0.8569
 20
39.4213
  0
VERTEX
999
2,2
  8
1
 10
2.5557
 20
43.6455
  0
VERTEX
999
2,2
  8
1
 10
4.9771
 20
47.1653
  0
VERTEX
999
2,2
  8
1
 10
8.1486
 20
50.0948
  0
VERTEX
999
2,2
  8
1
 10
12.0463
 20
52.4127
  0
VERTEX
999
2,2
  8
1
 10
16.6467
 20
54.0972
  0
VERTEX
999
2,2
  8
1
 10
21.9263
 20
55.1267
  0
VERTEX
999
2,1,,14
  8
1
 10
27.8613
 20
55.4795
  0
SEQEND
  0
LINE
999
5,1,,15
  8
1
 10
40.5225
 20
11.7607
 11
45.9012
 21
20.1909
  0
LINE
999
5,1,,17
  8
1
 10
12.3770
 20
12.2109
 11
8.2863
 21
21.3359
  0
LINE
999
5,1,,19
  8
1
 10
27.8770
 20
38.4795
 11
27.8535
 21
58.4795
  0
LINE
999
3,1,,21
  8
1
 10
35.0898
 20
54.7920
 11
35.0898
 21
5.3438
  0
LINE
999
5,1,,21
  8
1
 10
21.3154
 20
13.9883
 11
21.8818
 21
0.0000
  0
POLYLINE
999
5
  8
1
 66
1
 70
0
  0
VERTEX
999
5,1,,23
  8
1
 10
40.5225
 20
11.7607
  0
VERTEX
999
5,2
  8
1
 10
41.4355
 20
13.1934
  0
VERTEX
999
5,2
  8
1
 10
43.2617
 20
16.0586
  0
VERTEX
999
5,2
  8
1
 10
46.4314
 20
22.1942
  0
VERTEX
999
5,2
  8
1
 10
48.0883
 20
28.1842
  0
VERTEX
999
5,2
  8
1
 10
48.1958
 20
33.8337
  0
VERTEX
999
5,2
  8
1
 10
46.7178
 20
38.9482
  0
VERTEX
999
5,2
  8
1
 10
43.8033
 20
42.9943
  0
VERTEX
999
5,2
  8
1
 10
39.5459
 20
45.9866
  0
VERTEX
999
5,2
  8
1
 10
34.1613
 20
47.8425
  0
VERTEX
999
5,1,,24
  8
1
 10
27.8652
 20
48.4795
  0
SEQEND
  0
POLYLINE
999
5
  8
1
 66
1
 70
0
  0
VERTEX
999
5,1,,25
  8
1
 10
27.8652
 20
48.4795
  0
VERTEX
999
5,2
  8
1
 10
21.3739
 20
48.0007
  0
VERTEX
999
5,2
  8
1
 10
15.9431
 20
46.5328
  0
VERTEX
999
5,2
  8
1
 10
11.6890
 20
44.0038
  0
VERTEX
999
5,2
  8
1
 10
8.7275
 20
40.3418
  0
VERTEX
999
5,2
  8
1
 10
7.0259
 20
35.0696
  0
VERTEX
999
5,2
  8
1
 10
6.9841
 20
28.9291
  0
VERTEX
999
5,2
  8
1
 10
8.4766
 20
22.0165
  0
VERTEX
999
5,2
  8
1
 10
11.3770
 20
14.4277
  0
VERTEX
999
5,2
  8
1
 10
12.0420
 20
12.9531
  0
VERTEX
999
5,1,,26
  8
1
 10
12.3770
 20
12.2109
  0
SEQEND
  0
ENDBLK
  0
BLOCK
  8
1
  2
P0003_05
 70
64
 10
0.0000
 20
0.0000
  0
TEXT
  8
1
 10
24.1398
 20
21.7188
 40
5.0000
 50
0.0000
  1
PIECE: 右外耳
  7
STANDARD
  0
TEXT
  8
1
 10
24.1398
 20
15.9688
 40
5.0000
 50
0.0000
  1
SIZE: Free
  7
STANDARD
  0
TEXT
  8
1
 10
24.1398
 20
10.2188
 40
5.0000
 50
0.0000
  1
FABRIC: 表 地
  7
STANDARD
  0
TEXT
  8
1
 10
24.1398
 20
4.4688
 40
5.0000
 50
0.0000
  1
QUANTITY: 1
  7
STANDARD
  0
TEXT
  8
1
 10
39.1398
 20
18.7188
 40
3.0000
 50
0.0000
  1
COMMENT: テディベア
  7
STANDARD
  0
TEXT
  8
1
 10
39.1398
 20
15.7188
 40
3.0000
 50
0.0000
  1
COMMENT: 右外耳
  7
STANDARD
  0
TEXT
  8
1
 10
39.1398
 20
12.7188
 40
3.0000
 50
0.0000
  1
COMMENT: Free
  7
STANDARD
  0
TEXT
  8
1
 10
39.1398
 20
9.7188
 40
3.0000
 50
0.0000
  1
COMMENT: 表 地 x 1
  7
STANDARD
  0
TEXT
  8
1
 10
44.1915
 20
13.7344
 40
5.0000
 50
0.0982
  1
COMMENT: 顔中央
  7
STANDARD
  0
POLYLINE
999
1
  8
1
 66
1
 70
0
  0
VERTEX
999
1,1,,1
  8
1
 10
30.8907
 20
58.9795
  0
VERTEX
999
1,2
  8
1
 10
38.8593
 20
58.3688
  0
VERTEX
999
1,2
  8
1
 10
45.7223
 20
56.6067
  0
VERTEX
999
1,2
  8
1
 10
51.4475
 20
53.7687
  0
VERTEX
999
1,2
  8
1
 10
56.0024
 20
49.9301
  0
VERTEX
999
1,2
  8
1
 10
59.3549
 20
45.1664
  0
VERTEX
999
1,2
  8
1
 10
61.4723
 20
39.5530
  0
VERTEX
999
1,2
  8
1
 10
62.3223
 20
33.1650
  0
VERTEX
999
1,2
  8
1
 10
61.8726
 20
26.0782
  0
VERTEX
999
1,2
  8
1
 10
60.0908
 20
18.3679
  0
VERTEX
999
1,2
  8
1
 10
56.9445
 20
10.1094
  0
VERTEX
999
1,2
  8
1
 10
56.2745
 20
8.6260
  0
VERTEX
999
1,1,,2
  8
1
 10
53.3898
 20
2.2471
  0
VERTEX
999
1,1,,3
  8
1
 10
47.7443
 20
4.8018
  0
VERTEX
999
1,2,1
  8
1
 10
46.9349
 20
4.9626
 38
10.0000
 50
65.6626
  0
VERTEX
999
1,1,,4
  8
1
 10
37.1486
 20
6.9082
  0
VERTEX
999
1,2,1
  8
1
 10
18.5455
 20
4.7502
 38
10.0000
 50
122.5152
  0
VERTEX
999
1,1,,5
  8
1
 10
16.7667
 20
4.5439
  0
VERTEX
999
1,1,1,6
  8
1
 10
12.2179
 20
1.6475
 38
10.0000
 50
122.4904
  0
VERTEX
999
1,2
  8
1
 10
8.4572
 20
7.5518
  0
VERTEX
999
1,2
  8
1
 10
6.6320
 20
10.4170
  0
VERTEX
999
1,2
  8
1
 10
2.9054
 20
17.4993
  0
VERTEX
999
1,2
  8
1
 10
0.6940
 20
24.5013
  0
VERTEX
999
1,2
  8
1
 10
-0.0615
 20
31.2678
  0
VERTEX
999
1,2
  8
1
 10
0.5798
 20
37.6432
  0
VERTEX
999
1,2
  8
1
 10
2.5586
 20
43.4722
  0
VERTEX
999
1,2
  8
1
 10
5.8158
 20
48.5991
  0
VERTEX
999
1,2
  8
1
 10
10.2921
 20
52.8687
  0
VERTEX
999
1,2
  8
1
 10
15.9285
 20
56.1255
  0
VERTEX
999
1,2
  8
1
 10
22.6656
 20
58.2139
  0
VERTEX
999
1,2
  8
1
 10
30.4445
 20
58.9785
  0
VERTEX
999
1,1,,7
  8
1
 10
30.8907
 20
58.9795
  0
SEQEND
  0
POLYLINE
999
2
  8
1
 66
1
 70
0
  0
VERTEX
999
2,1,,8
  8
1
 10
30.8907
 20
58.9795
  0
VERTEX
999
2,2
  8
1
 10
38.8593
 20
58.3688
  0
VERTEX
999
2,2
  8
1
 10
45.7223
 20
56.6067
  0
VERTEX
999
2,2
  8
1
 10
51.4475
 20
53.7687
  0
VERTEX
999
2,2
  8
1
 10
56.0024
 20
49.9301
  0
VERTEX
999
2,2
  8
1
 10
59.3549
 20
45.1664
  0
VERTEX
999
2,2
  8
1
 10
61.4723
 20
39.5530
  0
VERTEX
999
2,2
  8
1
 10
62.3223
 20
33.1650
  0
VERTEX
999
2,2
  8
1
 10
61.8726
 20
26.0782
  0
VERTEX
999
2,2
  8
1
 10
60.0908
 20
18.3679
  0
VERTEX
999
2,2
  8
1
 10
56.9445
 20
10.1094
  0
VERTEX
999
2,1,,9
  8
1
 10
56.2745
 20
8.6260
  0
VERTEX
999
2,1,,10
  8
1
 10
49.8966
 20
11.5107
  0
VERTEX
999
2,1,,11
  8
1
 10
37.4347
 20
13.9883
  0
VERTEX
999
2,1,,12
  8
1
 10
14.3624
 20
11.3125
  0
VERTEX
999
2,1,,13
  8
1
 10
8.4572
 20
7.5518
  0
VERTEX
999
2,2
  8
1
 10
6.6320
 20
10.4170
  0
VERTEX
999
2,2
  8
1
 10
2.9054
 20
17.4993
  0
VERTEX
999
2,2
  8
1
 10
0.6940
 20
24.5013
  0
VERTEX
999
2,2
  8
1
 10
-0.0615
 20
31.2678
  0
VERTEX
999
2,2
  8
1
 10
0.5798
 20
37.6432
  0
VERTEX
999
2,2
  8
1
 10
2.5586
 20
43.4722
  0
VERTEX
999
2,2
  8
1
 10
5.8158
 20
48.5991
  0
VERTEX
999
2,2
  8
1
 10
10.2921
 20
52.8687
  0
VERTEX
999
2,2
  8
1
 10
15.9285
 20
56.1255
  0
VERTEX
999
2,2
  8
1
 10
22.6656
 20
58.2139
  0
VERTEX
999
2,2
  8
1
 10
30.4445
 20
58.9785
  0
VERTEX
999
2,1,,14
  8
1
 10
30.8907
 20
58.9795
  0
SEQEND
  0
LINE
999
5,1,,15
  8
1
 10
49.8966
 20
11.5107
 11
54.0177
 21
20.6221
  0
LINE
999
5,1,,17
  8
1
 10
14.3624
 20
11.3125
 11
8.9872
 21
19.7450
  0
LINE
999
5,1,,19
  8
1
 10
30.8986
 20
61.9795
 11
30.8751
 21
41.9795
  0
LINE
999
3,1,,21
  8
1
 10
23.6603
 20
58.3984
 11
23.6603
 21
5.3438
  0
LINE
999
5,1,,21
  8
1
 10
37.4347
 20
13.9883
 11
36.8673
 21
0.0000
  0
POLYLINE
999
5
  8
1
 66
1
 70
0
  0
VERTEX
999
5,1,,23
  8
1
 10
14.3624
 20
11.3125
  0
VERTEX
999
5,2
  8
1
 10
12.5363
 20
14.1777
  0
VERTEX
999
5,2
  8
1
 10
8.9496
 20
21.2166
  0
VERTEX
999
5,2
  8
1
 10
7.1533
 20
28.0969
  0
VERTEX
999
5,2
  8
1
 10
7.1331
 20
34.5873
  0
VERTEX
999
5,2
  8
1
 10
8.8741
 20
40.4561
  0
VERTEX
999
5,2
  8
1
 10
12.1807
 20
45.2177
  0
VERTEX
999
5,2
  8
1
 10
16.9701
 20
48.8331
  0
VERTEX
999
5,2
  8
1
 10
23.1149
 20
51.1406
  0
VERTEX
999
5,2
  8
1
 10
30.4874
 20
51.9785
  0
VERTEX
999
5,1,,24
  8
1
 10
30.8868
 20
51.9795
  0
SEQEND
  0
POLYLINE
999
5
  8
1
 66
1
 70
0
  0
VERTEX
999
5,1,,25
  8
1
 10
30.8868
 20
51.9795
  0
VERTEX
999
5,2
  8
1
 10
38.4608
 20
51.3479
  0
VERTEX
999
5,2
  8
1
 10
44.7549
 20
49.4727
  0
VERTEX
999
5,2
  8
1
 10
49.6703
 20
46.3545
  0
VERTEX
999
5,2
  8
1
 10
53.1085
 20
41.9941
  0
VERTEX
999
5,2
  8
1
 10
54.6204
 20
38.1750
  0
VERTEX
999
5,2
  8
1
 10
55.3330
 20
33.9047
  0
VERTEX
999
5,2
  8
1
 10
55.2653
 20
29.2168
  0
VERTEX
999
5,2
  8
1
 10
54.4354
 20
24.1455
  0
VERTEX
999
5,2
  8
1
 10
52.8621
 20
18.7246
  0
VERTEX
999
5,2
  8
1
 10
50.5636
 20
12.9883
  0
VERTEX
999
5,1,,26
  8
1
 10
49.8966
 20
11.5107
  0
SEQEND
  0
ENDBLK
  0
BLOCK
  8
1
  2
P0004_05
 70
64
 10
0.0000
 20
0.0000
  0
TEXT
  8
1
 10
10.6318
 20
24.5391
 40
5.0000
 50
0.0000
  1
PIECE: 左外耳
  7
STANDARD
  0
TEXT
  8
1
 10
10.6318
 20
18.7891
 40
5.0000
 50
0.0000
  1
SIZE: Free
  7
STANDARD
  0
TEXT
  8
1
 10
10.6318
 20
13.0391
 40
5.0000
 50
0.0000
  1
FABRIC: 表 地
  7
STANDARD
  0
TEXT
  8
1
 10
10.6318
 20
7.2891
 40
5.0000
 50
0.0000
  1
QUANTITY: 1
  7
STANDARD
  0
TEXT
  8
1
 10
25.6318
 20
21.5391
 40
3.0000
 50
0.0000
  1
COMMENT: テディベア
  7
STANDARD
  0
TEXT
  8
1
 10
25.6318
 20
18.5391
 40
3.0000
 50
0.0000
  1
COMMENT: 左外耳
  7
STANDARD
  0
TEXT
  8
1
 10
25.6318
 20
15.5391
 40
3.0000
 50
0.0000
  1
COMMENT: Free
  7
STANDARD
  0
TEXT
  8
1
 10
25.6318
 20
12.5391
 40
3.0000
 50
0.0000
  1
COMMENT: 表 地 x 1
  7
STANDARD
  0
TEXT
  8
1
 10
3.1699
 20
13.7598
 40
5.0000
 50
359.9018
  1
COMMENT: 顔中央
  7
STANDARD
  0
POLYLINE
999
1
  8
1
 66
1
 70
0
  0
VERTEX
999
1,1,,1
  8
1
 10
8.7920
 20
2.2471
  0
VERTEX
999
1,2
  8
1
 10
5.9072
 20
8.6250
  0
VERTEX
999
1,2
  8
1
 10
5.2373
 20
10.1094
  0
VERTEX
999
1,2
  8
1
 10
2.0909
 20
18.3677
  0
VERTEX
999
1,2
  8
1
 10
0.3092
 20
26.0779
  0
VERTEX
999
1,2
  8
1
 10
-0.1405
 20
33.1644
  0
VERTEX
999
1,2
  8
1
 10
0.7095
 20
39.5521
  0
VERTEX
999
1,2
  8
1
 10
2.8269
 20
45.1655
  0
VERTEX
999
1,2
  8
1
 10
6.1793
 20
49.9292
  0
VERTEX
999
1,2
  8
1
 10
10.7343
 20
53.7677
  0
VERTEX
999
1,2
  8
1
 10
16.4595
 20
56.6057
  0
VERTEX
999
1,2
  8
1
 10
23.3225
 20
58.3678
  0
VERTEX
999
1,1,,2
  8
1
 10
31.2910
 20
58.9785
  0
VERTEX
999
1,2
  8
1
 10
31.7373
 20
58.9785
  0
VERTEX
999
1,2
  8
1
 10
39.5161
 20
58.2139
  0
VERTEX
999
1,2
  8
1
 10
46.2533
 20
56.1254
  0
VERTEX
999
1,2
  8
1
 10
51.8896
 20
52.8685
  0
VERTEX
999
1,2
  8
1
 10
56.3660
 20
48.5988
  0
VERTEX
999
1,2
  8
1
 10
59.6232
 20
43.4717
  0
VERTEX
999
1,2
  8
1
 10
61.6019
 20
37.6426
  0
VERTEX
999
1,2
  8
1
 10
62.2433
 20
31.2671
  0
VERTEX
999
1,2
  8
1
 10
61.4878
 20
24.5005
  0
VERTEX
999
1,2
  8
1
 10
59.2764
 20
17.4983
  0
VERTEX
999
1,2
  8
1
 10
55.5498
 20
10.4160
  0
VERTEX
999
1,2
  8
1
 10
53.7246
 20
7.5508
  0
VERTEX
999
1,1,1,3
  8
1
 10
49.9639
 20
1.6465
 38
10.0000
 50
57.5096
  0
VERTEX
999
1,1,,4
  8
1
 10
45.4150
 20
4.5430
  0
VERTEX
999
1,2,1
  8
1
 10
43.6357
 20
4.7494
 38
10.0000
 50
57.4848
  0
VERTEX
999
1,1,,5
  8
1
 10
25.0332
 20
6.9082
  0
VERTEX
999
1,2,1
  8
1
 10
15.2468
 20
4.9618
 38
10.0000
 50
114.3374
  0
VERTEX
999
1,1,,6
  8
1
 10
14.4375
 20
4.8008
  0
VERTEX
999
1,1,,7
  8
1
 10
8.7920
 20
2.2471
  0
SEQEND
  0
POLYLINE
999
2
  8
1
 66
1
 70
0
  0
VERTEX
999
2,1,,8
  8
1
 10
5.9072
 20
8.6250
  0
VERTEX
999
2,2
  8
1
 10
5.2373
 20
10.1094
  0
VERTEX
999
2,2
  8
1
 10
2.0909
 20
18.3677
  0
VERTEX
999
2,2
  8
1
 10
0.3092
 20
26.0779
  0
VERTEX
999
2,2
  8
1
 10
-0.1405
 20
33.1644
  0
VERTEX
999
2,2
  8
1
 10
0.7095
 20
39.5521
  0
VERTEX
999
2,2
  8
1
 10
2.8269
 20
45.1655
  0
VERTEX
999
2,2
  8
1
 10
6.1793
 20
49.9292
  0
VERTEX
999
2,2
  8
1
 10
10.7343
 20
53.7677
  0
VERTEX
999
2,2
  8
1
 10
16.4595
 20
56.6057
  0
VERTEX
999
2,2
  8
1
 10
23.3225
 20
58.3678
  0
VERTEX
999
2,1,,9
  8
1
 10
31.2910
 20
58.9785
  0
VERTEX
999
2,2
  8
1
 10
31.7373
 20
58.9785
  0
VERTEX
999
2,2
  8
1
 10
39.5161
 20
58.2139
  0
VERTEX
999
2,2
  8
1
 10
46.2533
 20
56.1254
  0
VERTEX
999
2,2
  8
1
 10
51.8896
 20
52.8685
  0
VERTEX
999
2,2
  8
1
 10
56.3660
 20
48.5988
  0
VERTEX
999
2,2
  8
1
 10
59.6232
 20
43.4717
  0
VERTEX
999
2,2
  8
1
 10
61.6019
 20
37.6426
  0
VERTEX
999
2,2
  8
1
 10
62.2433
 20
31.2671
  0
VERTEX
999
2,2
  8
1
 10
61.4878
 20
24.5005
  0
VERTEX
999
2,2
  8
1
 10
59.2764
 20
17.4983
  0
VERTEX
999
2,2
  8
1
 10
55.5498
 20
10.4160
  0
VERTEX
999
2,1,,10
  8
1
 10
53.7246
 20
7.5508
  0
VERTEX
999
2,1,,11
  8
1
 10
47.8193
 20
11.3125
  0
VERTEX
999
2,1,,12
  8
1
 10
24.7471
 20
13.9883
  0
VERTEX
999
2,1,,13
  8
1
 10
12.2852
 20
11.5098
  0
VERTEX
999
2,1,,14
  8
1
 10
5.9072
 20
8.6250
  0
SEQEND
  0
LINE
999
5,1,,15
  8
1
 10
47.8193
 20
11.3125
 11
53.1946
 21
19.7450
  0
LINE
999
5,1,,17
  8
1
 10
12.2852
 20
11.5098
 11
8.1641
 21
20.6211
  0
LINE
999
5,1,,19
  8
1
 10
31.2832
 20
61.9785
 11
31.3066
 21
41.9785
  0
LINE
999
3,1,,21
  8
1
 10
38.5215
 20
58.3984
 11
38.5215
 21
5.3438
  0
LINE
999
5,1,,21
  8
1
 10
24.7471
 20
13.9883
 11
25.3145
 21
0.0000
  0
POLYLINE
999
5
  8
1
 66
1
 70
0
  0
VERTEX
999
5,1,,23
  8
1
 10
47.8193
 20
11.3125
  0
VERTEX
999
5,2
  8
1
 10
49.6455
 20
14.1777
  0
VERTEX
999
5,2
  8
1
 10
53.2322
 20
21.2161
  0
VERTEX
999
5,2
  8
1
 10
55.0284
 20
28.0964
  0
VERTEX
999
5,2
  8
1
 10
55.0487
 20
34.5868
  0
VERTEX
999
5,2
  8
1
 10
53.3076
 20
40.4551
  0
VERTEX
999
5,2
  8
1
 10
50.0011
 20
45.2167
  0
VERTEX
999
5,2
  8
1
 10
45.2117
 20
48.8323
  0
VERTEX
999
5,2
  8
1
 10
39.0669
 20
51.1401
  0
VERTEX
999
5,2
  8
1
 10
31.6943
 20
51.9785
  0
VERTEX
999
5,1,,24
  8
1
 10
31.2949
 20
51.9785
  0
SEQEND
  0
POLYLINE
999
5
  8
1
 66
1
 70
0
  0
VERTEX
999
5,1,,25
  8
1
 10
31.2949
 20
51.9785
  0
VERTEX
999
5,2
  8
1
 10
23.7209
 20
51.3474
  0
VERTEX
999
5,2
  8
1
 10
17.4269
 20
49.4722
  0
VERTEX
999
5,2
  8
1
 10
12.5115
 20
46.3540
  0
VERTEX
999
5,2
  8
1
 10
9.0732
 20
41.9941
  0
VERTEX
999
5,2
  8
1
 10
7.5614
 20
38.1750
  0
VERTEX
999
5,2
  8
1
 10
6.8488
 20
33.9047
  0
VERTEX
999
5,2
  8
1
 10
6.9165
 20
29.2168
  0
VERTEX
999
5,2
  8
1
 10
7.7463
 20
24.1455
  0
VERTEX
999
5,2
  8
1
 10
9.3197
 20
18.7246
  0
VERTEX
999
5,2
  8
1
 10
11.6182
 20
12.9883
  0
VERTEX
999
5,1,,26
  8
1
 10
12.2852
 20
11.5098
  0
SEQEND
  0
ENDBLK
  0
BLOCK
  8
1
  2
P0005_05
 70
64
 10
0.0000
 20
0.0000
  0
TEXT
  8
1
 10
36.6985
 20
109.8717
 40
5.0000
 50
0.0000
  1
PIECE: 右外腕
  7
STANDARD
  0
TEXT
  8
1
 10
36.6985
 20
104.1217
 40
5.0000
 50
0.0000
  1
SIZE: Free
  7
STANDARD
  0
TEXT
  8
1
 10
36.6985
 20
98.3717
 40
5.0000
 50
0.0000
  1
FABRIC: 表 地
  7
STANDARD
  0
TEXT
  8
1
 10
36.6985
 20
92.6217
 40
5.0000
 50
0.0000
  1
QUANTITY: 1
  7
STANDARD
  0
TEXT
  8
1
 10
51.6985
 20
106.8717
 40
3.0000
 50
0.0000
  1
COMMENT: テディベア
  7
STANDARD
  0
TEXT
  8
1
 10
51.6985
 20
103.8717
 40
3.0000
 50
0.0000
  1
COMMENT: 右外腕
  7
STANDARD
  0
TEXT
  8
1
 10
51.6985
 20
100.8717
 40
3.0000
 50
0.0000
  1
COMMENT: Free
  7
STANDARD
  0
TEXT
  8
1
 10
51.6985
 20
97.8717
 40
3.0000
 50
0.0000
  1
COMMENT: 表 地 x 1
  7
STANDARD
  0
TEXT
  8
1
 10
15.0647
 20
79.1246
 40
5.0000
 50
0.0000
  1
COMMENT: 綿詰め口
  7
STANDARD
  0
TEXT
  8
1
 10
64.2014
 20
9.9186
 40
5.0000
 50
0.0000
  1
COMMENT: 指先
  7
STANDARD
  0
POLYLINE
999
1
  8
1
 66
1
 70
0
  0
VERTEX
999
1,1,1,1
  8
1
 10
67.6096
 20
59.3746
 38
10.0000
 50
215.1705
  0
VERTEX
999
1,2
  8
1
 10
69.1161
 20
57.4357
  0
VERTEX
999
1,2
  8
1
 10
70.7424
 20
55.6450
  0
VERTEX
999
1,2
  8
1
 10
72.4318
 20
53.9618
  0
VERTEX
999
1,2
  8
1
 10
74.1272
 20
52.3453
  0
VERTEX
999
1,2
  8
1
 10
76.1519
 20
50.3945
  0
VERTEX
999
1,2
  8
1
 10
78.0696
 20
48.4418
  0
VERTEX
999
1,2
  8
1
 10
79.8335
 20
46.4572
  0
VERTEX
999
1,2
  8
1
 10
81.3967
 20
44.4108
  0
VERTEX
999
1,2
  8
1
 10
85.3905
 20
37.2188
  0
VERTEX
999
1,2
  8
1
 10
87.5066
 20
30.2260
  0
VERTEX
999
1,2
  8
1
 10
87.9812
 20
23.6118
  0
VERTEX
999
1,2
  8
1
 10
87.0502
 20
17.5555
  0
VERTEX
999
1,2
  8
1
 10
84.9495
 20
12.2363
  0
VERTEX
999
1,1,1,2
  8
1
 10
81.9153
 20
7.8336
 38
10.0000
 50
136.9123
  0
VERTEX
999
1,2
  8
1
 10
77.9100
 20
4.2512
  0
VERTEX
999
1,2
  8
1
 10
73.6124
 20
1.7925
  0
VERTEX
999
1,2
  8
1
 10
69.0646
 20
0.3961
  0
VERTEX
999
1,2
  8
1
 10
64.3083
 20
0.0000
  0
VERTEX
999
1,2
  8
1
 10
59.3855
 20
0.5424
  0
VERTEX
999
1,2
  8
1
 10
54.3381
 20
1.9615
  0
VERTEX
999
1,2
  8
1
 10
48.0690
 20
4.8412
  0
VERTEX
999
1,2
  8
1
 10
41.7823
 20
8.8726
  0
VERTEX
999
1,2
  8
1
 10
35.6244
 20
13.8632
  0
VERTEX
999
1,1,1,3
  8
1
 10
29.7419
 20
19.6203
 38
10.0000
 50
43.1508
  0
VERTEX
999
1,2
  8
1
 10
24.4048
 20
25.7419
  0
VERTEX
999
1,2
  8
1
 10
19.5891
 20
32.0797
  0
VERTEX
999
1,2
  8
1
 10
15.4282
 20
38.3669
  0
VERTEX
999
1,1,1,4
  8
1
 10
12.0275
 20
44.3993
 38
10.0000
 50
26.8738
  0
VERTEX
999
1,2
  8
1
 10
7.2952
 20
54.8383
  0
VERTEX
999
1,2
  8
1
 10
3.7966
 20
65.6483
  0
VERTEX
999
1,2
  8
1
 10
1.4731
 20
76.7695
  0
VERTEX
999
1,2
  8
1
 10
0.2373
 20
88.2052
  0
VERTEX
999
1,2
  8
1
 10
0.0020
 20
99.9583
  0
VERTEX
999
1,1,1,5
  8
1
 10
0.6799
 20
112.0321
 38
9.9999
 50
354.8355
  0
VERTEX
999
1,2
  8
1
 10
1.6089
 20
118.9838
  0
VERTEX
999
1,2
  8
1
 10
3.1829
 20
125.6235
  0
VERTEX
999
1,2
  8
1
 10
5.4944
 20
131.7819
  0
VERTEX
999
1,2
  8
1
 10
8.6360
 20
137.2897
  0
VERTEX
999
1,2
  8
1
 10
11.5077
 20
140.8466
  0
VERTEX
999
1,2
  8
1
 10
14.8939
 20
143.9550
  0
VERTEX
999
1,2
  8
1
 10
18.8411
 20
146.5457
  0
VERTEX
999
1,2
  8
1
 10
23.3953
 20
148.5499
  0
VERTEX
999
1,2
  8
1
 10
28.6028
 20
149.8987
  0
VERTEX
999
1,1,1,6
  8
1
 10
34.5142
 20
150.5228
 38
10.0000
 50
272.1890
  0
VERTEX
999
1,2
  8
1
 10
41.6914
 20
150.0554
  0
VERTEX
999
1,2
  8
1
 10
48.4758
 20
148.1020
  0
VERTEX
999
1,2
  8
1
 10
54.6543
 20
144.7015
  0
VERTEX
999
1,2
  8
1
 10
60.0175
 20
139.8927
  0
VERTEX
999
1,2
  8
1
 10
64.3562
 20
133.7142
  0
VERTEX
999
1,2
  8
1
 10
67.4612
 20
126.2047
  0
VERTEX
999
1,2
  8
1
 10
68.0220
 20
123.6149
  0
VERTEX
999
1,2
  8
1
 10
68.3276
 20
120.5408
  0
VERTEX
999
1,2
  8
1
 10
68.3854
 20
117.0340
  0
VERTEX
999
1,2
  8
1
 10
68.2024
 20
113.1461
  0
VERTEX
999
1,2
  8
1
 10
66.3586
 20
97.8942
  0
VERTEX
999
1,2
  8
1
 10
65.3845
 20
91.0249
  0
VERTEX
999
1,2
  8
1
 10
64.5432
 20
84.1141
  0
VERTEX
999
1,2
  8
1
 10
64.0403
 20
77.4154
  0
VERTEX
999
1,1,1,7
  8
1
 10
64.0813
 20
71.1826
 38
10.0000
 50
183.6902
  0
VERTEX
999
1,2
  8
1
 10
64.4342
 20
68.0299
  0
VERTEX
999
1,2
  8
1
 10
65.0951
 20
64.9305
  0
VERTEX
999
1,2
  8
1
 10
66.1312
 20
62.0051
  0
VERTEX
999
1,1,,8
  8
1
 10
67.6096
 20
59.3746
  0
SEQEND
  0
POLYLINE
999
2
  8
1
 66
1
 70
0
  0
VERTEX
999
2,1,,9
  8
1
 10
61.8879
 20
55.3414
  0
VERTEX
999
2,2
  8
1
 10
65.3225
 20
51.1980
  0
VERTEX
999
2,2
  8
1
 10
69.0408
 20
47.5228
  0
VERTEX
999
2,2
  8
1
 10
72.6213
 20
44.0275
  0
VERTEX
999
2,2
  8
1
 10
75.6428
 20
40.4235
  0
VERTEX
999
2,2
  8
1
 10
78.7437
 20
34.9261
  0
VERTEX
999
2,2
  8
1
 10
80.4807
 20
29.5845
  0
VERTEX
999
2,2
  8
1
 10
81.0001
 20
24.5358
  0
VERTEX
999
2,2
  8
1
 10
80.4481
 20
19.9174
  0
VERTEX
999
2,2
  8
1
 10
78.9711
 20
15.8667
  0
VERTEX
999
2,1,,10
  8
1
 10
76.7151
 20
12.5211
  0
VERTEX
999
2,2
  8
1
 10
70.7114
 20
8.2342
  0
VERTEX
999
2,2
  8
1
 10
63.9525
 20
7.0612
  0
VERTEX
999
2,2
  8
1
 10
56.7125
 20
8.5471
  0
VERTEX
999
2,2
  8
1
 10
49.2657
 20
12.2369
  0
VERTEX
999
2,2
  8
1
 10
41.8865
 20
17.6755
  0
VERTEX
999
2,1,,11
  8
1
 10
34.8489
 20
24.4078
  0
VERTEX
999
2,2
  8
1
 10
29.8517
 20
30.1362
  0
VERTEX
999
2,2
  8
1
 10
25.3386
 20
36.0685
  0
VERTEX
999
2,2
  8
1
 10
21.4357
 20
41.9590
  0
VERTEX
999
2,1,,12
  8
1
 10
18.2688
 20
47.5621
  0
VERTEX
999
2,2
  8
1
 10
13.6473
 20
57.9712
  0
VERTEX
999
2,2
  8
1
 10
10.3293
 20
68.3081
  0
VERTEX
999
2,2
  8
1
 10
8.1929
 20
78.6962
  0
VERTEX
999
2,2
  8
1
 10
7.1158
 20
89.2589
  0
VERTEX
999
2,2
  8
1
 10
6.9761
 20
100.1197
  0
VERTEX
999
2,1,,13
  8
1
 10
7.6516
 20
111.4020
  0
VERTEX
999
2,2
  8
1
 10
8.8015
 20
119.3718
  0
VERTEX
999
2,2
  8
1
 10
10.9551
 20
126.7859
  0
VERTEX
999
2,2
  8
1
 10
14.3710
 20
133.2765
  0
VERTEX
999
2,2
  8
1
 10
19.3081
 20
138.4758
  0
VERTEX
999
2,2
  8
1
 10
26.0254
 20
142.0159
  0
VERTEX
999
2,1,,14
  8
1
 10
34.7815
 20
143.5289
  0
VERTEX
999
2,2
  8
1
 10
40.4519
 20
143.1521
  0
VERTEX
999
2,2
  8
1
 10
45.8002
 20
141.5906
  0
VERTEX
999
2,2
  8
1
 10
50.6650
 20
138.8802
  0
VERTEX
999
2,2
  8
1
 10
54.8856
 20
135.0571
  0
VERTEX
999
2,2
  8
1
 10
58.3007
 20
130.1572
  0
VERTEX
999
2,2
  8
1
 10
60.7493
 20
124.2164
  0
VERTEX
999
2,2
  8
1
 10
61.3857
 20
119.6390
  0
VERTEX
999
2,2
  8
1
 10
61.2212
 20
113.6642
  0
VERTEX
999
2,2
  8
1
 10
60.4908
 20
106.6339
  0
VERTEX
999
2,2
  8
1
 10
59.4299
 20
98.8903
  0
VERTEX
999
2,2
  8
1
 10
58.4135
 20
91.6492
  0
VERTEX
999
2,2
  8
1
 10
57.5496
 20
84.3636
  0
VERTEX
999
2,2
  8
1
 10
57.0424
 20
77.3019
  0
VERTEX
999
2,1,,15
  8
1
 10
57.0959
 20
70.7321
  0
VERTEX
999
2,2
  8
1
 10
57.5874
 20
66.6000
  0
VERTEX
999
2,2
  8
1
 10
58.5149
 20
62.5629
  0
VERTEX
999
2,2
  8
1
 10
59.9309
 20
58.7627
  0
VERTEX
999
2,1,,16
  8
1
 10
61.8879
 20
55.3414
  0
SEQEND
  0
LINE
999
5,1,,17
  8
1
 10
61.8879
 20
55.3414
 11
53.7135
 21
49.5813
  0
LINE
999
5,1,,19
  8
1
 10
76.6217
 20
12.4207
 11
69.3186
 21
19.2518
  0
LINE
999
5,1,,21
  8
1
 10
34.8489
 20
24.4078
 11
42.1444
 21
31.2470
  0
LINE
999
5,1,,23
  8
1
 10
18.2688
 20
47.5621
 11
27.1888
 21
52.0824
  0
LINE
999
5,1,,25
  8
1
 10
7.6516
 20
111.4020
 11
17.6110
 21
110.5018
  0
LINE
999
5,1,,27
  8
1
 10
34.7815
 20
143.5289
 11
35.1635
 21
133.5363
  0
LINE
999
5,1,,29
  8
1
 10
57.0959
 20
70.7321
 11
47.1167
 21
70.0884
  0
LINE
999
5,1,,31
  8
1
 10
8.0012
 20
110.1793
 11
18.0510
 21
84.3287
  0
LINE
999
5,1,,33
  8
1
 10
19.0813
 20
78.1188
 11
18.5208
 21
48.2389
  0
LINE
999
5,1,,35
  8
1
 10
61.8879
 20
55.3414
 11
48.8020
 21
40.4996
  0
LINE
999
5,1,,37
  8
1
 10
48.8020
 20
40.4996
 11
34.8489
 21
24.4078
  0
LINE
999
3,1,,39
  8
1
 10
35.8049
 20
150.5504
 11
35.8049
 21
13.7018
  0
ENDBLK
  0
BLOCK
  8
1
  2
P0006_05
 70
64
 10
0.0000
 20
0.0000
  0
TEXT
  8
1
 10
32.1782
 20
44.9911
 40
5.0000
 50
0.0000
  1
PIECE: 左外腕
  7
STANDARD
  0
TEXT
  8
1
 10
32.1782
 20
39.2411
 40
5.0000
 50
0.0000
  1
SIZE: Free
  7
STANDARD
  0
TEXT
  8
1
 10
32.1782
 20
33.4911
 40
5.0000
 50
0.0000
  1
FABRIC: 表 地
  7
STANDARD
  0
TEXT
  8
1
 10
32.1782
 20
27.7411
 40
5.0000
 50
0.0000
  1
QUANTITY: 1
  7
STANDARD
  0
TEXT
  8
1
 10
47.1782
 20
41.9911
 40
3.0000
 50
0.0000
  1
COMMENT: テディベア
  7
STANDARD
  0
TEXT
  8
1
 10
47.1782
 20
38.9911
 40
3.0000
 50
0.0000
  1
COMMENT: 左外腕
  7
STANDARD
  0
TEXT
  8
1
 10
47.1782
 20
35.9911
 40
3.0000
 50
0.0000
  1
COMMENT: Free
  7
STANDARD
  0
TEXT
  8
1
 10
47.1782
 20
32.9911
 40
3.0000
 50
0.0000
  1
COMMENT: 表 地 x 1
  7
STANDARD
  0
TEXT
  8
1
 10
52.6821
 20
79.1239
 40
5.0000
 50
0.0000
  1
COMMENT: 綿詰め口
  7
STANDARD
  0
TEXT
  8
1
 10
13.4253
 20
9.9188
 40
5.0000
 50
0.0000
  1
COMMENT: 指先
  7
STANDARD
  0
POLYLINE
999
1
  8
1
 66
1
 70
0
  0
VERTEX
999
1,1,1,1
  8
1
 10
5.5913
 20
7.8329
 38
10.0000
 50
43.0897
  0
VERTEX
999
1,2
  8
1
 10
2.5571
 20
12.2357
  0
VERTEX
999
1,2
  8
1
 10
0.4564
 20
17.5548
  0
VERTEX
999
1,2
  8
1
 10
-0.4746
 20
23.6112
  0
VERTEX
999
1,2
  8
1
 10
0.0000
 20
30.2255
  0
VERTEX
999
1,2
  8
1
 10
2.1161
 20
37.2186
  0
VERTEX
999
1,2
  8
1
 10
6.1099
 20
44.4110
  0
VERTEX
999
1,2
  8
1
 10
7.6731
 20
46.4573
  0
VERTEX
999
1,2
  8
1
 10
9.4370
 20
48.4415
  0
VERTEX
999
1,2
  8
1
 10
11.3547
 20
50.3939
  0
VERTEX
999
1,2
  8
1
 10
13.3794
 20
52.3446
  0
VERTEX
999
1,2
  8
1
 10
15.0748
 20
53.9612
  0
VERTEX
999
1,2
  8
1
 10
16.7642
 20
55.6447
  0
VERTEX
999
1,2
  8
1
 10
18.3905
 20
57.4354
  0
VERTEX
999
1,1,1,2
  8
1
 10
19.8962
 20
59.3730
 38
10.0000
 50
324.8295
  0
VERTEX
999
1,2
  8
1
 10
21.3754
 20
62.0048
  0
VERTEX
999
1,2
  8
1
 10
22.4115
 20
64.9303
  0
VERTEX
999
1,2
  8
1
 10
23.0724
 20
68.0298
  0
VERTEX
999
1,1,1,3
  8
1
 10
23.4252
 20
71.1818
 38
10.0000
 50
356.3098
  0
VERTEX
999
1,2
  8
1
 10
23.4663
 20
77.4152
  0
VERTEX
999
1,2
  8
1
 10
22.9634
 20
84.1139
  0
VERTEX
999
1,2
  8
1
 10
22.1221
 20
91.0247
  0
VERTEX
999
1,2
  8
1
 10
21.1479
 20
97.8934
  0
VERTEX
999
1,2
  8
1
 10
19.3042
 20
113.1454
  0
VERTEX
999
1,2
  8
1
 10
19.1212
 20
117.0337
  0
VERTEX
999
1,2
  8
1
 10
19.1790
 20
120.5404
  0
VERTEX
999
1,2
  8
1
 10
19.4846
 20
123.6143
  0
VERTEX
999
1,2
  8
1
 10
20.0454
 20
126.2040
  0
VERTEX
999
1,2
  8
1
 10
23.1504
 20
133.7135
  0
VERTEX
999
1,2
  8
1
 10
27.4891
 20
139.8920
  0
VERTEX
999
1,2
  8
1
 10
32.8523
 20
144.7008
  0
VERTEX
999
1,2
  8
1
 10
39.0308
 20
148.1013
  0
VERTEX
999
1,2
  8
1
 10
45.8152
 20
150.0547
  0
VERTEX
999
1,1,1,4
  8
1
 10
52.9924
 20
150.5221
 38
10.0000
 50
267.8110
  0
VERTEX
999
1,2
  8
1
 10
58.9038
 20
149.8979
  0
VERTEX
999
1,2
  8
1
 10
64.1113
 20
148.5492
  0
VERTEX
999
1,2
  8
1
 10
68.6655
 20
146.5450
  0
VERTEX
999
1,2
  8
1
 10
72.6127
 20
143.9545
  0
VERTEX
999
1,2
  8
1
 10
75.9989
 20
140.8464
  0
VERTEX
999
1,2
  8
1
 10
78.8706
 20
137.2899
  0
VERTEX
999
1,2
  8
1
 10
82.0122
 20
131.7817
  0
VERTEX
999
1,2
  8
1
 10
84.3237
 20
125.6234
  0
VERTEX
999
1,2
  8
1
 10
85.8977
 20
118.9839
  0
VERTEX
999
1,1,1,5
  8
1
 10
86.8267
 20
112.0314
 38
9.9999
 50
185.1645
  0
VERTEX
999
1,2
  8
1
 10
87.5046
 20
99.9582
  0
VERTEX
999
1,2
  8
1
 10
87.2693
 20
88.2050
  0
VERTEX
999
1,2
  8
1
 10
86.0334
 20
76.7694
  0
VERTEX
999
1,2
  8
1
 10
83.7100
 20
65.6483
  0
VERTEX
999
1,2
  8
1
 10
80.2114
 20
54.8384
  0
VERTEX
999
1,1,1,6
  8
1
 10
75.4788
 20
44.3987
 38
10.0000
 50
153.1262
  0
VERTEX
999
1,2
  8
1
 10
72.0784
 20
38.3671
  0
VERTEX
999
1,2
  8
1
 10
67.9175
 20
32.0795
  0
VERTEX
999
1,2
  8
1
 10
63.1018
 20
25.7413
  0
VERTEX
999
1,1,1,7
  8
1
 10
57.7646
 20
19.6196
 38
10.0000
 50
136.8492
  0
VERTEX
999
1,2
  8
1
 10
51.8822
 20
13.8630
  0
VERTEX
999
1,2
  8
1
 10
45.7242
 20
8.8727
  0
VERTEX
999
1,2
  8
1
 10
39.4376
 20
4.8414
  0
VERTEX
999
1,2
  8
1
 10
33.1685
 20
1.9618
  0
VERTEX
999
1,2
  8
1
 10
28.1211
 20
0.5426
  0
VERTEX
999
1,2
  8
1
 10
23.1982
 20
0.0000
  0
VERTEX
999
1,2
  8
1
 10
18.4420
 20
0.3959
  0
VERTEX
999
1,2
  8
1
 10
13.8942
 20
1.7921
  0
VERTEX
999
1,2
  8
1
 10
9.5966
 20
4.2505
  0
VERTEX
999
1,1,,8
  8
1
 10
5.5913
 20
7.8329
  0
SEQEND
  0
POLYLINE
999
2
  8
1
 66
1
 70
0
  0
VERTEX
999
2,1,,9
  8
1
 10
10.7915
 20
12.5204
  0
VERTEX
999
2,2
  8
1
 10
8.5355
 20
15.8660
  0
VERTEX
999
2,2
  8
1
 10
7.0585
 20
19.9166
  0
VERTEX
999
2,2
  8
1
 10
6.5065
 20
24.5350
  0
VERTEX
999
2,2
  8
1
 10
7.0259
 20
29.5837
  0
VERTEX
999
2,2
  8
1
 10
8.7629
 20
34.9254
  0
VERTEX
999
2,2
  8
1
 10
11.8638
 20
40.4227
  0
VERTEX
999
2,2
  8
1
 10
14.8853
 20
44.0267
  0
VERTEX
999
2,2
  8
1
 10
18.4658
 20
47.5221
  0
VERTEX
999
2,2
  8
1
 10
22.1841
 20
51.1973
  0
VERTEX
999
2,1,,10
  8
1
 10
25.6187
 20
55.3407
  0
VERTEX
999
2,2
  8
1
 10
27.5757
 20
58.7620
  0
VERTEX
999
2,2
  8
1
 10
28.9917
 20
62.5621
  0
VERTEX
999
2,2
  8
1
 10
29.9192
 20
66.5992
  0
VERTEX
999
2,1,,11
  8
1
 10
30.4106
 20
70.7313
  0
VERTEX
999
2,2
  8
1
 10
30.4642
 20
77.3011
  0
VERTEX
999
2,2
  8
1
 10
29.9570
 20
84.3629
  0
VERTEX
999
2,2
  8
1
 10
29.0931
 20
91.6484
  0
VERTEX
999
2,2
  8
1
 10
28.0767
 20
98.8895
  0
VERTEX
999
2,2
  8
1
 10
27.0157
 20
106.6332
  0
VERTEX
999
2,2
  8
1
 10
26.2854
 20
113.6635
  0
VERTEX
999
2,2
  8
1
 10
26.1208
 20
119.6383
  0
VERTEX
999
2,2
  8
1
 10
26.7573
 20
124.2157
  0
VERTEX
999
2,2
  8
1
 10
29.2059
 20
130.1565
  0
VERTEX
999
2,2
  8
1
 10
32.6210
 20
135.0564
  0
VERTEX
999
2,2
  8
1
 10
36.8416
 20
138.8795
  0
VERTEX
999
2,2
  8
1
 10
41.7064
 20
141.5898
  0
VERTEX
999
2,2
  8
1
 10
47.0547
 20
143.1514
  0
VERTEX
999
2,1,,12
  8
1
 10
52.7251
 20
143.5282
  0
VERTEX
999
2,2
  8
1
 10
61.4812
 20
142.0151
  0
VERTEX
999
2,2
  8
1
 10
68.1985
 20
138.4750
  0
VERTEX
999
2,2
  8
1
 10
73.1356
 20
133.2758
  0
VERTEX
999
2,2
  8
1
 10
76.5515
 20
126.7852
  0
VERTEX
999
2,2
  8
1
 10
78.7051
 20
119.3710
  0
VERTEX
999
2,1,,13
  8
1
 10
79.8550
 20
111.4012
  0
VERTEX
999
2,2
  8
1
 10
80.5305
 20
100.1190
  0
VERTEX
999
2,2
  8
1
 10
80.3907
 20
89.2582
  0
VERTEX
999
2,2
  8
1
 10
79.3137
 20
78.6954
  0
VERTEX
999
2,2
  8
1
 10
77.1772
 20
68.3074
  0
VERTEX
999
2,2
  8
1
 10
73.8593
 20
57.9705
  0
VERTEX
999
2,1,,14
  8
1
 10
69.2378
 20
47.5614
  0
VERTEX
999
2,2
  8
1
 10
66.0709
 20
41.9583
  0
VERTEX
999
2,2
  8
1
 10
62.1680
 20
36.0677
  0
VERTEX
999
2,2
  8
1
 10
57.6549
 20
30.1354
  0
VERTEX
999
2,1,,15
  8
1
 10
52.6577
 20
24.4071
  0
VERTEX
999
2,2
  8
1
 10
45.6201
 20
17.6748
  0
VERTEX
999
2,2
  8
1
 10
38.2408
 20
12.2364
  0
VERTEX
999
2,2
  8
1
 10
30.7941
 20
8.5468
  0
VERTEX
999
2,2
  8
1
 10
23.5541
 20
7.0609
  0
VERTEX
999
2,2
  8
1
 10
16.7952
 20
8.2338
  0
VERTEX
999
2,1,,16
  8
1
 10
10.7915
 20
12.5204
  0
SEQEND
  0
LINE
999
5,1,,17
  8
1
 10
25.6187
 20
55.3407
 11
33.7931
 21
49.5806
  0
LINE
999
5,1,,19
  8
1
 10
30.4106
 20
70.7313
 11
40.3899
 21
70.0877
  0
LINE
999
5,1,,21
  8
1
 10
52.7251
 20
143.5282
 11
52.3431
 21
133.5355
  0
LINE
999
5,1,,23
  8
1
 10
69.2378
 20
47.5614
 11
60.3177
 21
52.0817
  0
LINE
999
5,1,,25
  8
1
 10
79.8550
 20
111.4012
 11
69.8956
 21
110.5011
  0
LINE
999
5,1,,27
  8
1
 10
10.8849
 20
12.4199
 11
18.1877
 21
19.2513
  0
LINE
999
5,1,,29
  8
1
 10
52.6577
 20
24.4071
 11
45.3622
 21
31.2463
  0
LINE
999
5,1,,31
  8
1
 10
79.5054
 20
110.1786
 11
69.4556
 21
84.3290
  0
LINE
999
5,1,,33
  8
1
 10
68.4253
 20
78.1180
 11
68.9858
 21
48.2391
  0
LINE
999
5,1,,35
  8
1
 10
25.6187
 20
55.3407
 11
38.7046
 21
40.4989
  0
LINE
999
5,1,,37
  8
1
 10
38.7046
 20
40.4989
 11
52.6577
 21
24.4071
  0
LINE
999
3,1,,39
  8
1
 10
51.7017
 20
150.5497
 11
51.7017
 21
13.7020
  0
ENDBLK
  0
BLOCK
  8
1
  2
P0007_05
 70
64
 10
0.0000
 20
0.0000
  0
TEXT
  8
1
 10
34.7441
 20
64.3838
 40
5.0000
 50
0.0000
  1
PIECE: 右内腕
  7
STANDARD
  0
TEXT
  8
1
 10
34.7441
 20
58.6338
 40
5.0000
 50
0.0000
  1
SIZE: Free
  7
STANDARD
  0
TEXT
  8
1
 10
34.7441
 20
52.8838
 40
5.0000
 50
0.0000
  1
FABRIC: 表 地
  7
STANDARD
  0
TEXT
  8
1
 10
34.7441
 20
47.1338
 40
5.0000
 50
0.0000
  1
QUANTITY: 1
  7
STANDARD
  0
TEXT
  8
1
 10
49.7441
 20
61.3838
 40
3.0000
 50
0.0000
  1
COMMENT: テディベア
  7
STANDARD
  0
TEXT
  8
1
 10
49.7441
 20
58.3838
 40
3.0000
 50
0.0000
  1
COMMENT: 右内腕
  7
STANDARD
  0
TEXT
  8
1
 10
49.7441
 20
55.3838
 40
3.0000
 50
0.0000
  1
COMMENT: Free
  7
STANDARD
  0
TEXT
  8
1
 10
49.7441
 20
52.3838
 40
3.0000
 50
0.0000
  1
COMMENT: 表 地 x 1
  7
STANDARD
  0
POLYLINE
999
1
  8
1
 66
1
 70
0
  0
VERTEX
999
1,1,1,1
  8
1
 10
56.5723
 20
28.0361
 38
10.0000
 50
153.1275
  0
VERTEX
999
1,2
  8
1
 10
54.8662
 20
24.8066
  0
VERTEX
999
1,2
  8
1
 10
51.2366
 20
18.9490
  0
VERTEX
999
1,2
  8
1
 10
47.0171
 20
13.4625
  0
VERTEX
999
1,2
  8
1
 10
42.3127
 20
8.4567
  0
VERTEX
999
1,2
  8
1
 10
37.2285
 20
4.0410
  0
VERTEX
999
1,1,1,2
  8
1
 10
36.2578
 20
3.2842
 38
10.0000
 50
117.9666
  0
VERTEX
999
1,1,,3
  8
1
 10
30.0732
 20
0.0000
  0
VERTEX
999
1,2,1
  8
1
 10
26.7422
 20
6.2783
 38
10.0001
 50
27.9708
  0
VERTEX
999
1,2
  8
1
 10
24.4648
 20
10.9951
  0
VERTEX
999
1,2
  8
1
 10
23.4415
 20
13.2214
  0
VERTEX
999
1,2
  8
1
 10
22.3546
 20
15.4498
  0
VERTEX
999
1,2
  8
1
 10
21.1550
 20
17.5700
  0
VERTEX
999
1,1,1,4
  8
1
 10
19.8071
 20
19.4533
 38
10.0000
 50
39.8978
  0
VERTEX
999
1,2
  8
1
 10
17.9706
 20
21.4150
  0
VERTEX
999
1,2
  8
1
 10
16.1962
 20
22.9274
  0
VERTEX
999
1,2
  8
1
 10
14.4993
 20
24.1353
  0
VERTEX
999
1,2
  8
1
 10
12.9082
 20
25.1650
  0
VERTEX
999
1,2
  8
1
 10
10.4512
 20
26.8139
  0
VERTEX
999
1,2
  8
1
 10
8.2034
 20
28.5802
  0
VERTEX
999
1,2
  8
1
 10
6.1530
 20
30.6462
  0
VERTEX
999
1,2,1
  8
1
 10
4.2881
 20
33.1943
 38
10.0000
 50
31.9381
  0
VERTEX
999
1,1,,5
  8
1
 10
0.0000
 20
40.0752
  0
VERTEX
999
1,1,1,6
  8
1
 10
5.9395
 20
43.7793
 38
10.0000
 50
301.9331
  0
VERTEX
999
1,2
  8
1
 10
6.6299
 20
45.4380
  0
VERTEX
999
1,2
  8
1
 10
7.2174
 20
47.1733
  0
VERTEX
999
1,2
  8
1
 10
7.6842
 20
48.9929
  0
VERTEX
999
1,2
  8
1
 10
8.0127
 20
50.9043
  0
VERTEX
999
1,1,1,7
  8
1
 10
8.2917
 20
53.7714
 38
9.9999
 50
356.3133
  0
VERTEX
999
1,2
  8
1
 10
8.3368
 20
60.1084
  0
VERTEX
999
1,2
  8
1
 10
7.8329
 20
66.9141
  0
VERTEX
999
1,2
  8
1
 10
6.9854
 20
73.9336
  0
VERTEX
999
1,2
  8
1
 10
5.9990
 20
80.9102
  0
VERTEX
999
1,2
  8
1
 10
4.1660
 20
95.6201
  0
VERTEX
999
1,2
  8
1
 10
3.9645
 20
99.4149
  0
VERTEX
999
1,2
  8
1
 10
4.0037
 20
102.8378
  0
VERTEX
999
1,2
  8
1
 10
4.2915
 20
105.8386
  0
VERTEX
999
1,2
  8
1
 10
4.8359
 20
108.3672
  0
VERTEX
999
1,2
  8
1
 10
7.7534
 20
115.4282
  0
VERTEX
999
1,2
  8
1
 10
11.8279
 20
121.2411
  0
VERTEX
999
1,2
  8
1
 10
16.8641
 20
125.7683
  0
VERTEX
999
1,2
  8
1
 10
22.6669
 20
128.9717
  0
VERTEX
999
1,2
  8
1
 10
29.0409
 20
130.8135
  0
VERTEX
999
1,1,1,8
  8
1
 10
35.7870
 20
131.2556
 38
10.0000
 50
267.8103
  0
VERTEX
999
1,2
  8
1
 10
41.4199
 20
130.6545
  0
VERTEX
999
1,2
  8
1
 10
46.3708
 20
129.3536
  0
VERTEX
999
1,2
  8
1
 10
50.6902
 20
127.4207
  0
VERTEX
999
1,2
  8
1
 10
54.4244
 20
124.9235
  0
VERTEX
999
1,2
  8
1
 10
57.6200
 20
121.9296
  0
VERTEX
999
1,2
  8
1
 10
60.3232
 20
118.5068
  0
VERTEX
999
1,2
  8
1
 10
63.2399
 20
113.2737
  0
VERTEX
999
1,2
  8
1
 10
65.3813
 20
107.4325
  0
VERTEX
999
1,2
  8
1
 10
66.8395
 20
101.1472
  0
VERTEX
999
1,1,1,9
  8
1
 10
67.7061
 20
94.5822
 38
10.0001
 50
185.1641
  0
VERTEX
999
1,2
  8
1
 10
68.4054
 20
82.8193
  0
VERTEX
999
1,2
  8
1
 10
68.2474
 20
71.4978
  0
VERTEX
999
1,2
  8
1
 10
67.1086
 20
60.4880
  0
VERTEX
999
1,2
  8
1
 10
64.8655
 20
49.6607
  0
VERTEX
999
1,2
  8
1
 10
61.3945
 20
38.8865
  0
VERTEX
999
1,1,,10
  8
1
 10
56.5723
 20
28.0361
  0
SEQEND
  0
POLYLINE
999
2
  8
1
 66
1
 70
0
  0
VERTEX
999
2,1,,11
  8
1
 10
50.3281
 20
31.2002
  0
VERTEX
999
2,2
  8
1
 10
48.7314
 20
28.1768
  0
VERTEX
999
2,2
  8
1
 10
45.4786
 20
22.9264
  0
VERTEX
999
2,2
  8
1
 10
41.6975
 20
18.0078
  0
VERTEX
999
2,2
  8
1
 10
37.4817
 20
13.5199
  0
VERTEX
999
2,1,,12
  8
1
 10
32.9248
 20
9.5615
  0
VERTEX
999
2,2
  8
1
 10
31.2330
 20
13.0352
  0
VERTEX
999
2,2
  8
1
 10
29.4604
 20
16.8357
  0
VERTEX
999
2,2
  8
1
 10
27.4835
 20
20.5948
  0
VERTEX
999
2,1,,13
  8
1
 10
25.1787
 20
23.9443
  0
VERTEX
999
2,2
  8
1
 10
24.8770
 20
24.2979
  0
VERTEX
999
2,2
  8
1
 10
20.4880
 20
28.4371
  0
VERTEX
999
2,2
  8
1
 10
16.5449
 20
31.1492
  0
VERTEX
999
2,2
  8
1
 10
13.1057
 20
33.5854
  0
VERTEX
999
2,1,,14
  8
1
 10
10.2285
 20
36.8975
  0
VERTEX
999
2,2
  8
1
 10
11.8254
 20
39.8544
  0
VERTEX
999
2,2
  8
1
 10
13.1927
 20
43.0039
  0
VERTEX
999
2,2
  8
1
 10
14.2595
 20
46.3776
  0
VERTEX
999
2,2
  8
1
 10
14.9551
 20
50.0068
  0
VERTEX
999
2,1,,15
  8
1
 10
15.2773
 20
53.3213
  0
VERTEX
999
2,2
  8
1
 10
15.1981
 20
62.6609
  0
VERTEX
999
2,2
  8
1
 10
14.1910
 20
72.7477
  0
VERTEX
999
2,2
  8
1
 10
12.7892
 20
82.8723
  0
VERTEX
999
2,2
  8
1
 10
11.5258
 20
92.3252
  0
VERTEX
999
2,2
  8
1
 10
10.9340
 20
100.3969
  0
VERTEX
999
2,2
  8
1
 10
11.5469
 20
106.3779
  0
VERTEX
999
2,2
  8
1
 10
13.8077
 20
111.8706
  0
VERTEX
999
2,2
  8
1
 10
16.9589
 20
116.4053
  0
VERTEX
999
2,2
  8
1
 10
20.8529
 20
119.9468
  0
VERTEX
999
2,2
  8
1
 10
25.3427
 20
122.4600
  0
VERTEX
999
2,2
  8
1
 10
30.2805
 20
123.9097
  0
VERTEX
999
2,1,,16
  8
1
 10
35.5195
 20
124.2607
  0
VERTEX
999
2,2
  8
1
 10
43.7129
 20
122.8282
  0
VERTEX
999
2,2
  8
1
 10
49.9698
 20
119.4745
  0
VERTEX
999
2,2
  8
1
 10
54.5455
 20
114.5549
  0
VERTEX
999
2,2
  8
1
 10
57.6948
 20
108.4245
  0
VERTEX
999
2,2
  8
1
 10
59.6727
 20
101.4385
  0
VERTEX
999
2,1,,17
  8
1
 10
60.7344
 20
93.9521
  0
VERTEX
999
2,2
  8
1
 10
61.4006
 20
82.8616
  0
VERTEX
999
2,2
  8
1
 10
61.2684
 20
72.1853
  0
VERTEX
999
2,2
  8
1
 10
60.2166
 20
61.8020
  0
VERTEX
999
2,2
  8
1
 10
58.1235
 20
51.5908
  0
VERTEX
999
2,2
  8
1
 10
54.8678
 20
41.4305
  0
VERTEX
999
2,1,,18
  8
1
 10
50.3281
 20
31.2002
  0
SEQEND
  0
LINE
999
5,1,,19
  8
1
 10
25.1787
 20
23.9443
 11
32.8506
 21
30.3585
  0
LINE
999
5,1,,21
  8
1
 10
15.2773
 20
53.3213
 11
25.2566
 21
52.6783
  0
LINE
999
5,1,,23
  8
1
 10
35.5195
 20
124.2607
 11
35.1375
 21
114.2681
  0
LINE
999
5,1,,25
  8
1
 10
60.7344
 20
93.9521
 11
50.7749
 21
93.0521
  0
LINE
999
5,1,,27
  8
1
 10
50.3281
 20
31.2002
 11
41.4080
 21
35.7203
  0
LINE
999
3,1,,29
  8
1
 10
33.9229
 20
131.2754
 11
33.9229
 21
2.0439
  0
POLYLINE
999
5
  8
1
 66
1
 70
0
  0
VERTEX
999
5,1,,29
  8
1
 10
35.5479
 20
100.8291
  0
VERTEX
999
5,2
  8
1
 10
35.1394
 20
100.7451
  0
VERTEX
999
5,2
  8
1
 10
34.8068
 20
100.5186
  0
VERTEX
999
5,2
  8
1
 10
34.5834
 20
100.1837
  0
VERTEX
999
5,1,,30
  8
1
 10
34.5029
 20
99.7744
  0
SEQEND
  0
POLYLINE
999
5
  8
1
 66
1
 70
0
  0
VERTEX
999
5,1,,31
  8
1
 10
35.5586
 20
98.7295
  0
VERTEX
999
5,2
  8
1
 10
35.9661
 20
98.8146
  0
VERTEX
999
5,2
  8
1
 10
36.2985
 20
99.0415
  0
VERTEX
999
5,2
  8
1
 10
36.5220
 20
99.3760
  0
VERTEX
999
5,1,,32
  8
1
 10
36.6025
 20
99.7842
  0
SEQEND
  0
POLYLINE
999
5
  8
1
 66
1
 70
0
  0
VERTEX
999
5,1,,33
  8
1
 10
34.5029
 20
99.7744
  0
VERTEX
999
5,2
  8
1
 10
34.5872
 20
99.3661
  0
VERTEX
999
5,2
  8
1
 10
34.8140
 20
99.0337
  0
VERTEX
999
5,2
  8
1
 10
35.1492
 20
98.8104
  0
VERTEX
999
5,1,,34
  8
1
 10
35.5586
 20
98.7295
  0
SEQEND
  0
POLYLINE
999
5
  8
1
 66
1
 70
0
  0
VERTEX
999
5,1,,35
  8
1
 10
36.6025
 20
99.7842
  0
VERTEX
999
5,2
  8
1
 10
36.5181
 20
100.1935
  0
VERTEX
999
5,2
  8
1
 10
36.2916
 20
100.5264
  0
VERTEX
999
5,2
  8
1
 10
35.9569
 20
100.7493
  0
VERTEX
999
5,1,,36
  8
1
 10
35.5479
 20
100.8291
  0
SEQEND
  0
ENDBLK
  0
BLOCK
  8
1
  2
P0008_05
 70
64
 10
0.0000
 20
0.0000
  0
TEXT
  8
1
 10
10.6465
 20
65.5527
 40
5.0000
 50
0.0000
  1
PIECE: 左内腕
  7
STANDARD
  0
TEXT
  8
1
 10
10.6465
 20
59.8027
 40
5.0000
 50
0.0000
  1
SIZE: Free
  7
STANDARD
  0
TEXT
  8
1
 10
10.6465
 20
54.0527
 40
5.0000
 50
0.0000
  1
FABRIC: 表 地
  7
STANDARD
  0
TEXT
  8
1
 10
10.6465
 20
48.3027
 40
5.0000
 50
0.0000
  1
QUANTITY: 1
  7
STANDARD
  0
TEXT
  8
1
 10
25.6465
 20
62.5527
 40
3.0000
 50
0.0000
  1
COMMENT: テディベア
  7
STANDARD
  0
TEXT
  8
1
 10
25.6465
 20
59.5527
 40
3.0000
 50
0.0000
  1
COMMENT: 左内腕
  7
STANDARD
  0
TEXT
  8
1
 10
25.6465
 20
56.5527
 40
3.0000
 50
0.0000
  1
COMMENT: Free
  7
STANDARD
  0
TEXT
  8
1
 10
25.6465
 20
53.5527
 40
3.0000
 50
0.0000
  1
COMMENT: 表 地 x 1
  7
STANDARD
  0
POLYLINE
999
1
  8
1
 66
1
 70
0
  0
VERTEX
999
1,1,1,1
  8
1
 10
32.1836
 20
3.2832
 38
10.0000
 50
62.0406
  0
VERTEX
999
1,2
  8
1
 10
31.2129
 20
4.0410
  0
VERTEX
999
1,2
  8
1
 10
26.1287
 20
8.4565
  0
VERTEX
999
1,2
  8
1
 10
21.4243
 20
13.4622
  0
VERTEX
999
1,2
  8
1
 10
17.2048
 20
18.9486
  0
VERTEX
999
1,2
  8
1
 10
13.5752
 20
24.8066
  0
VERTEX
999
1,1,1,2
  8
1
 10
11.8691
 20
28.0352
 38
10.0000
 50
26.8725
  0
VERTEX
999
1,2
  8
1
 10
7.0469
 20
38.8856
  0
VERTEX
999
1,2
  8
1
 10
3.5759
 20
49.6600
  0
VERTEX
999
1,2
  8
1
 10
1.3328
 20
60.4875
  0
VERTEX
999
1,2
  8
1
 10
0.1940
 20
71.4976
  0
VERTEX
999
1,2
  8
1
 10
0.0360
 20
82.8193
  0
VERTEX
999
1,1,1,3
  8
1
 10
0.7354
 20
94.5812
 38
10.0001
 50
354.8359
  0
VERTEX
999
1,2
  8
1
 10
1.6019
 20
101.1472
  0
VERTEX
999
1,2
  8
1
 10
3.0601
 20
107.4324
  0
VERTEX
999
1,2
  8
1
 10
5.2015
 20
113.2733
  0
VERTEX
999
1,2
  8
1
 10
8.1182
 20
118.5059
  0
VERTEX
999
1,2
  8
1
 10
10.8214
 20
121.9290
  0
VERTEX
999
1,2
  8
1
 10
14.0170
 20
124.9230
  0
VERTEX
999
1,2
  8
1
 10
17.7512
 20
127.4202
  0
VERTEX
999
1,2
  8
1
 10
22.0706
 20
129.3531
  0
VERTEX
999
1,2
  8
1
 10
27.0215
 20
130.6542
  0
VERTEX
999
1,1,1,4
  8
1
 10
32.6544
 20
131.2556
 38
10.0000
 50
272.1897
  0
VERTEX
999
1,2
  8
1
 10
39.4005
 20
130.8131
  0
VERTEX
999
1,2
  8
1
 10
45.7745
 20
128.9711
  0
VERTEX
999
1,2
  8
1
 10
51.5773
 20
125.7676
  0
VERTEX
999
1,2
  8
1
 10
56.6135
 20
121.2405
  0
VERTEX
999
1,2
  8
1
 10
60.6880
 20
115.4278
  0
VERTEX
999
1,2
  8
1
 10
63.6055
 20
108.3672
  0
VERTEX
999
1,2
  8
1
 10
64.1499
 20
105.8381
  0
VERTEX
999
1,2
  8
1
 10
64.4377
 20
102.8369
  0
VERTEX
999
1,2
  8
1
 10
64.4769
 20
99.4139
  0
VERTEX
999
1,2
  8
1
 10
64.2754
 20
95.6191
  0
VERTEX
999
1,2
  8
1
 10
62.4424
 20
80.9102
  0
VERTEX
999
1,2
  8
1
 10
61.4561
 20
73.9331
  0
VERTEX
999
1,2
  8
1
 10
60.6085
 20
66.9133
  0
VERTEX
999
1,2
  8
1
 10
60.1046
 20
60.1078
  0
VERTEX
999
1,1,1,5
  8
1
 10
60.1497
 20
53.7704
 38
9.9999
 50
183.6867
  0
VERTEX
999
1,2
  8
1
 10
60.4287
 20
50.9043
  0
VERTEX
999
1,2
  8
1
 10
60.7572
 20
48.9929
  0
VERTEX
999
1,2
  8
1
 10
61.2240
 20
47.1733
  0
VERTEX
999
1,2
  8
1
 10
61.8115
 20
45.4380
  0
VERTEX
999
1,1,1,6
  8
1
 10
62.5020
 20
43.7793
 38
10.0000
 50
238.0669
  0
VERTEX
999
1,1,,7
  8
1
 10
68.4414
 20
40.0742
  0
VERTEX
999
1,2,1
  8
1
 10
64.1533
 20
33.1934
 38
10.0000
 50
148.0725
  0
VERTEX
999
1,2
  8
1
 10
62.2885
 20
30.6457
  0
VERTEX
999
1,2
  8
1
 10
60.2380
 20
28.5796
  0
VERTEX
999
1,2
  8
1
 10
57.9902
 20
26.8130
  0
VERTEX
999
1,2
  8
1
 10
55.5332
 20
25.1641
  0
VERTEX
999
1,2
  8
1
 10
53.9421
 20
24.1344
  0
VERTEX
999
1,2
  8
1
 10
52.2452
 20
22.9268
  0
VERTEX
999
1,2
  8
1
 10
50.4708
 20
21.4144
  0
VERTEX
999
1,1,1,8
  8
1
 10
48.6343
 20
19.4523
 38
10.0000
 50
140.1022
  0
VERTEX
999
1,2
  8
1
 10
47.2864
 20
17.5695
  0
VERTEX
999
1,2
  8
1
 10
46.0868
 20
15.4492
  0
VERTEX
999
1,2
  8
1
 10
44.9999
 20
13.2206
  0
VERTEX
999
1,2
  8
1
 10
43.9766
 20
10.9941
  0
VERTEX
999
1,2,1
  8
1
 10
41.6992
 20
6.2773
 38
10.0000
 50
152.0464
  0
VERTEX
999
1,1,,9
  8
1
 10
38.3682
 20
0.0000
  0
VERTEX
999
1,1,,10
  8
1
 10
32.1836
 20
3.2832
  0
SEQEND
  0
POLYLINE
999
2
  8
1
 66
1
 70
0
  0
VERTEX
999
2,1,,11
  8
1
 10
35.5166
 20
9.5605
  0
VERTEX
999
2,2
  8
1
 10
30.9597
 20
13.5189
  0
VERTEX
999
2,2
  8
1
 10
26.7439
 20
18.0068
  0
VERTEX
999
2,2
  8
1
 10
22.9628
 20
22.9254
  0
VERTEX
999
2,2
  8
1
 10
19.7100
 20
28.1758
  0
VERTEX
999
2,1,,12
  8
1
 10
18.1133
 20
31.1992
  0
VERTEX
999
2,2
  8
1
 10
13.5736
 20
41.4295
  0
VERTEX
999
2,2
  8
1
 10
10.3179
 20
51.5898
  0
VERTEX
999
2,2
  8
1
 10
8.2249
 20
61.8010
  0
VERTEX
999
2,2
  8
1
 10
7.1730
 20
72.1843
  0
VERTEX
999
2,2
  8
1
 10
7.0408
 20
82.8607
  0
VERTEX
999
2,1,,13
  8
1
 10
7.7070
 20
93.9512
  0
VERTEX
999
2,2
  8
1
 10
8.7687
 20
101.4376
  0
VERTEX
999
2,2
  8
1
 10
10.7466
 20
108.4235
  0
VERTEX
999
2,2
  8
1
 10
13.8959
 20
114.5540
  0
VERTEX
999
2,2
  8
1
 10
18.4716
 20
119.4736
  0
VERTEX
999
2,2
  8
1
 10
24.7285
 20
122.8273
  0
VERTEX
999
2,1,,14
  8
1
 10
32.9219
 20
124.2598
  0
VERTEX
999
2,2
  8
1
 10
38.1609
 20
123.9087
  0
VERTEX
999
2,2
  8
1
 10
43.0988
 20
122.4590
  0
VERTEX
999
2,2
  8
1
 10
47.5885
 20
119.9458
  0
VERTEX
999
2,2
  8
1
 10
51.4825
 20
116.4043
  0
VERTEX
999
2,2
  8
1
 10
54.6337
 20
111.8696
  0
VERTEX
999
2,2
  8
1
 10
56.8945
 20
106.3770
  0
VERTEX
999
2,2
  8
1
 10
57.5074
 20
100.3959
  0
VERTEX
999
2,2
  8
1
 10
56.9156
 20
92.3242
  0
VERTEX
999
2,2
  8
1
 10
55.6522
 20
82.8713
  0
VERTEX
999
2,2
  8
1
 10
54.2504
 20
72.7468
  0
VERTEX
999
2,2
  8
1
 10
53.2433
 20
62.6599
  0
VERTEX
999
2,1,,15
  8
1
 10
53.1641
 20
53.3203
  0
VERTEX
999
2,2
  8
1
 10
53.4863
 20
50.0059
  0
VERTEX
999
2,2
  8
1
 10
54.1819
 20
46.3766
  0
VERTEX
999
2,2
  8
1
 10
55.2487
 20
43.0029
  0
VERTEX
999
2,2
  8
1
 10
56.6160
 20
39.8534
  0
VERTEX
999
2,1,,16
  8
1
 10
58.2129
 20
36.8965
  0
VERTEX
999
2,2
  8
1
 10
55.3357
 20
33.5845
  0
VERTEX
999
2,2
  8
1
 10
51.8965
 20
31.1482
  0
VERTEX
999
2,2
  8
1
 10
47.9534
 20
28.4362
  0
VERTEX
999
2,2
  8
1
 10
43.5645
 20
24.2969
  0
VERTEX
999
2,1,,17
  8
1
 10
43.2627
 20
23.9434
  0
VERTEX
999
2,2
  8
1
 10
40.9579
 20
20.5939
  0
VERTEX
999
2,2
  8
1
 10
38.9810
 20
16.8347
  0
VERTEX
999
2,2
  8
1
 10
37.2084
 20
13.0342
  0
VERTEX
999
2,1,,18
  8
1
 10
35.5166
 20
9.5605
  0
SEQEND
  0
LINE
999
5,1,,19
  8
1
 10
18.1133
 20
31.1992
 11
27.0334
 21
35.7193
  0
LINE
999
5,1,,21
  8
1
 10
32.9219
 20
124.2598
 11
33.3040
 21
114.2671
  0
LINE
999
5,1,,23
  8
1
 10
7.7070
 20
93.9512
 11
17.6665
 21
93.0511
  0
LINE
999
5,1,,25
  8
1
 10
53.1641
 20
53.3203
 11
43.1848
 21
52.6773
  0
LINE
999
5,1,,27
  8
1
 10
43.2627
 20
23.9434
 11
35.5908
 21
30.3575
  0
LINE
999
3,1,,29
  8
1
 10
34.5186
 20
131.2754
 11
34.5186
 21
2.0430
  0
POLYLINE
999
5
  8
1
 66
1
 70
0
  0
VERTEX
999
5,1,,29
  8
1
 10
32.8936
 20
100.8281
  0
VERTEX
999
5,2
  8
1
 10
33.3020
 20
100.7441
  0
VERTEX
999
5,2
  8
1
 10
33.6346
 20
100.5176
  0
VERTEX
999
5,2
  8
1
 10
33.8580
 20
100.1827
  0
VERTEX
999
5,1,,30
  8
1
 10
33.9385
 20
99.7734
  0
SEQEND
  0
POLYLINE
999
5
  8
1
 66
1
 70
0
  0
VERTEX
999
5,1,,31
  8
1
 10
32.8828
 20
98.7285
  0
VERTEX
999
5,2
  8
1
 10
32.4753
 20
98.8137
  0
VERTEX
999
5,2
  8
1
 10
32.1429
 20
99.0405
  0
VERTEX
999
5,2
  8
1
 10
31.9194
 20
99.3751
  0
VERTEX
999
5,1,,32
  8
1
 10
31.8389
 20
99.7832
  0
SEQEND
  0
POLYLINE
999
5
  8
1
 66
1
 70
0
  0
VERTEX
999
5,1,,33
  8
1
 10
33.9385
 20
99.7734
  0
VERTEX
999
5,2
  8
1
 10
33.8542
 20
99.3652
  0
VERTEX
999
5,2
  8
1
 10
33.6274
 20
99.0327
  0
VERTEX
999
5,2
  8
1
 10
33.2922
 20
98.8094
  0
VERTEX
999
5,1,,34
  8
1
 10
32.8828
 20
98.7285
  0
SEQEND
  0
POLYLINE
999
5
  8
1
 66
1
 70
0
  0
VERTEX
999
5,1,,35
  8
1
 10
31.8389
 20
99.7832
  0
VERTEX
999
5,2
  8
1
 10
31.9233
 20
100.1926
  0
VERTEX
999
5,2
  8
1
 10
32.1498
 20
100.5254
  0
VERTEX
999
5,2
  8
1
 10
32.4845
 20
100.7484
  0
VERTEX
999
5,1,,36
  8
1
 10
32.8936
 20
100.8281
  0
SEQEND
  0
ENDBLK
  0
BLOCK
  8
1
  2
P0009_05
 70
64
 10
0.0000
 20
0.0000
  0
TEXT
  8
1
 10
24.9014
 20
21.1687
 40
5.0000
 50
0.0000
  1
PIECE: 左内腕指先
  7
STANDARD
  0
TEXT
  8
1
 10
24.9014
 20
15.4187
 40
5.0000
 50
0.0000
  1
SIZE: Free
  7
STANDARD
  0
TEXT
  8
1
 10
24.9014
 20
9.6687
 40
5.0000
 50
0.0000
  1
FABRIC: 表 地
  7
STANDARD
  0
TEXT
  8
1
 10
24.9014
 20
3.9187
 40
5.0000
 50
0.0000
  1
QUANTITY: 1
  7
STANDARD
  0
TEXT
  8
1
 10
39.9014
 20
18.1687
 40
3.0000
 50
0.0000
  1
COMMENT: テディベア
  7
STANDARD
  0
TEXT
  8
1
 10
39.9014
 20
15.1687
 40
3.0000
 50
0.0000
  1
COMMENT: 左内腕指先
  7
STANDARD
  0
TEXT
  8
1
 10
39.9014
 20
12.1687
 40
3.0000
 50
0.0000
  1
COMMENT: Free
  7
STANDARD
  0
TEXT
  8
1
 10
39.9014
 20
9.1687
 40
3.0000
 50
0.0000
  1
COMMENT: 表 地 x 1
  7
STANDARD
  0
TEXT
  8
1
 10
36.7490
 20
9.7976
 40
5.0000
 50
0.0000
  1
COMMENT: 指先
  7
STANDARD
  0
POLYLINE
999
1
  8
1
 66
1
 70
0
  0
VERTEX
999
1,1,1,1
  8
1
 10
53.8320
 20
7.9675
 38
10.0000
 50
141.0945
  0
VERTEX
999
1,2
  8
1
 10
49.5602
 20
3.8490
  0
VERTEX
999
1,2
  8
1
 10
44.6289
 20
1.1956
  0
VERTEX
999
1,2
  8
1
 10
39.1146
 20
0.0000
  0
VERTEX
999
1,2
  8
1
 10
33.0941
 20
0.2551
  0
VERTEX
999
1,2
  8
1
 10
26.6439
 20
1.9537
  0
VERTEX
999
1,2
  8
1
 10
19.8408
 20
5.0886
  0
VERTEX
999
1,2
  8
1
 10
15.7480
 20
7.6945
  0
VERTEX
999
1,2
  8
1
 10
11.8401
 20
10.8577
  0
VERTEX
999
1,2
  8
1
 10
8.1566
 20
14.5226
  0
VERTEX
999
1,1,1,2
  8
1
 10
4.7373
 20
18.6335
 38
10.0000
 50
42.5980
  0
VERTEX
999
1,1,,3
  8
1
 10
0.0000
 20
23.7878
  0
VERTEX
999
1,2,1
  8
1
 10
5.1787
 20
28.5496
 38
10.0000
 50
312.6089
  0
VERTEX
999
1,2
  8
1
 10
8.2310
 20
31.3259
  0
VERTEX
999
1,2
  8
1
 10
11.1428
 20
33.9934
  0
VERTEX
999
1,2
  8
1
 10
13.8992
 20
36.6558
  0
VERTEX
999
1,1,1,4
  8
1
 10
16.4835
 20
39.4159
 38
10.0000
 50
318.7427
  0
VERTEX
999
1,2
  8
1
 10
19.0063
 20
42.6873
  0
VERTEX
999
1,2
  8
1
 10
21.2968
 20
46.4065
  0
VERTEX
999
1,2
  8
1
 10
23.3087
 20
50.4003
  0
VERTEX
999
1,2,1
  8
1
 10
24.9951
 20
54.4949
 38
10.0000
 50
339.7425
  0
VERTEX
999
1,1,,5
  8
1
 10
27.7295
 20
61.9070
  0
VERTEX
999
1,1,1,6
  8
1
 10
34.2979
 20
59.4832
 38
10.0000
 50
249.7417
  0
VERTEX
999
1,2
  8
1
 10
36.7529
 20
56.7683
  0
VERTEX
999
1,2
  8
1
 10
43.1465
 20
50.5886
  0
VERTEX
999
1,2
  8
1
 10
45.4844
 20
48.4496
  0
VERTEX
999
1,2
  8
1
 10
47.7024
 20
46.3201
  0
VERTEX
999
1,2
  8
1
 10
49.7523
 20
44.1671
  0
VERTEX
999
1,2
  8
1
 10
51.5859
 20
41.9578
  0
VERTEX
999
1,2
  8
1
 10
55.6211
 20
35.4145
  0
VERTEX
999
1,2
  8
1
 10
57.9186
 20
28.9840
  0
VERTEX
999
1,2
  8
1
 10
58.6835
 20
22.8452
  0
VERTEX
999
1,2
  8
1
 10
58.1206
 20
17.1769
  0
VERTEX
999
1,2
  8
1
 10
56.4352
 20
12.1581
  0
VERTEX
999
1,1,,7
  8
1
 10
53.8320
 20
7.9675
  0
SEQEND
  0
POLYLINE
999
2
  8
1
 66
1
 70
0
  0
VERTEX
999
2,1,,8
  8
1
 10
48.3828
 20
12.3601
  0
VERTEX
999
2,2
  8
1
 10
45.2256
 20
9.3935
  0
VERTEX
999
2,2
  8
1
 10
41.5743
 20
7.6162
  0
VERTEX
999
2,2
  8
1
 10
37.4891
 20
6.9688
  0
VERTEX
999
2,2
  8
1
 10
33.0302
 20
7.3918
  0
VERTEX
999
2,2
  8
1
 10
28.2576
 20
8.8259
  0
VERTEX
999
2,2
  8
1
 10
23.2314
 20
11.2117
  0
VERTEX
999
2,2
  8
1
 10
19.6051
 20
13.5422
  0
VERTEX
999
2,2
  8
1
 10
16.1563
 20
16.3894
  0
VERTEX
999
2,2
  8
1
 10
12.9161
 20
19.6937
  0
VERTEX
999
2,1,,9
  8
1
 10
9.9160
 20
23.3953
  0
VERTEX
999
2,1,,10
  8
1
 10
21.7461
 20
34.7996
  0
VERTEX
999
2,2
  8
1
 10
24.6475
 20
38.5471
  0
VERTEX
999
2,2
  8
1
 10
27.2930
 20
42.8047
  0
VERTEX
999
2,2
  8
1
 10
29.6191
 20
47.3776
  0
VERTEX
999
2,1,,11
  8
1
 10
31.5625
 20
52.0710
  0
VERTEX
999
2,2
  8
1
 10
35.3845
 20
48.2090
  0
VERTEX
999
2,2
  8
1
 10
39.2579
 20
44.6660
  0
VERTEX
999
2,2
  8
1
 10
42.8964
 20
41.2377
  0
VERTEX
999
2,2
  8
1
 10
46.0137
 20
37.7195
  0
VERTEX
999
2,2
  8
1
 10
49.0822
 20
32.8313
  0
VERTEX
999
2,2
  8
1
 10
50.9276
 20
28.0333
  0
VERTEX
999
2,2
  8
1
 10
51.6653
 20
23.4563
  0
VERTEX
999
2,2
  8
1
 10
51.4103
 20
19.2312
  0
VERTEX
999
2,2
  8
1
 10
50.2777
 20
15.4888
  0
VERTEX
999
2,1,,12
  8
1
 10
48.3828
 20
12.3601
  0
SEQEND
  0
LINE
999
5,1,,13
  8
1
 10
48.3828
 20
12.3601
 11
40.6010
 21
18.6405
  0
LINE
999
5,1,,15
  8
1
 10
21.7461
 20
34.7996
 11
29.2637
 21
28.2051
  0
LINE
999
3,1,,17
  8
1
 10
43.8232
 20
49.9753
 11
43.8232
 21
0.9187
  0
ENDBLK
  0
BLOCK
  8
1
  2
P0010_05
 70
64
 10
0.0000
 20
0.0000
  0
TEXT
  8
1
 10
17.9399
 20
17.6875
 40
5.0000
 50
0.0000
  1
PIECE: 右内腕指先
  7
STANDARD
  0
TEXT
  8
1
 10
17.9399
 20
11.9375
 40
5.0000
 50
0.0000
  1
SIZE: Free
  7
STANDARD
  0
TEXT
  8
1
 10
17.9399
 20
6.1875
 40
5.0000
 50
0.0000
  1
FABRIC: 表 地
  7
STANDARD
  0
TEXT
  8
1
 10
17.9399
 20
0.4375
 40
5.0000
 50
0.0000
  1
QUANTITY: 1
  7
STANDARD
  0
TEXT
  8
1
 10
32.9399
 20
14.6875
 40
3.0000
 50
0.0000
  1
COMMENT: テディベア
  7
STANDARD
  0
TEXT
  8
1
 10
32.9399
 20
11.6875
 40
3.0000
 50
0.0000
  1
COMMENT: 右内腕指先
  7
STANDARD
  0
TEXT
  8
1
 10
32.9399
 20
8.6875
 40
3.0000
 50
0.0000
  1
COMMENT: Free
  7
STANDARD
  0
TEXT
  8
1
 10
32.9399
 20
5.6875
 40
3.0000
 50
0.0000
  1
COMMENT: 表 地 x 1
  7
STANDARD
  0
TEXT
  8
1
 10
11.4917
 20
9.7979
 40
5.0000
 50
0.0000
  1
COMMENT: 指先
  7
STANDARD
  0
POLYLINE
999
1
  8
1
 66
1
 70
0
  0
VERTEX
999
1,1,1,1
  8
1
 10
53.3833
 20
18.6338
 38
10.0000
 50
137.4020
  0
VERTEX
999
1,2
  8
1
 10
49.9640
 20
14.5228
  0
VERTEX
999
1,2
  8
1
 10
46.2805
 20
10.8578
  0
VERTEX
999
1,2
  8
1
 10
42.3726
 20
7.6943
  0
VERTEX
999
1,2
  8
1
 10
38.2798
 20
5.0879
  0
VERTEX
999
1,2
  8
1
 10
31.4767
 20
1.9534
  0
VERTEX
999
1,2
  8
1
 10
25.0265
 20
0.2551
  0
VERTEX
999
1,2
  8
1
 10
19.0060
 20
0.0000
  0
VERTEX
999
1,2
  8
1
 10
13.4917
 20
1.1954
  0
VERTEX
999
1,2
  8
1
 10
8.5604
 20
3.8486
  0
VERTEX
999
1,1,1,2
  8
1
 10
4.2910
 20
7.9645
 38
10.0000
 50
38.9055
  0
VERTEX
999
1,2
  8
1
 10
1.6854
 20
12.1574
  0
VERTEX
999
1,2
  8
1
 10
0.0000
 20
17.1765
  0
VERTEX
999
1,2
  8
1
 10
-0.5627
 20
22.8448
  0
VERTEX
999
1,2
  8
1
 10
0.2021
 20
28.9837
  0
VERTEX
999
1,2
  8
1
 10
2.4996
 20
35.4141
  0
VERTEX
999
1,2
  8
1
 10
6.5347
 20
41.9570
  0
VERTEX
999
1,2
  8
1
 10
8.3683
 20
44.1665
  0
VERTEX
999
1,2
  8
1
 10
10.4182
 20
46.3198
  0
VERTEX
999
1,2
  8
1
 10
12.6362
 20
48.4497
  0
VERTEX
999
1,2
  8
1
 10
14.9741
 20
50.5889
  0
VERTEX
999
1,2
  8
1
 10
21.3677
 20
56.7686
  0
VERTEX
999
1,1,1,3
  8
1
 10
23.8228
 20
59.4824
 38
10.0000
 50
290.2583
  0
VERTEX
999
1,1,,4
  8
1
 10
30.3911
 20
61.9063
  0
VERTEX
999
1,2,1
  8
1
 10
33.1255
 20
54.4951
 38
9.9999
 50
200.2464
  0
VERTEX
999
1,2
  8
1
 10
34.8119
 20
50.4005
  0
VERTEX
999
1,2
  8
1
 10
36.8239
 20
46.4064
  0
VERTEX
999
1,2
  8
1
 10
39.1143
 20
42.6871
  0
VERTEX
999
1,1,1,5
  8
1
 10
41.6371
 20
39.4161
 38
10.0000
 50
221.2572
  0
VERTEX
999
1,2
  8
1
 10
44.2214
 20
36.6561
  0
VERTEX
999
1,2
  8
1
 10
46.9778
 20
33.9935
  0
VERTEX
999
1,2
  8
1
 10
49.8896
 20
31.3257
  0
VERTEX
999
1,2,1
  8
1
 10
52.9419
 20
28.5488
 38
10.0000
 50
227.3996
  0
VERTEX
999
1,1,,6
  8
1
 10
58.1206
 20
23.7871
  0
VERTEX
999
1,1,,7
  8
1
 10
53.3833
 20
18.6338
  0
SEQEND
  0
POLYLINE
999
2
  8
1
 66
1
 70
0
  0
VERTEX
999
2,1,,8
  8
1
 10
48.2046
 20
23.3955
  0
VERTEX
999
2,2
  8
1
 10
45.2045
 20
19.6939
  0
VERTEX
999
2,2
  8
1
 10
41.9644
 20
16.3896
  0
VERTEX
999
2,2
  8
1
 10
38.5155
 20
13.5424
  0
VERTEX
999
2,2
  8
1
 10
34.8892
 20
11.2119
  0
VERTEX
999
2,2
  8
1
 10
29.8630
 20
8.8262
  0
VERTEX
999
2,2
  8
1
 10
25.0905
 20
7.3920
  0
VERTEX
999
2,2
  8
1
 10
20.6315
 20
6.9690
  0
VERTEX
999
2,2
  8
1
 10
16.5463
 20
7.6165
  0
VERTEX
999
2,2
  8
1
 10
12.8950
 20
9.3937
  0
VERTEX
999
2,1,,9
  8
1
 10
9.7378
 20
12.3604
  0
VERTEX
999
2,2
  8
1
 10
7.8429
 20
15.4891
  0
VERTEX
999
2,2
  8
1
 10
6.7103
 20
19.2314
  0
VERTEX
999
2,2
  8
1
 10
6.4553
 20
23.4565
  0
VERTEX
999
2,2
  8
1
 10
7.1930
 20
28.0335
  0
VERTEX
999
2,2
  8
1
 10
9.0385
 20
32.8315
  0
VERTEX
999
2,2
  8
1
 10
12.1069
 20
37.7197
  0
VERTEX
999
2,2
  8
1
 10
15.2242
 20
41.2379
  0
VERTEX
999
2,2
  8
1
 10
18.8627
 20
44.6663
  0
VERTEX
999
2,2
  8
1
 10
22.7361
 20
48.2092
  0
VERTEX
999
2,1,,10
  8
1
 10
26.5581
 20
52.0713
  0
VERTEX
999
2,2
  8
1
 10
28.5015
 20
47.3778
  0
VERTEX
999
2,2
  8
1
 10
30.8276
 20
42.8049
  0
VERTEX
999
2,2
  8
1
 10
33.4731
 20
38.5474
  0
VERTEX
999
2,1,,11
  8
1
 10
36.3745
 20
34.7998
  0
VERTEX
999
2,1,,12
  8
1
 10
48.2046
 20
23.3955
  0
SEQEND
  0
LINE
999
5,1,,13
  8
1
 10
9.7378
 20
12.3604
 11
17.5197
 21
18.6407
  0
LINE
999
5,1,,15
  8
1
 10
36.3745
 20
34.7998
 11
28.8569
 21
28.2054
  0
LINE
999
3,1,,17
  8
1
 10
14.2974
 20
49.9756
 11
14.2974
 21
0.9180
  0
ENDBLK
  0
BLOCK
  8
1
  2
P0011_05
 70
64
 10
0.0000
 20
0.0000
  0
TEXT
  8
1
 10
76.9482
 20
50.7607
 40
5.0000
 50
0.0000
  1
PIECE: 左横顔
  7
STANDARD
  0
TEXT
  8
1
 10
76.9482
 20
45.0107
 40
5.0000
 50
0.0000
  1
SIZE: Free
  7
STANDARD
  0
TEXT
  8
1
 10
76.9482
 20
39.2607
 40
5.0000
 50
0.0000
  1
FABRIC: 表 地
  7
STANDARD
  0
TEXT
  8
1
 10
76.9482
 20
33.5107
 40
5.0000
 50
0.0000
  1
QUANTITY: 1
  7
STANDARD
  0
TEXT
  8
1
 10
91.9482
 20
47.7607
 40
3.0000
 50
0.0000
  1
COMMENT: テディベア
  7
STANDARD
  0
TEXT
  8
1
 10
91.9482
 20
44.7607
 40
3.0000
 50
0.0000
  1
COMMENT: 左横顔
  7
STANDARD
  0
TEXT
  8
1
 10
91.9482
 20
41.7607
 40
3.0000
 50
0.0000
  1
COMMENT: Free
  7
STANDARD
  0
TEXT
  8
1
 10
91.9482
 20
38.7607
 40
3.0000
 50
0.0000
  1
COMMENT: 表 地 x 1
  7
STANDARD
  0
TEXT
  8
1
 10
127.1299
 20
83.9590
 40
5.0000
 50
0.0000
  1
COMMENT: 後頭部
  7
STANDARD
  0
TEXT
  8
1
 10
118.8701
 20
22.7295
 40
5.0000
 50
0.0000
  1
COMMENT: 首
  7
STANDARD
  0
TEXT
  8
1
 10
96.0898
 20
109.9590
 40
5.0000
 50
0.0000
  1
COMMENT: 耳
  7
STANDARD
  0
TEXT
  8
1
 10
11.4766
 20
47.1328
 40
5.0000
 50
359.9448
  1
COMMENT: 鼻
  7
STANDARD
  0
POLYLINE
999
1
  8
1
 66
1
 70
0
  0
VERTEX
999
1,1,,1
  8
1
 10
95.1338
 20
0.0000
  0
VERTEX
999
1,2,1
  8
1
 10
89.7656
 20
4.4922
 38
10.0000
 50
50.0885
  0
VERTEX
999
1,2
  8
1
 10
84.2847
 20
8.2241
  0
VERTEX
999
1,2
  8
1
 10
78.1410
 20
10.8427
  0
VERTEX
999
1,2
  8
1
 10
71.1541
 20
12.5601
  0
VERTEX
999
1,2
  8
1
 10
63.1436
 20
13.5889
  0
VERTEX
999
1,2
  8
1
 10
56.2336
 20
14.2906
  0
VERTEX
999
1,2
  8
1
 10
49.7893
 20
15.1704
  0
VERTEX
999
1,2
  8
1
 10
43.7815
 20
16.2800
  0
VERTEX
999
1,2
  8
1
 10
38.1810
 20
17.6710
  0
VERTEX
999
1,2
  8
1
 10
32.9589
 20
19.3951
  0
VERTEX
999
1,2
  8
1
 10
28.0859
 20
21.5039
  0
VERTEX
999
1,2
  8
1
 10
23.2719
 20
24.1976
  0
VERTEX
999
1,2
  8
1
 10
18.7609
 20
27.4273
  0
VERTEX
999
1,2
  8
1
 10
14.5300
 20
31.2609
  0
VERTEX
999
1,2
  8
1
 10
10.5565
 20
35.7661
  0
VERTEX
999
1,2
  8
1
 10
6.8175
 20
41.0107
  0
VERTEX
999
1,1,1,2
  8
1
 10
3.2900
 20
47.0625
 38
10.0000
 50
28.0372
  0
VERTEX
999
1,1,,3
  8
1
 10
0.0000
 20
53.2402
  0
VERTEX
999
1,2,1
  8
1
 10
6.1787
 20
56.5313
 38
10.0000
 50
298.0467
  0
VERTEX
999
1,2
  8
1
 10
22.3502
 20
65.1438
  0
VERTEX
999
1,2
  8
1
 10
38.5225
 20
73.7578
  0
VERTEX
999
1,2
  8
1
 10
41.3525
 20
75.4344
  0
VERTEX
999
1,2
  8
1
 10
43.9966
 20
77.3667
  0
VERTEX
999
1,2
  8
1
 10
46.4128
 20
79.5575
  0
VERTEX
999
1,2,1
  8
1
 10
48.5597
 20
82.0099
 38
10.0000
 50
322.2750
  0
VERTEX
999
1,2
  8
1
 10
49.3640
 20
83.1284
  0
VERTEX
999
1,2
  8
1
 10
50.0978
 20
84.2979
  0
VERTEX
999
1,2
  8
1
 10
50.7710
 20
85.5083
  0
VERTEX
999
1,2
  8
1
 10
51.3936
 20
86.7500
  0
VERTEX
999
1,2
  8
1
 10
54.6366
 20
93.1550
  0
VERTEX
999
1,2
  8
1
 10
58.2836
 20
99.1791
  0
VERTEX
999
1,2
  8
1
 10
62.6576
 20
104.7727
  0
VERTEX
999
1,2
  8
1
 10
68.0820
 20
109.8867
  0
VERTEX
999
1,2
  8
1
 10
74.8800
 20
114.4718
  0
VERTEX
999
1,1,1,4
  8
1
 10
83.4022
 20
118.4921
 38
10.0000
 50
294.8867
  0
VERTEX
999
1,2
  8
1
 10
87.5088
 20
120.5410
  0
VERTEX
999
1,1,,5
  8
1
 10
88.2969
 20
120.9023
  0
VERTEX
999
1,2
  8
1
 10
89.1426
 20
121.0596
  0
VERTEX
999
1,1,1,6
  8
1
 10
93.9473
 20
121.7715
 38
10.0000
 50
280.2357
  0
VERTEX
999
1,2
  8
1
 10
100.3678
 20
122.5107
  0
VERTEX
999
1,2
  8
1
 10
106.4758
 20
122.5159
  0
VERTEX
999
1,2
  8
1
 10
112.2723
 20
121.8223
  0
VERTEX
999
1,2
  8
1
 10
117.7582
 20
120.4652
  0
VERTEX
999
1,2
  8
1
 10
122.9343
 20
118.4801
  0
VERTEX
999
1,2
  8
1
 10
127.8018
 20
115.9023
  0
VERTEX
999
1,2
  8
1
 10
132.4982
 20
112.6443
  0
VERTEX
999
1,2
  8
1
 10
136.8636
 20
108.7975
  0
VERTEX
999
1,2
  8
1
 10
140.8938
 20
104.3967
  0
VERTEX
999
1,2
  8
1
 10
144.5844
 20
99.4766
  0
VERTEX
999
1,2
  8
1
 10
147.9308
 20
94.0717
  0
VERTEX
999
1,1,1,7
  8
1
 10
150.9294
 20
88.2150
 38
10.0000
 50
204.9002
  0
VERTEX
999
1,2
  8
1
 10
154.9481
 20
78.2017
  0
VERTEX
999
1,2
  8
1
 10
158.0027
 20
67.5400
  0
VERTEX
999
1,2
  8
1
 10
159.9897
 20
56.4307
  0
VERTEX
999
1,2
  8
1
 10
160.8069
 20
45.0726
  0
VERTEX
999
1,2
  8
1
 10
160.3517
 20
33.6649
  0
VERTEX
999
1,2,1
  8
1
 10
158.5215
 20
22.4063
 38
10.0000
 50
167.0729
  0
VERTEX
999
1,1,,8
  8
1
 10
157.0342
 20
15.9277
  0
VERTEX
999
1,1,1,9
  8
1
 10
150.2119
 20
17.4932
 38
10.0000
 50
77.0753
  0
VERTEX
999
1,2
  8
1
 10
147.8975
 20
18.2266
  0
VERTEX
999
1,2
  8
1
 10
146.2748
 20
18.5140
  0
VERTEX
999
1,2
  8
1
 10
144.2053
 20
18.5455
  0
VERTEX
999
1,2
  8
1
 10
141.7561
 20
18.3824
  0
VERTEX
999
1,2
  8
1
 10
138.9941
 20
18.0859
  0
VERTEX
999
1,2
  8
1
 10
131.2325
 20
16.8431
  0
VERTEX
999
1,2
  8
1
 10
122.9159
 20
14.9375
  0
VERTEX
999
1,2
  8
1
 10
114.7191
 20
12.5236
  0
VERTEX
999
1,2
  8
1
 10
107.3174
 20
9.7559
  0
VERTEX
999
1,2
  8
1
 10
104.8159
 20
8.6547
  0
VERTEX
999
1,2
  8
1
 10
102.6378
 20
7.5763
  0
VERTEX
999
1,2
  8
1
 10
100.8760
 20
6.4901
  0
VERTEX
999
1,1,1,10
  8
1
 10
99.6230
 20
5.3652
 38
10.0000
 50
140.0280
  0
VERTEX
999
1,1,,11
  8
1
 10
95.1338
 20
0.0000
  0
SEQEND
  0
POLYLINE
999
2
  8
1
 66
1
 70
0
  0
VERTEX
999
2,1,,12
  8
1
 10
94.2578
 20
9.8613
  0
VERTEX
999
2,2
  8
1
 10
90.1403
 20
12.8922
  0
VERTEX
999
2,2
  8
1
 10
85.7247
 20
15.3462
  0
VERTEX
999
2,2
  8
1
 10
80.9451
 20
17.2817
  0
VERTEX
999
2,2
  8
1
 10
75.7349
 20
18.7573
  0
VERTEX
999
2,2
  8
1
 10
70.0280
 20
19.8314
  0
VERTEX
999
2,2
  8
1
 10
63.7578
 20
20.5625
  0
VERTEX
999
2,2
  8
1
 10
54.2933
 20
21.5785
  0
VERTEX
999
2,2
  8
1
 10
45.7657
 20
22.9968
  0
VERTEX
999
2,2
  8
1
 10
38.0895
 20
25.0032
  0
VERTEX
999
2,2
  8
1
 10
31.1783
 20
27.7832
  0
VERTEX
999
2,2
  8
1
 10
24.9467
 20
31.5225
  0
VERTEX
999
2,2
  8
1
 10
19.3083
 20
36.4067
  0
VERTEX
999
2,2
  8
1
 10
14.1777
 20
42.6215
  0
VERTEX
999
2,1,,13
  8
1
 10
9.4688
 20
50.3525
  0
VERTEX
999
2,2
  8
1
 10
25.6411
 20
58.9652
  0
VERTEX
999
2,2
  8
1
 10
41.8135
 20
67.5801
  0
VERTEX
999
2,2
  8
1
 10
45.2802
 20
69.6404
  0
VERTEX
999
2,2
  8
1
 10
48.5139
 20
72.0198
  0
VERTEX
999
2,2
  8
1
 10
51.4683
 20
74.7159
  0
VERTEX
999
2,2
  8
1
 10
54.0967
 20
77.7266
  0
VERTEX
999
2,2
  8
1
 10
55.1191
 20
79.1440
  0
VERTEX
999
2,2
  8
1
 10
56.0557
 20
80.6239
  0
VERTEX
999
2,2
  8
1
 10
56.9153
 20
82.1556
  0
VERTEX
999
2,2
  8
1
 10
57.7070
 20
83.7285
  0
VERTEX
999
2,2
  8
1
 10
60.5743
 20
89.4116
  0
VERTEX
999
2,2
  8
1
 10
63.7853
 20
94.7711
  0
VERTEX
999
2,2
  8
1
 10
67.6337
 20
99.7567
  0
VERTEX
999
2,2
  8
1
 10
72.4132
 20
104.3181
  0
VERTEX
999
2,2
  8
1
 10
78.4180
 20
108.4049
  0
VERTEX
999
2,2
  8
1
 10
85.9414
 20
111.9668
  0
VERTEX
999
2,1,,14
  8
1
 10
86.3564
 20
112.1240
  0
VERTEX
999
2,2
  8
1
 10
86.7441
 20
112.3398
  0
VERTEX
999
2,1,,15
  8
1
 10
90.4238
 20
114.1777
  0
VERTEX
999
2,2
  8
1
 10
94.4961
 20
114.7930
  0
VERTEX
999
2,1,,16
  8
1
 10
94.9365
 20
114.8398
  0
VERTEX
999
2,2
  8
1
 10
103.1532
 20
115.5957
  0
VERTEX
999
2,2
  8
1
 10
110.7640
 20
114.9688
  0
VERTEX
999
2,2
  8
1
 10
117.7690
 20
113.0471
  0
VERTEX
999
2,2
  8
1
 10
124.1681
 20
109.9189
  0
VERTEX
999
2,2
  8
1
 10
129.9611
 20
105.6724
  0
VERTEX
999
2,2
  8
1
 10
135.1479
 20
100.3955
  0
VERTEX
999
2,2
  8
1
 10
139.7286
 20
94.1765
  0
VERTEX
999
2,2
  8
1
 10
143.7031
 20
87.1035
  0
VERTEX
999
2,1,,17
  8
1
 10
144.5801
 20
85.2676
  0
VERTEX
999
2,2
  8
1
 10
148.3275
 20
75.9396
  0
VERTEX
999
2,2
  8
1
 10
151.1814
 20
66.0098
  0
VERTEX
999
2,2
  8
1
 10
153.0436
 20
55.6631
  0
VERTEX
999
2,2
  8
1
 10
153.8159
 20
45.0847
  0
VERTEX
999
2,2
  8
1
 10
153.4005
 20
34.4595
  0
VERTEX
999
2,1,,18
  8
1
 10
151.6992
 20
23.9727
  0
VERTEX
999
2,2
  8
1
 10
146.1028
 20
25.4641
  0
VERTEX
999
2,2
  8
1
 10
136.1008
 20
24.7675
  0
VERTEX
999
2,2
  8
1
 10
123.8043
 20
22.3710
  0
VERTEX
999
2,2
  8
1
 10
111.3243
 20
18.7625
  0
VERTEX
999
2,2
  8
1
 10
100.7717
 20
14.4299
  0
VERTEX
999
2,1,,19
  8
1
 10
94.2578
 20
9.8613
  0
SEQEND
  0
LINE
999
5,1,,20
  8
1
 10
54.0967
 20
77.7266
 11
62.0062
 21
71.6078
  0
LINE
999
5,1,,22
  8
1
 10
86.3564
 20
112.1240
 11
90.5647
 21
103.0526
  0
LINE
999
5,1,,24
  8
1
 10
94.9365
 20
114.8398
 11
96.7135
 21
104.9990
  0
LINE
999
5,1,,26
  8
1
 10
144.5801
 20
85.2676
 11
135.5096
 21
81.0572
  0
LINE
999
5,1,,28
  8
1
 10
86.3564
 20
112.1240
 11
101.2070
 21
80.1133
  0
LINE
999
5,1,,30
  8
1
 10
101.2070
 20
80.1133
 11
94.9365
 21
114.8398
  0
LINE
999
3,1,,32
  8
1
 10
2.2432
 20
49.0273
 11
160.6621
 21
49.0273
  0
LINE
999
5,1,,32
  8
1
 10
101.2070
 20
80.1133
 11
106.9277
 21
81.9238
  0
LINE
999
5,1,,34
  8
1
 10
101.2070
 20
80.1133
 11
95.4863
 21
78.3018
  0
LINE
999
5,1,,36
  8
1
 10
101.2070
 20
80.1133
 11
90.4258
 21
114.1787
  0
ENDBLK
  0
BLOCK
  8
1
  2
P0012_05
 70
64
 10
0.0000
 20
0.0000
  0
TEXT
  8
1
 10
57.8586
 20
50.7607
 40
5.0000
 50
0.0000
  1
PIECE: 右横顔
  7
STANDARD
  0
TEXT
  8
1
 10
57.8586
 20
45.0107
 40
5.0000
 50
0.0000
  1
SIZE: Free
  7
STANDARD
  0
TEXT
  8
1
 10
57.8586
 20
39.2607
 40
5.0000
 50
0.0000
  1
FABRIC: 表 地
  7
STANDARD
  0
TEXT
  8
1
 10
57.8586
 20
33.5107
 40
5.0000
 50
0.0000
  1
QUANTITY: 1
  7
STANDARD
  0
TEXT
  8
1
 10
72.8586
 20
47.7607
 40
3.0000
 50
0.0000
  1
COMMENT: テディベア
  7
STANDARD
  0
TEXT
  8
1
 10
72.8586
 20
44.7607
 40
3.0000
 50
0.0000
  1
COMMENT: 右横顔
  7
STANDARD
  0
TEXT
  8
1
 10
72.8586
 20
41.7607
 40
3.0000
 50
0.0000
  1
COMMENT: Free
  7
STANDARD
  0
TEXT
  8
1
 10
72.8586
 20
38.7607
 40
3.0000
 50
0.0000
  1
COMMENT: 表 地 x 1
  7
STANDARD
  0
TEXT
  8
1
 10
18.8567
 20
83.9590
 40
5.0000
 50
0.0000
  1
COMMENT: 後頭部
  7
STANDARD
  0
TEXT
  8
1
 10
36.9963
 20
22.7295
 40
5.0000
 50
0.0000
  1
COMMENT: 首
  7
STANDARD
  0
TEXT
  8
1
 10
59.7766
 20
109.9590
 40
5.0000
 50
0.0000
  1
COMMENT: 耳
  7
STANDARD
  0
TEXT
  8
1
 10
144.3899
 20
47.1289
 40
5.0000
 50
0.0566
  1
COMMENT: 鼻
  7
STANDARD
  0
POLYLINE
999
1
  8
1
 66
1
 70
0
  0
VERTEX
999
1,1,1,1
  8
1
 10
157.5168
 20
47.0625
 38
10.0000
 50
151.9628
  0
VERTEX
999
1,2
  8
1
 10
153.9894
 20
41.0107
  0
VERTEX
999
1,2
  8
1
 10
150.2504
 20
35.7661
  0
VERTEX
999
1,2
  8
1
 10
146.2769
 20
31.2609
  0
VERTEX
999
1,2
  8
1
 10
142.0460
 20
27.4273
  0
VERTEX
999
1,2
  8
1
 10
137.5350
 20
24.1976
  0
VERTEX
999
1,2
  8
1
 10
132.7209
 20
21.5039
  0
VERTEX
999
1,2
  8
1
 10
127.8480
 20
19.3951
  0
VERTEX
999
1,2
  8
1
 10
122.6259
 20
17.6710
  0
VERTEX
999
1,2
  8
1
 10
117.0254
 20
16.2800
  0
VERTEX
999
1,2
  8
1
 10
111.0176
 20
15.1704
  0
VERTEX
999
1,2
  8
1
 10
104.5732
 20
14.2906
  0
VERTEX
999
1,2
  8
1
 10
97.6633
 20
13.5889
  0
VERTEX
999
1,2
  8
1
 10
89.6528
 20
12.5601
  0
VERTEX
999
1,2
  8
1
 10
82.6659
 20
10.8427
  0
VERTEX
999
1,2
  8
1
 10
76.5222
 20
8.2241
  0
VERTEX
999
1,2,1
  8
1
 10
71.0413
 20
4.4922
 38
10.0000
 50
129.9112
  0
VERTEX
999
1,1,,2
  8
1
 10
65.6731
 20
0.0000
  0
VERTEX
999
1,1,1,3
  8
1
 10
61.1838
 20
5.3652
 38
10.0000
 50
39.9720
  0
VERTEX
999
1,2
  8
1
 10
59.9309
 20
6.4901
  0
VERTEX
999
1,2
  8
1
 10
58.1691
 20
7.5763
  0
VERTEX
999
1,2
  8
1
 10
55.9910
 20
8.6547
  0
VERTEX
999
1,2
  8
1
 10
53.4895
 20
9.7559
  0
VERTEX
999
1,2
  8
1
 10
46.0878
 20
12.5236
  0
VERTEX
999
1,2
  8
1
 10
37.8910
 20
14.9375
  0
VERTEX
999
1,2
  8
1
 10
29.5743
 20
16.8431
  0
VERTEX
999
1,2
  8
1
 10
21.8127
 20
18.0859
  0
VERTEX
999
1,2
  8
1
 10
19.0508
 20
18.3824
  0
VERTEX
999
1,2
  8
1
 10
16.6016
 20
18.5455
  0
VERTEX
999
1,2
  8
1
 10
14.5321
 20
18.5140
  0
VERTEX
999
1,2
  8
1
 10
12.9094
 20
18.2266
  0
VERTEX
999
1,1,1,4
  8
1
 10
10.5950
 20
17.4932
 38
10.0000
 50
102.9247
  0
VERTEX
999
1,1,,5
  8
1
 10
3.7727
 20
15.9277
  0
VERTEX
999
1,2,1
  8
1
 10
2.2854
 20
22.4063
 38
9.9999
 50
12.9344
  0
VERTEX
999
1,2
  8
1
 10
0.4552
 20
33.6649
  0
VERTEX
999
1,2
  8
1
 10
0.0000
 20
45.0726
  0
VERTEX
999
1,2
  8
1
 10
0.8171
 20
56.4307
  0
VERTEX
999
1,2
  8
1
 10
2.8042
 20
67.5400
  0
VERTEX
999
1,2
  8
1
 10
5.8588
 20
78.2017
  0
VERTEX
999
1,1,1,6
  8
1
 10
9.8774
 20
88.2149
 38
10.0000
 50
335.0998
  0
VERTEX
999
1,2
  8
1
 10
12.8761
 20
94.0717
  0
VERTEX
999
1,2
  8
1
 10
16.2225
 20
99.4766
  0
VERTEX
999
1,2
  8
1
 10
19.9131
 20
104.3967
  0
VERTEX
999
1,2
  8
1
 10
23.9432
 20
108.7975
  0
VERTEX
999
1,2
  8
1
 10
28.3087
 20
112.6443
  0
VERTEX
999
1,2
  8
1
 10
33.0051
 20
115.9023
  0
VERTEX
999
1,2
  8
1
 10
37.8726
 20
118.4801
  0
VERTEX
999
1,2
  8
1
 10
43.0487
 20
120.4652
  0
VERTEX
999
1,2
  8
1
 10
48.5345
 20
121.8223
  0
VERTEX
999
1,2
  8
1
 10
54.3311
 20
122.5159
  0
VERTEX
999
1,2
  8
1
 10
60.4391
 20
122.5107
  0
VERTEX
999
1,1,1,7
  8
1
 10
66.8596
 20
121.7715
 38
10.0000
 50
259.7643
  0
VERTEX
999
1,2
  8
1
 10
71.6643
 20
121.0596
  0
VERTEX
999
1,1,,8
  8
1
 10
72.5100
 20
120.9023
  0
VERTEX
999
1,2
  8
1
 10
73.2981
 20
120.5410
  0
VERTEX
999
1,1,1,9
  8
1
 10
77.4047
 20
118.4921
 38
10.0000
 50
245.1133
  0
VERTEX
999
1,2
  8
1
 10
85.9269
 20
114.4718
  0
VERTEX
999
1,2
  8
1
 10
92.7249
 20
109.8867
  0
VERTEX
999
1,2
  8
1
 10
98.1493
 20
104.7727
  0
VERTEX
999
1,2
  8
1
 10
102.5233
 20
99.1791
  0
VERTEX
999
1,2
  8
1
 10
106.1703
 20
93.1550
  0
VERTEX
999
1,2
  8
1
 10
109.4133
 20
86.7500
  0
VERTEX
999
1,2
  8
1
 10
110.0359
 20
85.5084
  0
VERTEX
999
1,2
  8
1
 10
110.7091
 20
84.2979
  0
VERTEX
999
1,2
  8
1
 10
111.4429
 20
83.1284
  0
VERTEX
999
1,2,1
  8
1
 10
112.2495
 20
82.0072
 38
10.0000
 50
217.6956
  0
VERTEX
999
1,2
  8
1
 10
114.3940
 20
79.5575
  0
VERTEX
999
1,2
  8
1
 10
116.8103
 20
77.3667
  0
VERTEX
999
1,2
  8
1
 10
119.4543
 20
75.4344
  0
VERTEX
999
1,2
  8
1
 10
122.2844
 20
73.7578
  0
VERTEX
999
1,2
  8
1
 10
138.4567
 20
65.1438
  0
VERTEX
999
1,2,1
  8
1
 10
154.6282
 20
56.5313
 38
10.0000
 50
241.9706
  0
VERTEX
999
1,1,,10
  8
1
 10
160.8069
 20
53.2402
  0
VERTEX
999
1,1,,11
  8
1
 10
157.5168
 20
47.0625
  0
SEQEND
  0
POLYLINE
999
2
  8
1
 66
1
 70
0
  0
VERTEX
999
2,1,,12
  8
1
 10
151.3381
 20
50.3525
  0
VERTEX
999
2,2
  8
1
 10
146.6292
 20
42.6215
  0
VERTEX
999
2,2
  8
1
 10
141.4985
 20
36.4067
  0
VERTEX
999
2,2
  8
1
 10
135.8602
 20
31.5225
  0
VERTEX
999
2,2
  8
1
 10
129.6285
 20
27.7832
  0
VERTEX
999
2,2
  8
1
 10
122.7174
 20
25.0032
  0
VERTEX
999
2,2
  8
1
 10
115.0411
 20
22.9968
  0
VERTEX
999
2,2
  8
1
 10
106.5135
 20
21.5785
  0
VERTEX
999
2,2
  8
1
 10
97.0491
 20
20.5625
  0
VERTEX
999
2,2
  8
1
 10
90.7789
 20
19.8314
  0
VERTEX
999
2,2
  8
1
 10
85.0720
 20
18.7573
  0
VERTEX
999
2,2
  8
1
 10
79.8618
 20
17.2817
  0
VERTEX
999
2,2
  8
1
 10
75.0822
 20
15.3462
  0
VERTEX
999
2,2
  8
1
 10
70.6666
 20
12.8922
  0
VERTEX
999
2,1,,13
  8
1
 10
66.5491
 20
9.8613
  0
VERTEX
999
2,2
  8
1
 10
60.0352
 20
14.4299
  0
VERTEX
999
2,2
  8
1
 10
49.4825
 20
18.7625
  0
VERTEX
999
2,2
  8
1
 10
37.0026
 20
22.3710
  0
VERTEX
999
2,2
  8
1
 10
24.7061
 20
24.7675
  0
VERTEX
999
2,2
  8
1
 10
14.7041
 20
25.4641
  0
VERTEX
999
2,1,,14
  8
1
 10
9.1077
 20
23.9727
  0
VERTEX
999
2,2
  8
1
 10
7.4064
 20
34.4595
  0
VERTEX
999
2,2
  8
1
 10
6.9910
 20
45.0847
  0
VERTEX
999
2,2
  8
1
 10
7.7633
 20
55.6631
  0
VERTEX
999
2,2
  8
1
 10
9.6255
 20
66.0098
  0
VERTEX
999
2,2
  8
1
 10
12.4794
 20
75.9396
  0
VERTEX
999
2,1,,15
  8
1
 10
16.2268
 20
85.2676
  0
VERTEX
999
2,2
  8
1
 10
17.1038
 20
87.1035
  0
VERTEX
999
2,2
  8
1
 10
21.0782
 20
94.1765
  0
VERTEX
999
2,2
  8
1
 10
25.6589
 20
100.3955
  0
VERTEX
999
2,2
  8
1
 10
30.8458
 20
105.6724
  0
VERTEX
999
2,2
  8
1
 10
36.6388
 20
109.9189
  0
VERTEX
999
2,2
  8
1
 10
43.0378
 20
113.0471
  0
VERTEX
999
2,2
  8
1
 10
50.0428
 20
114.9688
  0
VERTEX
999
2,2
  8
1
 10
57.6537
 20
115.5957
  0
VERTEX
999
2,1,,16
  8
1
 10
65.8704
 20
114.8398
  0
VERTEX
999
2,2
  8
1
 10
66.3108
 20
114.7930
  0
VERTEX
999
2,1,,17
  8
1
 10
70.3831
 20
114.1777
  0
VERTEX
999
2,2
  8
1
 10
74.0627
 20
112.3398
  0
VERTEX
999
2,1,,18
  8
1
 10
74.4504
 20
112.1240
  0
VERTEX
999
2,2
  8
1
 10
74.8655
 20
111.9668
  0
VERTEX
999
2,2
  8
1
 10
82.3889
 20
108.4049
  0
VERTEX
999
2,2
  8
1
 10
88.3937
 20
104.3181
  0
VERTEX
999
2,2
  8
1
 10
93.1732
 20
99.7567
  0
VERTEX
999
2,2
  8
1
 10
97.0216
 20
94.7711
  0
VERTEX
999
2,2
  8
1
 10
100.2325
 20
89.4116
  0
VERTEX
999
2,2
  8
1
 10
103.0999
 20
83.7285
  0
VERTEX
999
2,2
  8
1
 10
103.8916
 20
82.1556
  0
VERTEX
999
2,2
  8
1
 10
104.7512
 20
80.6239
  0
VERTEX
999
2,2
  8
1
 10
105.6877
 20
79.1440
  0
VERTEX
999
2,2
  8
1
 10
106.7102
 20
77.7266
  0
VERTEX
999
2,2
  8
1
 10
109.3386
 20
74.7159
  0
VERTEX
999
2,2
  8
1
 10
112.2930
 20
72.0198
  0
VERTEX
999
2,2
  8
1
 10
115.5267
 20
69.6404
  0
VERTEX
999
2,2
  8
1
 10
118.9934
 20
67.5801
  0
VERTEX
999
2,2
  8
1
 10
135.1658
 20
58.9652
  0
VERTEX
999
2,1,,19
  8
1
 10
151.3381
 20
50.3525
  0
SEQEND
  0
LINE
999
5,1,,20
  8
1
 10
16.2268
 20
85.2676
 11
25.2972
 21
81.0572
  0
LINE
999
5,1,,22
  8
1
 10
65.8704
 20
114.8398
 11
64.0934
 21
104.9990
  0
LINE
999
5,1,,24
  8
1
 10
106.7102
 20
77.7266
 11
98.7975
 21
71.6119
  0
LINE
999
5,1,,26
  8
1
 10
74.4504
 20
112.1240
 11
70.2422
 21
103.0526
  0
LINE
999
5,1,,28
  8
1
 10
74.4504
 20
112.1240
 11
59.5999
 21
80.1133
  0
LINE
999
5,1,,30
  8
1
 10
59.5999
 20
80.1133
 11
65.8704
 21
114.8398
  0
LINE
999
3,1,,32
  8
1
 10
158.5637
 20
49.0273
 11
0.1448
 21
49.0273
  0
LINE
999
5,1,,32
  8
1
 10
59.5999
 20
80.1133
 11
53.8792
 21
81.9238
  0
LINE
999
5,1,,34
  8
1
 10
59.5999
 20
80.1133
 11
65.3206
 21
78.3018
  0
LINE
999
5,1,,36
  8
1
 10
59.5999
 20
80.1133
 11
70.3811
 21
114.1787
  0
ENDBLK
  0
BLOCK
  8
1
  2
P0013_05
 70
64
 10
0.0000
 20
0.0000
  0
TEXT
  8
1
 10
55.8662
 20
127.9580
 40
5.0000
 50
0.0000
  1
PIECE: 頭中央
  7
STANDARD
  0
TEXT
  8
1
 10
55.8662
 20
122.2080
 40
5.0000
 50
0.0000
  1
SIZE: Free
  7
STANDARD
  0
TEXT
  8
1
 10
55.8662
 20
116.4580
 40
5.0000
 50
0.0000
  1
FABRIC: 表 地
  7
STANDARD
  0
TEXT
  8
1
 10
55.8662
 20
110.7080
 40
5.0000
 50
0.0000
  1
QUANTITY: 2
  7
STANDARD
  0
TEXT
  8
1
 10
70.8662
 20
124.9580
 40
3.0000
 50
0.0000
  1
COMMENT: テディベア
  7
STANDARD
  0
TEXT
  8
1
 10
70.8662
 20
121.9580
 40
3.0000
 50
0.0000
  1
COMMENT: 頭中央
  7
STANDARD
  0
TEXT
  8
1
 10
70.8662
 20
118.9580
 40
3.0000
 50
0.0000
  1
COMMENT: Free
  7
STANDARD
  0
TEXT
  8
1
 10
70.8662
 20
115.9580
 40
3.0000
 50
0.0000
  1
COMMENT: 表 地 x 2
  7
STANDARD
  0
TEXT
  8
1
 10
95.8066
 20
101.7227
 40
5.0000
 50
0.0000
  1
COMMENT: 耳
  7
STANDARD
  0
TEXT
  8
1
 10
69.3857
 20
157.7627
 40
5.0000
 50
0.0000
  1
COMMENT: 後頭部
  7
STANDARD
  0
TEXT
  8
1
 10
52.1367
 20
7.7188
 40
5.0000
 50
359.9448
  1
COMMENT: 鼻
  7
STANDARD
  0
TEXT
  8
1
 10
52.2383
 20
201.7930
 40
5.0000
 50
0.0000
  1
COMMENT: 首
  7
STANDARD
  0
TEXT
  8
1
 10
8.7119
 20
101.7227
 40
5.0000
 50
0.0000
  1
COMMENT: 耳
  7
STANDARD
  0
TEXT
  8
1
 10
25.2529
 20
157.7627
 40
5.0000
 50
0.0000
  1
COMMENT: 後頭部
  7
STANDARD
  0
POLYLINE
999
1
  8
1
 66
1
 70
0
  0
VERTEX
999
1,1,1,1
  8
1
 10
0.6211
 20
90.9746
 38
10.0000
 50
12.0729
  0
VERTEX
999
1,2
  8
1
 10
0.5439
 20
91.6494
  0
VERTEX
999
1,2
  8
1
 10
0.0811
 20
96.1182
  0
VERTEX
999
1,1,,2
  8
1
 10
0.0000
 20
96.9834
  0
VERTEX
999
1,2
  8
1
 10
0.3682
 20
101.6553
  0
VERTEX
999
1,2,1
  8
1
 10
0.4380
 20
102.3317
 38
10.0000
 50
349.9352
  0
VERTEX
999
1,2
  8
1
 10
1.4296
 20
111.9377
  0
VERTEX
999
1,2
  8
1
 10
3.0153
 20
122.0424
  0
VERTEX
999
1,2
  8
1
 10
5.1743
 20
131.9338
  0
VERTEX
999
1,2
  8
1
 10
7.9554
 20
141.5764
  0
VERTEX
999
1,2
  8
1
 10
11.4073
 20
150.9346
  0
VERTEX
999
1,2
  8
1
 10
15.5791
 20
159.9727
  0
VERTEX
999
1,1,1,3
  8
1
 10
16.6583
 20
162.0502
 38
10.0000
 50
332.3132
  0
VERTEX
999
1,2
  8
1
 10
21.4022
 20
170.6346
  0
VERTEX
999
1,2
  8
1
 10
26.4719
 20
179.1115
  0
VERTEX
999
1,2
  8
1
 10
31.8103
 20
187.5656
  0
VERTEX
999
1,2
  8
1
 10
37.3585
 20
196.0782
  0
VERTEX
999
1,2
  8
1
 10
43.0576
 20
204.7312
  0
VERTEX
999
1,2
  8
1
 10
48.8486
 20
213.6055
  0
VERTEX
999
1,1,,4
  8
1
 10
54.7295
 20
222.7168
  0
VERTEX
999
1,2
  8
1
 10
60.6104
 20
213.6055
  0
VERTEX
999
1,2
  8
1
 10
66.4015
 20
204.7312
  0
VERTEX
999
1,2
  8
1
 10
72.1006
 20
196.0785
  0
VERTEX
999
1,2
  8
1
 10
77.6488
 20
187.5660
  0
VERTEX
999
1,2
  8
1
 10
82.9869
 20
179.1127
  0
VERTEX
999
1,2
  8
1
 10
88.0560
 20
170.6370
  0
VERTEX
999
1,1,1,5
  8
1
 10
92.7971
 20
162.0571
 38
10.0000
 50
207.7515
  0
VERTEX
999
1,2
  8
1
 10
93.8789
 20
159.9775
  0
VERTEX
999
1,2
  8
1
 10
98.0549
 20
150.9406
  0
VERTEX
999
1,2
  8
1
 10
101.5085
 20
141.5822
  0
VERTEX
999
1,2
  8
1
 10
104.2896
 20
131.9385
  0
VERTEX
999
1,2
  8
1
 10
106.4475
 20
122.0454
  0
VERTEX
999
1,2
  8
1
 10
108.0320
 20
111.9390
  0
VERTEX
999
1,2,1
  8
1
 10
109.0229
 20
102.3317
 38
10.0000
 50
190.0648
  0
VERTEX
999
1,1,,6
  8
1
 10
109.0928
 20
101.6553
  0
VERTEX
999
1,2
  8
1
 10
109.3975
 20
97.1729
  0
VERTEX
999
1,1,,7
  8
1
 10
109.4277
 20
96.6445
  0
VERTEX
999
1,2
  8
1
 10
109.3789
 20
96.1182
  0
VERTEX
999
1,2
  8
1
 10
108.9170
 20
91.6494
  0
VERTEX
999
1,1,1,8
  8
1
 10
108.8390
 20
90.9720
 38
10.0000
 50
167.9239
  0
VERTEX
999
1,2
  8
1
 10
108.6328
 20
90.3223
  0
VERTEX
999
1,2
  8
1
 10
105.9906
 20
82.5206
  0
VERTEX
999
1,2
  8
1
 10
103.0817
 20
74.7674
  0
VERTEX
999
1,2
  8
1
 10
99.9667
 20
67.0621
  0
VERTEX
999
1,2
  8
1
 10
96.7061
 20
59.4042
  0
VERTEX
999
1,2
  8
1
 10
93.3605
 20
51.7928
  0
VERTEX
999
1,2,1
  8
1
 10
89.9901
 20
44.2271
 38
10.0000
 50
155.9737
  0
VERTEX
999
1,2
  8
1
 10
89.1650
 20
42.2701
  0
VERTEX
999
1,2
  8
1
 10
88.4165
 20
40.2815
  0
VERTEX
999
1,2
  8
1
 10
87.7397
 20
38.2639
  0
VERTEX
999
1,2
  8
1
 10
87.1299
 20
36.2197
  0
VERTEX
999
1,2
  8
1
 10
85.8065
 20
31.6583
  0
VERTEX
999
1,2
  8
1
 10
84.2979
 20
26.9105
  0
VERTEX
999
1,2
  8
1
 10
82.5826
 20
22.1626
  0
VERTEX
999
1,2
  8
1
 10
80.6396
 20
17.6006
  0
VERTEX
999
1,2
  8
1
 10
77.8457
 20
12.4447
  0
VERTEX
999
1,2
  8
1
 10
74.6251
 20
8.0529
  0
VERTEX
999
1,2
  8
1
 10
71.0210
 20
4.5943
  0
VERTEX
999
1,2
  8
1
 10
67.0762
 20
2.2383
  0
VERTEX
999
1,2
  8
1
 10
64.4233
 20
1.2756
  0
VERTEX
999
1,2
  8
1
 10
61.5107
 20
0.5621
  0
VERTEX
999
1,2
  8
1
 10
58.3198
 20
0.1271
  0
VERTEX
999
1,1,1,9
  8
1
 10
54.7251
 20
0.0034
 38
10.0000
 50
89.9636
  0
VERTEX
999
1,2
  8
1
 10
51.2806
 20
0.1144
  0
VERTEX
999
1,2
  8
1
 10
48.0348
 20
0.5457
  0
VERTEX
999
1,2
  8
1
 10
45.0754
 20
1.2637
  0
VERTEX
999
1,2
  8
1
 10
42.3838
 20
2.2383
  0
VERTEX
999
1,2
  8
1
 10
38.4390
 20
4.5941
  0
VERTEX
999
1,2
  8
1
 10
34.8347
 20
8.0524
  0
VERTEX
999
1,2
  8
1
 10
31.6139
 20
12.4439
  0
VERTEX
999
1,2
  8
1
 10
28.8193
 20
17.5996
  0
VERTEX
999
1,2
  8
1
 10
26.8762
 20
22.1624
  0
VERTEX
999
1,2
  8
1
 10
25.1609
 20
26.9109
  0
VERTEX
999
1,2
  8
1
 10
23.6525
 20
31.6591
  0
VERTEX
999
1,2
  8
1
 10
22.3301
 20
36.2207
  0
VERTEX
999
1,2
  8
1
 10
21.7207
 20
38.2648
  0
VERTEX
999
1,2
  8
1
 10
21.0439
 20
40.2823
  0
VERTEX
999
1,2
  8
1
 10
20.2954
 20
42.2708
  0
VERTEX
999
1,2,1
  8
1
 10
19.4707
 20
44.2274
 38
10.0000
 50
24.0235
  0
VERTEX
999
1,2
  8
1
 10
16.1008
 20
51.7929
  0
VERTEX
999
1,2
  8
1
 10
12.7550
 20
59.4044
  0
VERTEX
999
1,2
  8
1
 10
9.4943
 20
67.0625
  0
VERTEX
999
1,2
  8
1
 10
6.3790
 20
74.7678
  0
VERTEX
999
1,2
  8
1
 10
3.4701
 20
82.5209
  0
VERTEX
999
1,2
  8
1
 10
0.8281
 20
90.3223
  0
VERTEX
999
1,1,,10
  8
1
 10
0.6211
 20
90.9746
  0
SEQEND
  0
POLYLINE
999
2
  8
1
 66
1
 70
0
  0
VERTEX
999
2,1,,11
  8
1
 10
54.7295
 20
6.9990
  0
VERTEX
999
2,2
  8
1
 10
51.9915
 20
7.0799
  0
VERTEX
999
2,2
  8
1
 10
49.4875
 20
7.3964
  0
VERTEX
999
2,2
  8
1
 10
47.2043
 20
7.9338
  0
VERTEX
999
2,2
  8
1
 10
45.1289
 20
8.6777
  0
VERTEX
999
2,2
  8
1
 10
41.2799
 20
11.3154
  0
VERTEX
999
2,2
  8
1
 10
37.9753
 20
15.4187
  0
VERTEX
999
2,2
  8
1
 10
35.1586
 20
20.5690
  0
VERTEX
999
2,2
  8
1
 10
32.7731
 20
26.3472
  0
VERTEX
999
2,2
  8
1
 10
30.7622
 20
32.3346
  0
VERTEX
999
2,2
  8
1
 10
29.0693
 20
38.1123
  0
VERTEX
999
2,2
  8
1
 10
28.3864
 20
40.4010
  0
VERTEX
999
2,2
  8
1
 10
27.6276
 20
42.6599
  0
VERTEX
999
2,2
  8
1
 10
26.7885
 20
44.8862
  0
VERTEX
999
2,2
  8
1
 10
25.8643
 20
47.0771
  0
VERTEX
999
2,2
  8
1
 10
22.5458
 20
54.5235
  0
VERTEX
999
2,2
  8
1
 10
19.2496
 20
62.0145
  0
VERTEX
999
2,2
  8
1
 10
16.0364
 20
69.5511
  0
VERTEX
999
2,2
  8
1
 10
12.9666
 20
77.1342
  0
VERTEX
999
2,2
  8
1
 10
10.1006
 20
84.7646
  0
VERTEX
999
2,1,,12
  8
1
 10
7.4990
 20
92.4434
  0
VERTEX
999
2,1,,13
  8
1
 10
7.0508
 20
96.7676
  0
VERTEX
999
2,1,,14
  8
1
 10
7.3467
 20
101.1055
  0
VERTEX
999
2,2
  8
1
 10
8.3556
 20
110.9202
  0
VERTEX
999
2,2
  8
1
 10
9.8586
 20
120.5670
  0
VERTEX
999
2,2
  8
1
 10
11.9056
 20
130.0109
  0
VERTEX
999
2,2
  8
1
 10
14.5464
 20
139.2173
  0
VERTEX
999
2,2
  8
1
 10
17.8304
 20
148.1512
  0
VERTEX
999
2,2
  8
1
 10
21.8076
 20
156.7783
  0
VERTEX
999
2,1,,15
  8
1
 10
22.8564
 20
158.7979
  0
VERTEX
999
2,2
  8
1
 10
27.5499
 20
167.2877
  0
VERTEX
999
2,2
  8
1
 10
32.5703
 20
175.6753
  0
VERTEX
999
2,2
  8
1
 10
37.8580
 20
184.0408
  0
VERTEX
999
2,2
  8
1
 10
43.3535
 20
192.4647
  0
VERTEX
999
2,2
  8
1
 10
48.9972
 20
201.0276
  0
VERTEX
999
2,1,,16
  8
1
 10
54.7295
 20
209.8096
  0
VERTEX
999
2,2
  8
1
 10
60.4619
 20
201.0276
  0
VERTEX
999
2,2
  8
1
 10
66.1057
 20
192.4647
  0
VERTEX
999
2,2
  8
1
 10
71.6013
 20
184.0408
  0
VERTEX
999
2,2
  8
1
 10
76.8890
 20
175.6753
  0
VERTEX
999
2,2
  8
1
 10
81.9093
 20
167.2877
  0
VERTEX
999
2,1,,17
  8
1
 10
86.6025
 20
158.7979
  0
VERTEX
999
2,2
  8
1
 10
87.6523
 20
156.7783
  0
VERTEX
999
2,2
  8
1
 10
91.6296
 20
148.1512
  0
VERTEX
999
2,2
  8
1
 10
94.9139
 20
139.2173
  0
VERTEX
999
2,2
  8
1
 10
97.5548
 20
130.0109
  0
VERTEX
999
2,2
  8
1
 10
99.6021
 20
120.5670
  0
VERTEX
999
2,2
  8
1
 10
101.1053
 20
110.9202
  0
VERTEX
999
2,1,,18
  8
1
 10
102.1143
 20
101.1055
  0
VERTEX
999
2,1,,19
  8
1
 10
102.4092
 20
96.7676
  0
VERTEX
999
2,1,,20
  8
1
 10
101.9619
 20
92.4434
  0
VERTEX
999
2,2
  8
1
 10
99.3600
 20
84.7646
  0
VERTEX
999
2,2
  8
1
 10
96.4940
 20
77.1342
  0
VERTEX
999
2,2
  8
1
 10
93.4242
 20
69.5511
  0
VERTEX
999
2,2
  8
1
 10
90.2111
 20
62.0145
  0
VERTEX
999
2,2
  8
1
 10
86.9152
 20
54.5235
  0
VERTEX
999
2,2
  8
1
 10
83.5967
 20
47.0771
  0
VERTEX
999
2,2
  8
1
 10
82.6719
 20
44.8862
  0
VERTEX
999
2,2
  8
1
 10
81.8325
 20
42.6599
  0
VERTEX
999
2,2
  8
1
 10
81.0737
 20
40.4010
  0
VERTEX
999
2,2
  8
1
 10
80.3906
 20
38.1123
  0
VERTEX
999
2,2
  8
1
 10
78.6978
 20
32.3346
  0
VERTEX
999
2,2
  8
1
 10
76.6869
 20
26.3472
  0
VERTEX
999
2,2
  8
1
 10
74.3014
 20
20.5690
  0
VERTEX
999
2,2
  8
1
 10
71.4846
 20
15.4187
  0
VERTEX
999
2,2
  8
1
 10
68.1801
 20
11.3154
  0
VERTEX
999
2,2
  8
1
 10
64.3311
 20
8.6777
  0
VERTEX
999
2,2
  8
1
 10
62.2555
 20
7.9338
  0
VERTEX
999
2,2
  8
1
 10
59.9723
 20
7.3964
  0
VERTEX
999
2,2
  8
1
 10
57.4680
 20
7.0799
  0
VERTEX
999
2,1,,21
  8
1
 10
54.7295
 20
6.9990
  0
SEQEND
  0
LINE
999
5,1,,22
  8
1
 10
25.8643
 20
47.0771
 11
34.9980
 21
51.1483
  0
LINE
999
5,1,,24
  8
1
 10
7.4990
 20
92.4434
 11
17.2778
 21
94.5349
  0
LINE
999
5,1,,26
  8
1
 10
22.8564
 20
158.7979
 11
31.7114
 21
154.1515
  0
LINE
999
5,1,,28
  8
1
 10
7.3467
 20
101.1055
 11
17.1927
 21
99.3578
  0
LINE
999
5,1,,30
  8
1
 10
86.6025
 20
158.7979
 11
77.7528
 21
154.1415
  0
LINE
999
5,1,,32
  8
1
 10
102.1143
 20
101.1055
 11
92.2682
 21
99.3578
  0
LINE
999
5,1,,34
  8
1
 10
83.5967
 20
47.0771
 11
74.4631
 21
51.1487
  0
LINE
999
5,1,,36
  8
1
 10
54.7295
 20
6.9990
 11
54.7358
 21
16.9990
  0
LINE
999
5,1,,38
  8
1
 10
101.9619
 20
92.4434
 11
92.1832
 21
94.5355
  0
LINE
999
5,1,,40
  8
1
 10
54.7295
 20
209.8096
 11
66.4922
 21
217.4023
  0
LINE
999
5,1,,42
  8
1
 10
54.7295
 20
209.8096
 11
42.9678
 21
217.4023
  0
LINE
999
5,1,,44
  8
1
 10
102.1143
 20
101.1055
 11
79.9043
 21
97.1621
  0
LINE
999
5,1,,46
  8
1
 10
79.9043
 20
97.1621
 11
101.9619
 21
92.4434
  0
LINE
999
5,1,,48
  8
1
 10
54.7295
 20
6.9990
 11
54.7295
 21
209.8096
  0
LINE
999
5,1,,50
  8
1
 10
102.4092
 20
96.7676
 11
79.9043
 21
97.1621
  0
LINE
999
5,1,,52
  8
1
 10
79.9043
 20
97.1621
 11
79.7998
 21
91.1631
  0
LINE
999
5,1,,54
  8
1
 10
79.9043
 20
97.1621
 11
80.0088
 21
103.1611
  0
LINE
999
5,1,,56
  8
1
 10
29.5557
 20
97.1621
 11
29.4502
 21
103.1611
  0
LINE
999
5,1,,58
  8
1
 10
29.5557
 20
97.1621
 11
29.6611
 21
91.1631
  0
LINE
999
5,1,,60
  8
1
 10
29.5557
 20
97.1621
 11
7.4990
 21
92.4434
  0
LINE
999
5,1,,62
  8
1
 10
7.3467
 20
101.1055
 11
29.5557
 21
97.1621
  0
LINE
999
5,1,,64
  8
1
 10
29.5557
 20
97.1621
 11
29.4502
 21
103.1611
  0
LINE
999
5,1,,66
  8
1
 10
29.5557
 20
97.1621
 11
29.6611
 21
91.1631
  0
LINE
999
5,1,,68
  8
1
 10
7.0508
 20
96.7676
 11
29.5557
 21
97.1621
  0
POLYLINE
999
5
  8
1
 66
1
 70
0
  0
VERTEX
999
5,1,,70
  8
1
 10
54.7295
 20
111.8467
  0
VERTEX
999
5,2
  8
1
 10
49.4614
 20
110.7830
  0
VERTEX
999
5,2
  8
1
 10
45.1594
 20
107.8821
  0
VERTEX
999
5,2
  8
1
 10
42.2589
 20
103.5797
  0
VERTEX
999
5,1,,71
  8
1
 10
41.1953
 20
98.3115
  0
SEQEND
  0
POLYLINE
999
5
  8
1
 66
1
 70
0
  0
VERTEX
999
5,1,,72
  8
1
 10
41.1953
 20
98.3115
  0
VERTEX
999
5,2
  8
1
 10
42.2589
 20
93.0433
  0
VERTEX
999
5,2
  8
1
 10
45.1594
 20
88.7410
  0
VERTEX
999
5,2
  8
1
 10
49.4614
 20
85.8401
  0
VERTEX
999
5,1,,73
  8
1
 10
54.7295
 20
84.7764
  0
SEQEND
  0
POLYLINE
999
5
  8
1
 66
1
 70
0
  0
VERTEX
999
5,1,,74
  8
1
 10
54.7295
 20
84.7764
  0
VERTEX
999
5,2
  8
1
 10
59.9982
 20
85.8401
  0
VERTEX
999
5,2
  8
1
 10
64.3004
 20
88.7410
  0
VERTEX
999
5,2
  8
1
 10
67.2010
 20
93.0433
  0
VERTEX
999
5,1,,75
  8
1
 10
68.2646
 20
98.3115
  0
SEQEND
  0
POLYLINE
999
5
  8
1
 66
1
 70
0
  0
VERTEX
999
5,1,,76
  8
1
 10
68.2646
 20
98.3115
  0
VERTEX
999
5,2
  8
1
 10
67.2010
 20
103.5797
  0
VERTEX
999
5,2
  8
1
 10
64.3004
 20
107.8821
  0
VERTEX
999
5,2
  8
1
 10
59.9982
 20
110.7830
  0
VERTEX
999
5,1,,77
  8
1
 10
54.7295
 20
111.8467
  0
SEQEND
  0
POLYLINE
999
5
  8
1
 66
1
 70
0
  0
VERTEX
999
5,1,,78
  8
1
 10
54.7295
 20
107.2861
  0
VERTEX
999
5,2
  8
1
 10
51.2363
 20
106.5808
  0
VERTEX
999
5,2
  8
1
 10
48.3837
 20
104.6573
  0
VERTEX
999
5,2
  8
1
 10
46.4602
 20
101.8046
  0
VERTEX
999
5,1,,79
  8
1
 10
45.7549
 20
98.3115
  0
SEQEND
  0
POLYLINE
999
5
  8
1
 66
1
 70
0
  0
VERTEX
999
5,1,,80
  8
1
 10
54.7295
 20
89.3369
  0
VERTEX
999
5,2
  8
1
 10
58.2230
 20
90.0422
  0
VERTEX
999
5,2
  8
1
 10
61.0757
 20
91.9657
  0
VERTEX
999
5,2
  8
1
 10
62.9989
 20
94.8184
  0
VERTEX
999
5,1,,81
  8
1
 10
63.7041
 20
98.3115
  0
SEQEND
  0
POLYLINE
999
5
  8
1
 66
1
 70
0
  0
VERTEX
999
5,1,,82
  8
1
 10
63.7041
 20
98.3115
  0
VERTEX
999
5,2
  8
1
 10
62.9989
 20
101.8046
  0
VERTEX
999
5,2
  8
1
 10
61.0757
 20
104.6573
  0
VERTEX
999
5,2
  8
1
 10
58.2230
 20
106.5808
  0
VERTEX
999
5,1,,83
  8
1
 10
54.7295
 20
107.2861
  0
SEQEND
  0
POLYLINE
999
5
  8
1
 66
1
 70
0
  0
VERTEX
999
5,1,,84
  8
1
 10
45.7549
 20
98.3115
  0
VERTEX
999
5,2
  8
1
 10
46.4602
 20
94.8184
  0
VERTEX
999
5,2
  8
1
 10
48.3837
 20
91.9657
  0
VERTEX
999
5,2
  8
1
 10
51.2363
 20
90.0422
  0
VERTEX
999
5,1,,85
  8
1
 10
54.7295
 20
89.3369
  0
SEQEND
  0
ENDBLK
  0
BLOCK
  8
1
  2
P0014_05
 70
64
 10
0.0000
 20
0.0000
  0
TEXT
  8
1
 10
58.7789
 20
114.5680
 40
5.0000
 50
0.0000
  1
PIECE: 右体
  7
STANDARD
  0
TEXT
  8
1
 10
58.7789
 20
108.8180
 40
5.0000
 50
0.0000
  1
SIZE: Free
  7
STANDARD
  0
TEXT
  8
1
 10
58.7789
 20
103.0680
 40
5.0000
 50
0.0000
  1
FABRIC: 表 地
  7
STANDARD
  0
TEXT
  8
1
 10
58.7789
 20
97.3180
 40
5.0000
 50
0.0000
  1
QUANTITY: 1
  7
STANDARD
  0
TEXT
  8
1
 10
73.7789
 20
111.5680
 40
3.0000
 50
0.0000
  1
COMMENT: テディベア
  7
STANDARD
  0
TEXT
  8
1
 10
73.7789
 20
108.5680
 40
3.0000
 50
0.0000
  1
COMMENT: 右体
  7
STANDARD
  0
TEXT
  8
1
 10
73.7789
 20
105.5680
 40
3.0000
 50
0.0000
  1
COMMENT: Free
  7
STANDARD
  0
TEXT
  8
1
 10
73.7789
 20
102.5680
 40
3.0000
 50
0.0000
  1
COMMENT: 表 地 x 1
  7
STANDARD
  0
TEXT
  8
1
 10
88.1920
 20
173.7281
 40
5.0000
 50
0.0000
  1
COMMENT: ジョイント
  7
STANDARD
  0
TEXT
  8
1
 10
10.8610
 20
89.9176
 40
5.0000
 50
0.0000
  1
COMMENT: 背
  7
STANDARD
  0
TEXT
  8
1
 10
148.3805
 20
84.4381
 40
5.0000
 50
0.0000
  1
COMMENT: 腹
  7
STANDARD
  0
TEXT
  8
1
 10
68.4900
 20
149.0035
 40
5.0000
 50
0.0000
  1
COMMENT: 腕
  7
STANDARD
  0
TEXT
  8
1
 10
108.4000
 20
38.1989
 40
5.0000
 50
0.0000
  1
COMMENT: 綿詰め口
  7
STANDARD
  0
TEXT
  8
1
 10
33.8717
 20
39.9781
 40
5.0000
 50
0.0000
  1
COMMENT: 綿詰め口
  7
STANDARD
  0
TEXT
  8
1
 10
51.2203
 20
58.6539
 40
5.0000
 50
0.0000
  1
COMMENT: 足
  7
STANDARD
  0
POLYLINE
999
1
  8
1
 66
1
 70
0
  0
VERTEX
999
1,1,1,1
  8
1
 10
37.6926
 20
4.9501
 38
10.0001
 50
44.9936
  0
VERTEX
999
1,2
  8
1
 10
33.3623
 20
8.5967
  0
VERTEX
999
1,2
  8
1
 10
29.1569
 20
12.3521
  0
VERTEX
999
1,2
  8
1
 10
25.0898
 20
16.2123
  0
VERTEX
999
1,2
  8
1
 10
21.1748
 20
20.1729
  0
VERTEX
999
1,2
  8
1
 10
17.4254
 20
24.2296
  0
VERTEX
999
1,1,1,2
  8
1
 10
13.8556
 20
28.3781
 38
10.0000
 50
39.6565
  0
VERTEX
999
1,2
  8
1
 10
9.7804
 20
33.8359
  0
VERTEX
999
1,2
  8
1
 10
6.3185
 20
39.7130
  0
VERTEX
999
1,2
  8
1
 10
3.5397
 20
46.0416
  0
VERTEX
999
1,2
  8
1
 10
1.5137
 20
52.8538
  0
VERTEX
999
1,2
  8
1
 10
0.3105
 20
60.1819
  0
VERTEX
999
1,2
  8
1
 10
0.0000
 20
68.0579
  0
VERTEX
999
1,2
  8
1
 10
0.5493
 20
78.1256
  0
VERTEX
999
1,2
  8
1
 10
1.8206
 20
88.7646
  0
VERTEX
999
1,2
  8
1
 10
3.8164
 20
99.7908
  0
VERTEX
999
1,2
  8
1
 10
6.5402
 20
111.0200
  0
VERTEX
999
1,2
  8
1
 10
9.9948
 20
122.2682
  0
VERTEX
999
1,1,1,3
  8
1
 10
14.1832
 20
133.3513
 38
10.0000
 50
337.3870
  0
VERTEX
999
1,2
  8
1
 10
17.4395
 20
140.6733
  0
VERTEX
999
1,2
  8
1
 10
21.0326
 20
147.7792
  0
VERTEX
999
1,2
  8
1
 10
24.9611
 20
154.6147
  0
VERTEX
999
1,2
  8
1
 10
29.2235
 20
161.1255
  0
VERTEX
999
1,2
  8
1
 10
33.8184
 20
167.2576
  0
VERTEX
999
1,2
  8
1
 10
38.7440
 20
172.9566
  0
VERTEX
999
1,2
  8
1
 10
42.6987
 20
176.8748
  0
VERTEX
999
1,2
  8
1
 10
46.9856
 20
180.5152
  0
VERTEX
999
1,2
  8
1
 10
51.5503
 20
183.8488
  0
VERTEX
999
1,2
  8
1
 10
56.3385
 20
186.8465
  0
VERTEX
999
1,2
  8
1
 10
61.2960
 20
189.4795
  0
VERTEX
999
1,2
  8
1
 10
66.3684
 20
191.7188
  0
VERTEX
999
1,2
  8
1
 10
71.7372
 20
193.6068
  0
VERTEX
999
1,2
  8
1
 10
77.1134
 20
195.0057
  0
VERTEX
999
1,2
  8
1
 10
82.4390
 20
195.8951
  0
VERTEX
999
1,2
  8
1
 10
87.6555
 20
196.2546
  0
VERTEX
999
1,2
  8
1
 10
92.7048
 20
196.0638
  0
VERTEX
999
1,2
  8
1
 10
97.5288
 20
195.3021
  0
VERTEX
999
1,1,,4
  8
1
 10
104.3566
 20
193.7686
  0
VERTEX
999
1,1,,5
  8
1
 10
103.8174
 20
191.3625
  0
VERTEX
999
1,2
  8
1
 10
111.3119
 20
188.2862
  0
VERTEX
999
1,2
  8
1
 10
118.3052
 20
184.3202
  0
VERTEX
999
1,2
  8
1
 10
124.7821
 20
179.4984
  0
VERTEX
999
1,2
  8
1
 10
130.7274
 20
173.8550
  0
VERTEX
999
1,2
  8
1
 10
136.1260
 20
167.4238
  0
VERTEX
999
1,2
  8
1
 10
140.9626
 20
160.2390
  0
VERTEX
999
1,2
  8
1
 10
143.9939
 20
154.8772
  0
VERTEX
999
1,2
  8
1
 10
146.8005
 20
149.2335
  0
VERTEX
999
1,2
  8
1
 10
149.3741
 20
143.3380
  0
VERTEX
999
1,2
  8
1
 10
151.7063
 20
137.2209
  0
VERTEX
999
1,2
  8
1
 10
153.7883
 20
130.9124
  0
VERTEX
999
1,1,1,6
  8
1
 10
155.6117
 20
124.4424
 38
9.9999
 50
194.4978
  0
VERTEX
999
1,2
  8
1
 10
158.1580
 20
112.7895
  0
VERTEX
999
1,2
  8
1
 10
159.8358
 20
100.9017
  0
VERTEX
999
1,2
  8
1
 10
160.6106
 20
88.9426
  0
VERTEX
999
1,2
  8
1
 10
160.4473
 20
77.0759
  0
VERTEX
999
1,2
  8
1
 10
159.3109
 20
65.4652
  0
VERTEX
999
1,2
  8
1
 10
157.1666
 20
54.2742
  0
VERTEX
999
1,2
  8
1
 10
153.9795
 20
43.6663
  0
VERTEX
999
1,1,1,7
  8
1
 10
149.7147
 20
33.8053
 38
10.0000
 50
152.9570
  0
VERTEX
999
1,2
  8
1
 10
145.9305
 20
26.6963
  0
VERTEX
999
1,2
  8
1
 10
141.8700
 20
19.6693
  0
VERTEX
999
1,2
  8
1
 10
137.5425
 20
12.7666
  0
VERTEX
999
1,2
  8
1
 10
132.9576
 20
6.0305
  0
VERTEX
999
1,1,1,8
  8
1
 10
132.5386
 20
5.4399
 38
10.0000
 50
138.7373
  0
VERTEX
999
1,1,,9
  8
1
 10
127.9220
 20
0.1781
  0
VERTEX
999
1,2,1
  8
1
 10
122.6321
 20
4.8193
 38
10.0000
 50
48.7373
  0
VERTEX
999
1,2
  8
1
 10
120.1594
 20
6.9893
  0
VERTEX
999
1,2
  8
1
 10
114.7006
 20
12.2261
  0
VERTEX
999
1,2
  8
1
 10
109.4519
 20
18.0946
  0
VERTEX
999
1,2
  8
1
 10
104.4581
 20
24.4374
  0
VERTEX
999
1,2
  8
1
 10
99.7642
 20
31.0970
  0
VERTEX
999
1,2
  8
1
 10
95.4144
 20
37.9160
  0
VERTEX
999
1,2
  8
1
 10
91.4540
 20
44.7371
  0
VERTEX
999
1,1,,10
  8
1
 10
84.1350
 20
59.4163
  0
VERTEX
999
1,2
  8
1
 10
79.6267
 20
50.7081
  0
VERTEX
999
1,2
  8
1
 10
74.4167
 20
41.3746
  0
VERTEX
999
1,2
  8
1
 10
68.6744
 20
31.8915
  0
VERTEX
999
1,2
  8
1
 10
62.5688
 20
22.7346
  0
VERTEX
999
1,2
  8
1
 10
56.2692
 20
14.3793
  0
VERTEX
999
1,2
  8
1
 10
49.9446
 20
7.3014
  0
VERTEX
999
1,2,1
  8
1
 10
47.6183
 20
4.9752
 38
10.0000
 50
134.9998
  0
VERTEX
999
1,1,,11
  8
1
 10
42.6427
 20
0.0000
  0
VERTEX
999
1,1,,12
  8
1
 10
37.6926
 20
4.9501
  0
SEQEND
  0
POLYLINE
999
2
  8
1
 66
1
 70
0
  0
VERTEX
999
2,1,,13
  8
1
 10
42.6686
 20
9.9249
  0
VERTEX
999
2,2
  8
1
 10
36.3258
 20
15.3080
  0
VERTEX
999
2,2
  8
1
 10
30.2755
 20
20.9316
  0
VERTEX
999
2,2
  8
1
 10
24.5658
 20
26.7819
  0
VERTEX
999
2,1,,14
  8
1
 10
19.2448
 20
32.8453
  0
VERTEX
999
2,2
  8
1
 10
15.6427
 20
37.6697
  0
VERTEX
999
2,2
  8
1
 10
12.5829
 20
42.8649
  0
VERTEX
999
2,2
  8
1
 10
10.1268
 20
48.4594
  0
VERTEX
999
2,2
  8
1
 10
8.3363
 20
54.4813
  0
VERTEX
999
2,2
  8
1
 10
7.2731
 20
60.9593
  0
VERTEX
999
2,2
  8
1
 10
6.9987
 20
67.9215
  0
VERTEX
999
2,2
  8
1
 10
7.5278
 20
77.5955
  0
VERTEX
999
2,2
  8
1
 10
8.7526
 20
87.8181
  0
VERTEX
999
2,2
  8
1
 10
10.6747
 20
98.4125
  0
VERTEX
999
2,2
  8
1
 10
13.2961
 20
109.2020
  0
VERTEX
999
2,2
  8
1
 10
16.6190
 20
120.0101
  0
VERTEX
999
2,1,,15
  8
1
 10
20.6451
 20
130.6598
  0
VERTEX
999
2,2
  8
1
 10
23.7258
 20
137.5948
  0
VERTEX
999
2,2
  8
1
 10
27.1215
 20
144.3276
  0
VERTEX
999
2,2
  8
1
 10
30.8328
 20
150.8057
  0
VERTEX
999
2,2
  8
1
 10
34.8602
 20
156.9763
  0
VERTEX
999
2,2
  8
1
 10
39.2043
 20
162.7870
  0
VERTEX
999
2,2
  8
1
 10
43.8658
 20
168.1852
  0
VERTEX
999
2,2
  8
1
 10
51.3510
 20
175.0467
  0
VERTEX
999
2,2
  8
1
 10
59.8462
 20
180.7921
  0
VERTEX
999
2,2
  8
1
 10
68.9551
 20
185.2142
  0
VERTEX
999
2,2
  8
1
 10
78.2806
 20
188.1063
  0
VERTEX
999
2,2
  8
1
 10
87.4261
 20
189.2614
  0
VERTEX
999
2,1,,16
  8
1
 10
95.9948
 20
188.4723
  0
VERTEX
999
2,1,,17
  8
1
 10
95.5348
 20
186.4215
  0
VERTEX
999
2,2
  8
1
 10
103.6190
 20
183.9916
  0
VERTEX
999
2,2
  8
1
 10
111.1205
 20
180.4799
  0
VERTEX
999
2,2
  8
1
 10
118.0226
 20
175.9368
  0
VERTEX
999
2,2
  8
1
 10
124.3088
 20
170.4130
  0
VERTEX
999
2,2
  8
1
 10
129.9626
 20
163.9590
  0
VERTEX
999
2,2
  8
1
 10
134.9674
 20
156.6256
  0
VERTEX
999
2,2
  8
1
 10
137.8390
 20
151.5430
  0
VERTEX
999
2,2
  8
1
 10
140.4960
 20
146.1925
  0
VERTEX
999
2,2
  8
1
 10
142.9312
 20
140.6030
  0
VERTEX
999
2,2
  8
1
 10
145.1375
 20
134.8035
  0
VERTEX
999
2,2
  8
1
 10
147.1075
 20
128.8229
  0
VERTEX
999
2,1,,18
  8
1
 10
148.8346
 20
122.6901
  0
VERTEX
999
2,2
  8
1
 10
151.2512
 20
111.6728
  0
VERTEX
999
2,2
  8
1
 10
152.8625
 20
100.4324
  0
VERTEX
999
2,2
  8
1
 10
153.6304
 20
89.1241
  0
VERTEX
999
2,2
  8
1
 10
153.5164
 20
77.9028
  0
VERTEX
999
2,2
  8
1
 10
152.4825
 20
66.9235
  0
VERTEX
999
2,2
  8
1
 10
150.4906
 20
56.3413
  0
VERTEX
999
2,2
  8
1
 10
147.5026
 20
46.3111
  0
VERTEX
999
2,1,,19
  8
1
 10
143.4801
 20
36.9879
  0
VERTEX
999
2,2
  8
1
 10
139.8146
 20
30.1012
  0
VERTEX
999
2,2
  8
1
 10
135.8815
 20
23.2938
  0
VERTEX
999
2,2
  8
1
 10
131.6898
 20
16.6067
  0
VERTEX
999
2,1,,20
  8
1
 10
127.2487
 20
10.0812
  0
VERTEX
999
2,2
  8
1
 10
124.7760
 20
12.2511
  0
VERTEX
999
2,2
  8
1
 10
117.0831
 20
19.9501
  0
VERTEX
999
2,2
  8
1
 10
109.8969
 20
28.8376
  0
VERTEX
999
2,2
  8
1
 10
103.3506
 20
38.4017
  0
VERTEX
999
2,2
  8
1
 10
97.5775
 20
48.1304
  0
VERTEX
999
2,2
  8
1
 10
92.7112
 20
57.5118
  0
VERTEX
999
2,2
  8
1
 10
88.8848
 20
66.0338
  0
VERTEX
999
2,2
  8
1
 10
86.2317
 20
73.1844
  0
VERTEX
999
2,1,,21
  8
1
 10
84.8854
 20
78.4518
  0
VERTEX
999
2,2
  8
1
 10
83.0848
 20
73.6702
  0
VERTEX
999
2,2
  8
1
 10
79.9430
 20
66.6794
  0
VERTEX
999
2,2
  8
1
 10
75.6753
 20
58.0847
  0
VERTEX
999
2,2
  8
1
 10
70.4973
 20
48.4919
  0
VERTEX
999
2,2
  8
1
 10
64.6248
 20
38.5065
  0
VERTEX
999
2,2
  8
1
 10
58.2731
 20
28.7342
  0
VERTEX
999
2,2
  8
1
 10
51.6578
 20
19.7805
  0
VERTEX
999
2,2
  8
1
 10
44.9948
 20
12.2511
  0
VERTEX
999
2,1,,22
  8
1
 10
42.6686
 20
9.9249
  0
SEQEND
  0
LINE
999
5,1,,23
  8
1
 10
19.2448
 20
32.8453
 11
26.9436
 21
39.2272
  0
LINE
999
5,1,,25
  8
1
 10
20.6451
 20
130.6598
 11
29.8763
 21
126.8148
  0
LINE
999
5,1,,27
  8
1
 10
143.4801
 20
36.9879
 11
134.5735
 21
41.5345
  0
LINE
999
5,1,,29
  8
1
 10
148.8346
 20
122.6901
 11
139.1531
 21
120.1866
  0
LINE
999
3,1,,31
  8
1
 10
84.8854
 20
57.7465
 11
84.8854
 21
196.1298
  0
LINE
999
5,1,,31
  8
1
 10
127.2487
 20
10.0812
 11
119.6510
 21
37.6578
  0
LINE
999
5,1,,33
  8
1
 10
20.2906
 20
32.7379
 11
38.1412
 21
38.3785
  0
LINE
999
5,1,,35
  8
1
 10
38.1412
 20
38.3785
 11
42.6686
 21
9.9249
  0
LINE
999
5,1,,37
  8
1
 10
119.6510
 20
37.6578
 11
142.8805
 21
36.6188
  0
POLYLINE
999
5
  8
1
 66
1
 70
0
  0
VERTEX
999
5,1,,39
  8
1
 10
53.6852
 20
58.1617
  0
VERTEX
999
5,2
  8
1
 10
52.7898
 20
57.9811
  0
VERTEX
999
5,2
  8
1
 10
52.0588
 20
57.4882
  0
VERTEX
999
5,2
  8
1
 10
51.5660
 20
56.7568
  0
VERTEX
999
5,1,,40
  8
1
 10
51.3854
 20
55.8610
  0
SEQEND
  0
POLYLINE
999
5
  8
1
 66
1
 70
0
  0
VERTEX
999
5,1,,41
  8
1
 10
71.2252
 20
148.8219
  0
VERTEX
999
5,2
  8
1
 10
70.3496
 20
148.6450
  0
VERTEX
999
5,2
  8
1
 10
69.6344
 20
148.1627
  0
VERTEX
999
5,2
  8
1
 10
69.1521
 20
147.4475
  0
VERTEX
999
5,1,,42
  8
1
 10
68.9752
 20
146.5719
  0
SEQEND
  0
POLYLINE
999
5
  8
1
 66
1
 70
0
  0
VERTEX
999
5,1,,43
  8
1
 10
68.9752
 20
146.5719
  0
VERTEX
999
5,2
  8
1
 10
69.1521
 20
145.6963
  0
VERTEX
999
5,2
  8
1
 10
69.6344
 20
144.9811
  0
VERTEX
999
5,2
  8
1
 10
70.3496
 20
144.4988
  0
VERTEX
999
5,1,,44
  8
1
 10
71.2252
 20
144.3219
  0
SEQEND
  0
POLYLINE
999
5
  8
1
 66
1
 70
0
  0
VERTEX
999
5,1,,45
  8
1
 10
71.2252
 20
144.3219
  0
VERTEX
999
5,2
  8
1
 10
72.1008
 20
144.4988
  0
VERTEX
999
5,2
  8
1
 10
72.8160
 20
144.9811
  0
VERTEX
999
5,2
  8
1
 10
73.2983
 20
145.6963
  0
VERTEX
999
5,1,,46
  8
1
 10
73.4752
 20
146.5719
  0
SEQEND
  0
POLYLINE
999
5
  8
1
 66
1
 70
0
  0
VERTEX
999
5,1,,47
  8
1
 10
73.4752
 20
146.5719
  0
VERTEX
999
5,2
  8
1
 10
73.2983
 20
147.4475
  0
VERTEX
999
5,2
  8
1
 10
72.8160
 20
148.1627
  0
VERTEX
999
5,2
  8
1
 10
72.1008
 20
148.6450
  0
VERTEX
999
5,1,,48
  8
1
 10
71.2252
 20
148.8219
  0
SEQEND
  0
POLYLINE
999
5
  8
1
 66
1
 70
0
  0
VERTEX
999
5,1,,49
  8
1
 10
51.3854
 20
55.8610
  0
VERTEX
999
5,2
  8
1
 10
51.5660
 20
54.9662
  0
VERTEX
999
5,2
  8
1
 10
52.0588
 20
54.2355
  0
VERTEX
999
5,2
  8
1
 10
52.7898
 20
53.7428
  0
VERTEX
999
5,1,,50
  8
1
 10
53.6852
 20
53.5621
  0
SEQEND
  0
POLYLINE
999
5
  8
1
 66
1
 70
0
  0
VERTEX
999
5,1,,51
  8
1
 10
53.6852
 20
53.5621
  0
VERTEX
999
5,2
  8
1
 10
54.5806
 20
53.7428
  0
VERTEX
999
5,2
  8
1
 10
55.3115
 20
54.2355
  0
VERTEX
999
5,2
  8
1
 10
55.8043
 20
54.9662
  0
VERTEX
999
5,1,,52
  8
1
 10
55.9850
 20
55.8610
  0
SEQEND
  0
POLYLINE
999
5
  8
1
 66
1
 70
0
  0
VERTEX
999
5,1,,53
  8
1
 10
55.9850
 20
55.8610
  0
VERTEX
999
5,2
  8
1
 10
55.8043
 20
56.7568
  0
VERTEX
999
5,2
  8
1
 10
55.3115
 20
57.4882
  0
VERTEX
999
5,2
  8
1
 10
54.5806
 20
57.9811
  0
VERTEX
999
5,1,,54
  8
1
 10
53.6852
 20
58.1617
  0
SEQEND
  0
ENDBLK
  0
BLOCK
  8
1
  2
P0015_05
 70
64
 10
0.0000
 20
0.0000
  0
TEXT
  8
1
 10
75.8832
 20
114.5676
 40
5.0000
 50
0.0000
  1
PIECE: 左体
  7
STANDARD
  0
TEXT
  8
1
 10
75.8832
 20
108.8176
 40
5.0000
 50
0.0000
  1
SIZE: Free
  7
STANDARD
  0
TEXT
  8
1
 10
75.8832
 20
103.0676
 40
5.0000
 50
0.0000
  1
FABRIC: 表 地
  7
STANDARD
  0
TEXT
  8
1
 10
75.8832
 20
97.3176
 40
5.0000
 50
0.0000
  1
QUANTITY: 1
  7
STANDARD
  0
TEXT
  8
1
 10
90.8832
 20
111.5676
 40
3.0000
 50
0.0000
  1
COMMENT: テディベア
  7
STANDARD
  0
TEXT
  8
1
 10
90.8832
 20
108.5676
 40
3.0000
 50
0.0000
  1
COMMENT: 左体
  7
STANDARD
  0
TEXT
  8
1
 10
90.8832
 20
105.5676
 40
3.0000
 50
0.0000
  1
COMMENT: Free
  7
STANDARD
  0
TEXT
  8
1
 10
90.8832
 20
102.5676
 40
3.0000
 50
0.0000
  1
COMMENT: 表 地 x 1
  7
STANDARD
  0
TEXT
  8
1
 10
47.7797
 20
173.7278
 40
5.0000
 50
0.0000
  1
COMMENT: ジョイント
  7
STANDARD
  0
TEXT
  8
1
 10
144.8607
 20
89.9182
 40
5.0000
 50
0.0000
  1
COMMENT: 背
  7
STANDARD
  0
TEXT
  8
1
 10
86.9019
 20
149.0042
 40
5.0000
 50
0.0000
  1
COMMENT: 腕
  7
STANDARD
  0
TEXT
  8
1
 10
32.5023
 20
38.1995
 40
5.0000
 50
0.0000
  1
COMMENT: 綿詰め口
  7
STANDARD
  0
TEXT
  8
1
 10
107.0306
 20
39.9788
 40
5.0000
 50
0.0000
  1
COMMENT: 綿詰め口
  7
STANDARD
  0
TEXT
  8
1
 10
7.3412
 20
84.4377
 40
5.0000
 50
0.0000
  1
COMMENT: 腹
  7
STANDARD
  0
TEXT
  8
1
 10
104.5013
 20
58.6545
 40
5.0000
 50
0.0000
  1
COMMENT: 足
  7
STANDARD
  0
POLYLINE
999
1
  8
1
 66
1
 70
0
  0
VERTEX
999
1,1,1,1
  8
1
 10
28.1235
 20
5.4401
 38
10.0000
 50
41.2627
  0
VERTEX
999
1,2
  8
1
 10
27.7046
 20
6.0305
  0
VERTEX
999
1,2
  8
1
 10
23.1198
 20
12.7664
  0
VERTEX
999
1,2
  8
1
 10
18.7922
 20
19.6692
  0
VERTEX
999
1,2
  8
1
 10
14.7317
 20
26.6962
  0
VERTEX
999
1,1,1,2
  8
1
 10
10.9473
 20
33.8051
 38
10.0000
 50
27.0421
  0
VERTEX
999
1,2
  8
1
 10
6.6826
 20
43.6662
  0
VERTEX
999
1,2
  8
1
 10
3.4955
 20
54.2744
  0
VERTEX
999
1,2
  8
1
 10
1.3512
 20
65.4656
  0
VERTEX
999
1,2
  8
1
 10
0.2148
 20
77.0764
  0
VERTEX
999
1,2
  8
1
 10
0.0515
 20
88.9430
  0
VERTEX
999
1,2
  8
1
 10
0.8263
 20
100.9019
  0
VERTEX
999
1,2
  8
1
 10
2.5042
 20
112.7895
  0
VERTEX
999
1,1,1,3
  8
1
 10
5.0504
 20
124.4422
 38
10.0000
 50
345.5015
  0
VERTEX
999
1,2
  8
1
 10
6.8739
 20
130.9120
  0
VERTEX
999
1,2
  8
1
 10
8.9559
 20
137.2205
  0
VERTEX
999
1,2
  8
1
 10
11.2880
 20
143.3375
  0
VERTEX
999
1,2
  8
1
 10
13.8617
 20
149.2329
  0
VERTEX
999
1,2
  8
1
 10
16.6682
 20
154.8766
  0
VERTEX
999
1,2
  8
1
 10
19.6993
 20
160.2385
  0
VERTEX
999
1,2
  8
1
 10
24.5359
 20
167.4234
  0
VERTEX
999
1,2
  8
1
 10
29.9343
 20
173.8546
  0
VERTEX
999
1,2
  8
1
 10
35.8798
 20
179.4981
  0
VERTEX
999
1,2
  8
1
 10
42.3568
 20
184.3199
  0
VERTEX
999
1,2
  8
1
 10
49.3503
 20
188.2859
  0
VERTEX
999
1,1,,4
  8
1
 10
56.8452
 20
191.3621
  0
VERTEX
999
1,1,,5
  8
1
 10
56.3058
 20
193.7674
  0
VERTEX
999
1,2
  8
1
 10
63.1326
 20
195.3016
  0
VERTEX
999
1,2
  8
1
 10
67.9567
 20
196.0637
  0
VERTEX
999
1,2
  8
1
 10
73.0061
 20
196.2551
  0
VERTEX
999
1,2
  8
1
 10
78.2228
 20
195.8959
  0
VERTEX
999
1,2
  8
1
 10
83.5483
 20
195.0068
  0
VERTEX
999
1,2
  8
1
 10
88.9247
 20
193.6080
  0
VERTEX
999
1,2
  8
1
 10
94.2936
 20
191.7200
  0
VERTEX
999
1,2
  8
1
 10
99.3661
 20
189.4808
  0
VERTEX
999
1,2
  8
1
 10
104.3236
 20
186.8477
  0
VERTEX
999
1,2
  8
1
 10
109.1118
 20
183.8499
  0
VERTEX
999
1,2
  8
1
 10
113.6766
 20
180.5162
  0
VERTEX
999
1,2
  8
1
 10
117.9635
 20
176.8755
  0
VERTEX
999
1,2
  8
1
 10
121.9183
 20
172.9570
  0
VERTEX
999
1,2
  8
1
 10
126.8440
 20
167.2577
  0
VERTEX
999
1,2
  8
1
 10
131.4387
 20
161.1254
  0
VERTEX
999
1,2
  8
1
 10
135.7012
 20
154.6144
  0
VERTEX
999
1,2
  8
1
 10
139.6296
 20
147.7788
  0
VERTEX
999
1,2
  8
1
 10
143.2227
 20
140.6729
  0
VERTEX
999
1,1,1,6
  8
1
 10
146.4789
 20
133.3511
 38
10.0000
 50
202.6140
  0
VERTEX
999
1,2
  8
1
 10
150.6674
 20
122.2683
  0
VERTEX
999
1,2
  8
1
 10
154.1219
 20
111.0204
  0
VERTEX
999
1,2
  8
1
 10
156.8457
 20
99.7913
  0
VERTEX
999
1,2
  8
1
 10
158.8416
 20
88.7652
  0
VERTEX
999
1,2
  8
1
 10
160.1127
 20
78.1263
  0
VERTEX
999
1,2
  8
1
 10
160.6621
 20
68.0586
  0
VERTEX
999
1,2
  8
1
 10
160.3516
 20
60.1824
  0
VERTEX
999
1,2
  8
1
 10
159.1484
 20
52.8541
  0
VERTEX
999
1,2
  8
1
 10
157.1224
 20
46.0416
  0
VERTEX
999
1,2
  8
1
 10
154.3435
 20
39.7130
  0
VERTEX
999
1,2
  8
1
 10
150.8816
 20
33.8361
  0
VERTEX
999
1,1,1,7
  8
1
 10
146.8065
 20
28.3787
 38
10.0000
 50
140.3435
  0
VERTEX
999
1,2
  8
1
 10
143.2366
 20
24.2300
  0
VERTEX
999
1,2
  8
1
 10
139.4872
 20
20.1732
  0
VERTEX
999
1,2
  8
1
 10
135.5721
 20
16.2124
  0
VERTEX
999
1,2
  8
1
 10
131.5051
 20
12.3521
  0
VERTEX
999
1,2
  8
1
 10
127.2996
 20
8.5966
  0
VERTEX
999
1,1,1,8
  8
1
 10
122.9692
 20
4.9501
 38
10.0000
 50
135.0040
  0
VERTEX
999
1,1,,9
  8
1
 10
118.0192
 20
0.0000
  0
VERTEX
999
1,2,1
  8
1
 10
113.0438
 20
4.9753
 38
10.0000
 50
45.0002
  0
VERTEX
999
1,2
  8
1
 10
110.7177
 20
7.3015
  0
VERTEX
999
1,2
  8
1
 10
104.3931
 20
14.3793
  0
VERTEX
999
1,2
  8
1
 10
98.0934
 20
22.7344
  0
VERTEX
999
1,2
  8
1
 10
91.9878
 20
31.8913
  0
VERTEX
999
1,2
  8
1
 10
86.2454
 20
41.3743
  0
VERTEX
999
1,2
  8
1
 10
81.0354
 20
50.7077
  0
VERTEX
999
1,1,,10
  8
1
 10
76.5271
 20
59.4160
  0
VERTEX
999
1,2
  8
1
 10
69.2074
 20
44.7377
  0
VERTEX
999
1,2
  8
1
 10
65.2469
 20
37.9169
  0
VERTEX
999
1,2
  8
1
 10
60.8973
 20
31.0981
  0
VERTEX
999
1,2
  8
1
 10
56.2034
 20
24.4387
  0
VERTEX
999
1,2
  8
1
 10
51.2100
 20
18.0959
  0
VERTEX
999
1,2
  8
1
 10
45.9617
 20
12.2271
  0
VERTEX
999
1,2
  8
1
 10
40.5033
 20
6.9899
  0
VERTEX
999
1,2,1
  8
1
 10
38.0300
 20
4.8195
 38
10.0000
 50
131.2627
  0
VERTEX
999
1,1,,11
  8
1
 10
32.7399
 20
0.1786
  0
VERTEX
999
1,1,,12
  8
1
 10
28.1235
 20
5.4401
  0
SEQEND
  0
POLYLINE
999
2
  8
1
 66
1
 70
0
  0
VERTEX
999
2,1,,13
  8
1
 10
33.4135
 20
10.0813
  0
VERTEX
999
2,2
  8
1
 10
28.9723
 20
16.6067
  0
VERTEX
999
2,2
  8
1
 10
24.7806
 20
23.2938
  0
VERTEX
999
2,2
  8
1
 10
20.8475
 20
30.1013
  0
VERTEX
999
2,1,,14
  8
1
 10
17.1820
 20
36.9875
  0
VERTEX
999
2,2
  8
1
 10
13.1595
 20
46.3110
  0
VERTEX
999
2,2
  8
1
 10
10.1715
 20
56.3415
  0
VERTEX
999
2,2
  8
1
 10
8.1796
 20
66.9239
  0
VERTEX
999
2,2
  8
1
 10
7.1458
 20
77.9032
  0
VERTEX
999
2,2
  8
1
 10
7.0317
 20
89.1245
  0
VERTEX
999
2,2
  8
1
 10
7.7996
 20
100.4326
  0
VERTEX
999
2,2
  8
1
 10
9.4109
 20
111.6727
  0
VERTEX
999
2,1,,15
  8
1
 10
11.8275
 20
122.6897
  0
VERTEX
999
2,2
  8
1
 10
13.5546
 20
128.8225
  0
VERTEX
999
2,2
  8
1
 10
15.5247
 20
134.8031
  0
VERTEX
999
2,2
  8
1
 10
17.7310
 20
140.6027
  0
VERTEX
999
2,2
  8
1
 10
20.1661
 20
146.1921
  0
VERTEX
999
2,2
  8
1
 10
22.8231
 20
151.5427
  0
VERTEX
999
2,2
  8
1
 10
25.6947
 20
156.6252
  0
VERTEX
999
2,2
  8
1
 10
30.6995
 20
163.9587
  0
VERTEX
999
2,2
  8
1
 10
36.3533
 20
170.4126
  0
VERTEX
999
2,2
  8
1
 10
42.6395
 20
175.9364
  0
VERTEX
999
2,2
  8
1
 10
49.5416
 20
180.4795
  0
VERTEX
999
2,2
  8
1
 10
57.0431
 20
183.9913
  0
VERTEX
999
2,1,,16
  8
1
 10
65.1273
 20
186.4211
  0
VERTEX
999
2,1,,17
  8
1
 10
64.6674
 20
188.4719
  0
VERTEX
999
2,2
  8
1
 10
73.2360
 20
189.2618
  0
VERTEX
999
2,2
  8
1
 10
82.3815
 20
188.1073
  0
VERTEX
999
2,2
  8
1
 10
91.7070
 20
185.2155
  0
VERTEX
999
2,2
  8
1
 10
100.8159
 20
180.7933
  0
VERTEX
999
2,2
  8
1
 10
109.3112
 20
175.0477
  0
VERTEX
999
2,2
  8
1
 10
116.7963
 20
168.1858
  0
VERTEX
999
2,2
  8
1
 10
121.4578
 20
162.7872
  0
VERTEX
999
2,2
  8
1
 10
125.8019
 20
156.9763
  0
VERTEX
999
2,2
  8
1
 10
129.8293
 20
150.8054
  0
VERTEX
999
2,2
  8
1
 10
133.5406
 20
144.3273
  0
VERTEX
999
2,2
  8
1
 10
136.9363
 20
137.5944
  0
VERTEX
999
2,1,,18
  8
1
 10
140.0170
 20
130.6594
  0
VERTEX
999
2,2
  8
1
 10
144.0431
 20
120.0101
  0
VERTEX
999
2,2
  8
1
 10
147.3660
 20
109.2023
  0
VERTEX
999
2,2
  8
1
 10
149.9874
 20
98.4130
  0
VERTEX
999
2,2
  8
1
 10
151.9095
 20
87.8187
  0
VERTEX
999
2,2
  8
1
 10
153.1343
 20
77.5961
  0
VERTEX
999
2,2
  8
1
 10
153.6635
 20
67.9221
  0
VERTEX
999
2,2
  8
1
 10
153.3890
 20
60.9598
  0
VERTEX
999
2,2
  8
1
 10
152.3258
 20
54.4818
  0
VERTEX
999
2,2
  8
1
 10
150.5353
 20
48.4596
  0
VERTEX
999
2,2
  8
1
 10
148.0792
 20
42.8651
  0
VERTEX
999
2,2
  8
1
 10
145.0194
 20
37.6700
  0
VERTEX
999
2,1,,19
  8
1
 10
141.4174
 20
32.8459
  0
VERTEX
999
2,2
  8
1
 10
136.0963
 20
26.7823
  0
VERTEX
999
2,2
  8
1
 10
130.3866
 20
20.9318
  0
VERTEX
999
2,2
  8
1
 10
124.3363
 20
15.3080
  0
VERTEX
999
2,1,,20
  8
1
 10
117.9935
 20
9.9250
  0
VERTEX
999
2,2
  8
1
 10
115.6674
 20
12.2512
  0
VERTEX
999
2,2
  8
1
 10
109.0043
 20
19.7805
  0
VERTEX
999
2,2
  8
1
 10
102.3890
 20
28.7340
  0
VERTEX
999
2,2
  8
1
 10
96.0374
 20
38.5063
  0
VERTEX
999
2,2
  8
1
 10
90.1648
 20
48.4916
  0
VERTEX
999
2,2
  8
1
 10
84.9868
 20
58.0844
  0
VERTEX
999
2,2
  8
1
 10
80.7191
 20
66.6790
  0
VERTEX
999
2,2
  8
1
 10
77.5773
 20
73.6699
  0
VERTEX
999
2,1,,21
  8
1
 10
75.7767
 20
78.4514
  0
VERTEX
999
2,2
  8
1
 10
74.4304
 20
73.1841
  0
VERTEX
999
2,2
  8
1
 10
71.7773
 20
66.0336
  0
VERTEX
999
2,2
  8
1
 10
67.9509
 20
57.5117
  0
VERTEX
999
2,2
  8
1
 10
63.0846
 20
48.1305
  0
VERTEX
999
2,2
  8
1
 10
57.3115
 20
38.4019
  0
VERTEX
999
2,2
  8
1
 10
50.7653
 20
28.8378
  0
VERTEX
999
2,2
  8
1
 10
43.5790
 20
19.9503
  0
VERTEX
999
2,2
  8
1
 10
35.8861
 20
12.2512
  0
VERTEX
999
2,1,,22
  8
1
 10
33.4135
 20
10.0813
  0
SEQEND
  0
LINE
999
5,1,,23
  8
1
 10
17.1820
 20
36.9875
 11
26.0887
 21
41.5340
  0
LINE
999
5,1,,25
  8
1
 10
11.8275
 20
122.6897
 11
21.5090
 21
120.1862
  0
LINE
999
5,1,,27
  8
1
 10
140.0170
 20
130.6594
 11
130.7858
 21
126.8142
  0
LINE
999
5,1,,29
  8
1
 10
141.4174
 20
32.8459
 11
133.7185
 21
39.2278
  0
LINE
999
3,1,,31
  8
1
 10
75.7767
 20
57.7466
 11
75.7767
 21
196.1303
  0
LINE
999
5,1,,31
  8
1
 10
33.4135
 20
10.0813
 11
41.0111
 21
37.6584
  0
LINE
999
5,1,,33
  8
1
 10
140.3715
 20
32.7385
 11
122.5209
 21
38.3792
  0
LINE
999
5,1,,35
  8
1
 10
122.5209
 20
38.3792
 11
117.9935
 21
9.9250
  0
LINE
999
5,1,,37
  8
1
 10
41.0111
 20
37.6584
 11
17.7816
 21
36.6194
  0
POLYLINE
999
5
  8
1
 66
1
 70
0
  0
VERTEX
999
5,1,,39
  8
1
 10
106.9769
 20
58.1614
  0
VERTEX
999
5,2
  8
1
 10
107.8723
 20
57.9807
  0
VERTEX
999
5,2
  8
1
 10
108.6033
 20
57.4879
  0
VERTEX
999
5,2
  8
1
 10
109.0961
 20
56.7569
  0
VERTEX
999
5,1,,40
  8
1
 10
109.2767
 20
55.8616
  0
SEQEND
  0
POLYLINE
999
5
  8
1
 66
1
 70
0
  0
VERTEX
999
5,1,,41
  8
1
 10
109.2767
 20
55.8616
  0
VERTEX
999
5,2
  8
1
 10
109.0961
 20
54.9662
  0
VERTEX
999
5,2
  8
1
 10
108.6033
 20
54.2352
  0
VERTEX
999
5,2
  8
1
 10
107.8723
 20
53.7424
  0
VERTEX
999
5,1,,42
  8
1
 10
106.9769
 20
53.5618
  0
SEQEND
  0
POLYLINE
999
5
  8
1
 66
1
 70
0
  0
VERTEX
999
5,1,,43
  8
1
 10
89.4369
 20
148.8215
  0
VERTEX
999
5,2
  8
1
 10
90.3125
 20
148.6447
  0
VERTEX
999
5,2
  8
1
 10
91.0277
 20
148.1624
  0
VERTEX
999
5,2
  8
1
 10
91.5100
 20
147.4471
  0
VERTEX
999
5,1,,44
  8
1
 10
91.6869
 20
146.5715
  0
SEQEND
  0
POLYLINE
999
5
  8
1
 66
1
 70
0
  0
VERTEX
999
5,1,,45
  8
1
 10
91.6869
 20
146.5715
  0
VERTEX
999
5,2
  8
1
 10
91.5100
 20
145.6959
  0
VERTEX
999
5,2
  8
1
 10
91.0277
 20
144.9807
  0
VERTEX
999
5,2
  8
1
 10
90.3125
 20
144.4984
  0
VERTEX
999
5,1,,46
  8
1
 10
89.4369
 20
144.3215
  0
SEQEND
  0
POLYLINE
999
5
  8
1
 66
1
 70
0
  0
VERTEX
999
5,1,,47
  8
1
 10
89.4369
 20
144.3215
  0
VERTEX
999
5,2
  8
1
 10
88.5613
 20
144.4984
  0
VERTEX
999
5,2
  8
1
 10
87.8461
 20
144.9807
  0
VERTEX
999
5,2
  8
1
 10
87.3638
 20
145.6959
  0
VERTEX
999
5,1,,48
  8
1
 10
87.1869
 20
146.5715
  0
SEQEND
  0
POLYLINE
999
5
  8
1
 66
1
 70
0
  0
VERTEX
999
5,1,,49
  8
1
 10
87.1869
 20
146.5715
  0
VERTEX
999
5,2
  8
1
 10
87.3638
 20
147.4471
  0
VERTEX
999
5,2
  8
1
 10
87.8461
 20
148.1624
  0
VERTEX
999
5,2
  8
1
 10
88.5613
 20
148.6447
  0
VERTEX
999
5,1,,50
  8
1
 10
89.4369
 20
148.8215
  0
SEQEND
  0
POLYLINE
999
5
  8
1
 66
1
 70
0
  0
VERTEX
999
5,1,,51
  8
1
 10
106.9769
 20
53.5618
  0
VERTEX
999
5,2
  8
1
 10
106.0815
 20
53.7424
  0
VERTEX
999
5,2
  8
1
 10
105.3506
 20
54.2352
  0
VERTEX
999
5,2
  8
1
 10
104.8578
 20
54.9662
  0
VERTEX
999
5,1,,52
  8
1
 10
104.6771
 20
55.8616
  0
SEQEND
  0
POLYLINE
999
5
  8
1
 66
1
 70
0
  0
VERTEX
999
5,1,,53
  8
1
 10
104.6771
 20
55.8616
  0
VERTEX
999
5,2
  8
1
 10
104.8578
 20
56.7569
  0
VERTEX
999
5,2
  8
1
 10
105.3506
 20
57.4879
  0
VERTEX
999
5,2
  8
1
 10
106.0815
 20
57.9807
  0
VERTEX
999
5,1,,54
  8
1
 10
106.9769
 20
58.1614
  0
SEQEND
  0
ENDBLK
  0
BLOCK
  8
1
  2
P0016_05
 70
64
 10
0.0000
 20
0.0000
  0
TEXT
  8
1
 10
56.8223
 20
33.9697
 40
5.0000
 50
0.0000
  1
PIECE: 右足
  7
STANDARD
  0
TEXT
  8
1
 10
56.8223
 20
28.2197
 40
5.0000
 50
0.0000
  1
SIZE: Free
  7
STANDARD
  0
TEXT
  8
1
 10
56.8223
 20
22.4697
 40
5.0000
 50
0.0000
  1
FABRIC: 表 地
  7
STANDARD
  0
TEXT
  8
1
 10
56.8223
 20
16.7197
 40
5.0000
 50
0.0000
  1
QUANTITY: 1
  7
STANDARD
  0
TEXT
  8
1
 10
71.8223
 20
30.9697
 40
3.0000
 50
0.0000
  1
COMMENT: テディベア
  7
STANDARD
  0
TEXT
  8
1
 10
71.8223
 20
27.9697
 40
3.0000
 50
0.0000
  1
COMMENT: 右足
  7
STANDARD
  0
TEXT
  8
1
 10
71.8223
 20
24.9697
 40
3.0000
 50
0.0000
  1
COMMENT: Free
  7
STANDARD
  0
TEXT
  8
1
 10
71.8223
 20
21.9697
 40
3.0000
 50
0.0000
  1
COMMENT: 表 地 x 1
  7
STANDARD
  0
TEXT
  8
1
 10
7.9844
 20
10.3643
 40
5.0000
 50
0.0000
  1
COMMENT: つま先
  7
STANDARD
  0
TEXT
  8
1
 10
78.0225
 20
9.1025
 40
5.0000
 50
0.0000
  1
COMMENT: 踵
  7
STANDARD
  0
TEXT
  8
1
 10
143.2227
 20
10.6738
 40
5.0000
 50
0.0000
  1
COMMENT: つま先
  7
STANDARD
  0
TEXT
  8
1
 10
109.1211
 20
76.2813
 40
5.0000
 50
0.0000
  1
COMMENT: 綿詰め口
  7
STANDARD
  0
POLYLINE
999
1
  8
1
 66
1
 70
0
  0
VERTEX
999
1,1,1,1
  8
1
 10
146.5938
 20
39.5537
 38
10.0000
 50
212.1122
  0
VERTEX
999
1,2
  8
1
 10
149.1279
 20
37.5742
  0
VERTEX
999
1,2
  8
1
 10
151.8845
 20
35.4011
  0
VERTEX
999
1,2
  8
1
 10
154.8297
 20
32.9330
  0
VERTEX
999
1,2
  8
1
 10
157.7743
 20
30.1907
  0
VERTEX
999
1,2
  8
1
 10
160.5293
 20
27.1953
  0
VERTEX
999
1,2
  8
1
 10
163.7869
 20
22.3488
  0
VERTEX
999
1,2
  8
1
 10
165.9564
 20
17.1158
  0
VERTEX
999
1,2
  8
1
 10
166.9803
 20
11.8486
  0
VERTEX
999
1,2,1
  8
1
 10
166.8008
 20
6.8994
 38
10.0000
 50
170.2707
  0
VERTEX
999
1,1,,2
  8
1
 10
165.6191
 20
0.0000
  0
VERTEX
999
1,1,1,3
  8
1
 10
158.7197
 20
1.1816
 38
10.0000
 50
80.2813
  0
VERTEX
999
1,2
  8
1
 10
152.6509
 20
2.0504
  0
VERTEX
999
1,2
  8
1
 10
146.5562
 20
2.6123
  0
VERTEX
999
1,2
  8
1
 10
140.4392
 20
2.9127
  0
VERTEX
999
1,2
  8
1
 10
134.3040
 20
2.9968
  0
VERTEX
999
1,2
  8
1
 10
128.1541
 20
2.9095
  0
VERTEX
999
1,1,1,4
  8
1
 10
121.9928
 20
2.6963
 38
10.0000
 50
92.4193
  0
VERTEX
999
1,2
  8
1
 10
102.6903
 20
1.6851
  0
VERTEX
999
1,1,,5
  8
1
 10
83.4219
 20
1.0811
  0
VERTEX
999
1,2
  8
1
 10
64.1555
 20
1.6854
  0
VERTEX
999
1,1,1,6
  8
1
 10
44.8534
 20
2.6962
 38
10.0000
 50
87.5849
  0
VERTEX
999
1,2
  8
1
 10
38.6399
 20
2.9127
  0
VERTEX
999
1,2
  8
1
 10
32.4341
 20
3.0030
  0
VERTEX
999
1,2
  8
1
 10
26.2432
 20
2.9187
  0
VERTEX
999
1,2
  8
1
 10
20.0754
 20
2.6113
  0
VERTEX
999
1,2
  8
1
 10
13.9390
 20
2.0322
  0
VERTEX
999
1,1,1,7
  8
1
 10
7.8418
 20
1.1328
 38
10.0000
 50
97.3754
  0
VERTEX
999
1,1,,8
  8
1
 10
0.8994
 20
0.2344
  0
VERTEX
999
1,2,1
  8
1
 10
0.0000
 20
7.1826
 38
10.0000
 50
7.3761
  0
VERTEX
999
1,2
  8
1
 10
0.0322
 20
11.8827
  0
VERTEX
999
1,2
  8
1
 10
1.2310
 20
16.8324
  0
VERTEX
999
1,2
  8
1
 10
3.5151
 20
21.7050
  0
VERTEX
999
1,2
  8
1
 10
6.8037
 20
26.1738
  0
VERTEX
999
1,2
  8
1
 10
9.7954
 20
29.1821
  0
VERTEX
999
1,2
  8
1
 10
12.9424
 20
31.8989
  0
VERTEX
999
1,2
  8
1
 10
16.0696
 20
34.3257
  0
VERTEX
999
1,2
  8
1
 10
19.0020
 20
36.4639
  0
VERTEX
999
1,1,,9
  8
1
 10
22.1543
 20
38.7734
  0
VERTEX
999
1,2,1
  8
1
 10
22.2084
 20
39.3016
 38
10.0000
 50
325.6344
  0
VERTEX
999
1,2
  8
1
 10
22.3108
 20
40.3007
  0
VERTEX
999
1,2
  8
1
 10
22.3096
 20
41.9479
  0
VERTEX
999
1,2
  8
1
 10
22.2029
 20
43.8809
  0
VERTEX
999
1,2
  8
1
 10
22.0430
 20
46.2656
  0
VERTEX
999
1,1,1,10
  8
1
 10
21.4258
 20
59.0893
 38
10.0000
 50
1.6673
  0
VERTEX
999
1,2
  8
1
 10
21.3037
 20
75.5068
  0
VERTEX
999
1,2
  8
1
 10
21.7834
 20
84.5947
  0
VERTEX
999
1,2
  8
1
 10
22.9570
 20
92.6099
  0
VERTEX
999
1,2
  8
1
 10
24.7429
 20
99.6040
  0
VERTEX
999
1,1,1,11
  8
1
 10
27.0641
 20
105.6370
 38
9.9999
 50
335.1756
  0
VERTEX
999
1,2
  8
1
 10
30.6003
 20
111.9472
  0
VERTEX
999
1,2
  8
1
 10
34.7068
 20
117.0427
  0
VERTEX
999
1,2
  8
1
 10
39.2643
 20
121.0063
  0
VERTEX
999
1,2
  8
1
 10
44.1581
 20
123.9290
  0
VERTEX
999
1,2
  8
1
 10
49.2736
 20
125.9014
  0
VERTEX
999
1,2
  8
1
 10
54.4961
 20
127.0146
  0
VERTEX
999
1,2
  8
1
 10
62.2628
 20
127.2265
  0
VERTEX
999
1,2
  8
1
 10
69.6986
 20
125.9213
  0
VERTEX
999
1,2
  8
1
 10
76.4449
 20
123.3802
  0
VERTEX
999
1,2
  8
1
 10
82.1436
 20
119.8848
  0
VERTEX
999
1,1,,12
  8
1
 10
83.0225
 20
119.1816
  0
VERTEX
999
1,2
  8
1
 10
85.2998
 20
121.1182
  0
VERTEX
999
1,2
  8
1
 10
91.1627
 20
124.6931
  0
VERTEX
999
1,2
  8
1
 10
98.1073
 20
127.2900
  0
VERTEX
999
1,2
  8
1
 10
105.7607
 20
128.6254
  0
VERTEX
999
1,2
  8
1
 10
113.7501
 20
128.4159
  0
VERTEX
999
1,2
  8
1
 10
121.7023
 20
126.3778
  0
VERTEX
999
1,2
  8
1
 10
129.2444
 20
122.2277
  0
VERTEX
999
1,2
  8
1
 10
136.0034
 20
115.6819
  0
VERTEX
999
1,1,1,13
  8
1
 10
141.6064
 20
106.4570
 38
10.0000
 50
204.6883
  0
VERTEX
999
1,2
  8
1
 10
143.9908
 20
100.2719
  0
VERTEX
999
1,2
  8
1
 10
145.8329
 20
93.0988
  0
VERTEX
999
1,2
  8
1
 10
147.0457
 20
84.8726
  0
VERTEX
999
1,2
  8
1
 10
147.5420
 20
75.5283
  0
VERTEX
999
1,1,1,14
  8
1
 10
147.4189
 20
59.0311
 38
10.0000
 50
178.3275
  0
VERTEX
999
1,2
  8
1
 10
146.7852
 20
46.3193
  0
VERTEX
999
1,2
  8
1
 10
146.6344
 20
44.1945
  0
VERTEX
999
1,2
  8
1
 10
146.5239
 20
42.4388
  0
VERTEX
999
1,2
  8
1
 10
146.4962
 20
40.9321
  0
VERTEX
999
1,1,,15
  8
1
 10
146.5938
 20
39.5537
  0
SEQEND
  0
POLYLINE
999
2
  8
1
 66
1
 70
0
  0
VERTEX
999
2,1,,16
  8
1
 10
140.2529
 20
36.0850
  0
VERTEX
999
2,2
  8
1
 10
142.4250
 20
33.9465
  0
VERTEX
999
2,2
  8
1
 10
146.2244
 20
30.9614
  0
VERTEX
999
2,2
  8
1
 10
150.7629
 20
27.1948
  0
VERTEX
999
2,2
  8
1
 10
155.1533
 20
22.7119
  0
VERTEX
999
2,2
  8
1
 10
157.5442
 20
19.2130
  0
VERTEX
999
2,2
  8
1
 10
159.1863
 20
15.4463
  0
VERTEX
999
2,2
  8
1
 10
159.9988
 20
11.6547
  0
VERTEX
999
2,1,,17
  8
1
 10
159.9014
 20
8.0811
  0
VERTEX
999
2,2
  8
1
 10
153.5884
 20
8.9874
  0
VERTEX
999
2,2
  8
1
 10
147.2485
 20
9.5782
  0
VERTEX
999
2,2
  8
1
 10
140.8857
 20
9.8987
  0
VERTEX
999
2,2
  8
1
 10
134.5038
 20
9.9941
  0
VERTEX
999
2,2
  8
1
 10
128.1063
 20
9.9096
  0
VERTEX
999
2,1,,18
  8
1
 10
121.6973
 20
9.6904
  0
VERTEX
999
2,2
  8
1
 10
102.5424
 20
8.6836
  0
VERTEX
999
2,1,,19
  8
1
 10
83.4219
 20
8.0811
  0
VERTEX
999
2,2
  8
1
 10
64.3027
 20
8.6840
  0
VERTEX
999
2,1,,20
  8
1
 10
45.1484
 20
9.6904
  0
VERTEX
999
2,2
  8
1
 10
38.7393
 20
9.9096
  0
VERTEX
999
2,2
  8
1
 10
32.3414
 20
9.9941
  0
VERTEX
999
2,2
  8
1
 10
25.9590
 20
9.8987
  0
VERTEX
999
2,2
  8
1
 10
19.5957
 20
9.5782
  0
VERTEX
999
2,2
  8
1
 10
13.2555
 20
8.9874
  0
VERTEX
999
2,1,,21
  8
1
 10
6.9424
 20
8.0811
  0
VERTEX
999
2,2
  8
1
 10
7.0000
 20
11.4034
  0
VERTEX
999
2,2
  8
1
 10
7.9271
 20
14.8878
  0
VERTEX
999
2,2
  8
1
 10
9.6245
 20
18.3174
  0
VERTEX
999
2,2
  8
1
 10
11.9932
 20
21.4756
  0
VERTEX
999
2,2
  8
1
 10
16.8474
 20
26.0588
  0
VERTEX
999
2,2
  8
1
 10
21.7729
 20
29.8328
  0
VERTEX
999
2,2
  8
1
 10
25.8950
 20
32.8365
  0
VERTEX
999
2,1,,22
  8
1
 10
28.3389
 20
35.1094
  0
VERTEX
999
2,2
  8
1
 10
28.7217
 20
36.0088
  0
VERTEX
999
2,2
  8
1
 10
29.2633
 20
39.5714
  0
VERTEX
999
2,2
  8
1
 10
29.2065
 20
43.7668
  0
VERTEX
999
2,2
  8
1
 10
28.8326
 20
49.9043
  0
VERTEX
999
2,1,,23
  8
1
 10
28.4229
 20
59.2930
  0
VERTEX
999
2,2
  8
1
 10
28.3037
 20
75.4307
  0
VERTEX
999
2,2
  8
1
 10
28.7231
 20
83.6563
  0
VERTEX
999
2,2
  8
1
 10
29.7529
 20
90.9142
  0
VERTEX
999
2,2
  8
1
 10
31.3364
 20
97.2472
  0
VERTEX
999
2,1,,24
  8
1
 10
33.4170
 20
102.6982
  0
VERTEX
999
2,2
  8
1
 10
37.8600
 20
109.9866
  0
VERTEX
999
2,2
  8
1
 10
43.2069
 20
115.1653
  0
VERTEX
999
2,2
  8
1
 10
49.1652
 20
118.4557
  0
VERTEX
999
2,2
  8
1
 10
55.4419
 20
120.0792
  0
VERTEX
999
2,2
  8
1
 10
61.7446
 20
120.2571
  0
VERTEX
999
2,2
  8
1
 10
67.7809
 20
119.2108
  0
VERTEX
999
2,2
  8
1
 10
73.2578
 20
117.1617
  0
VERTEX
999
2,2
  8
1
 10
77.8828
 20
114.3311
  0
VERTEX
999
2,2
  8
1
 10
80.1462
 20
112.3353
  0
VERTEX
999
2,2
  8
1
 10
81.8943
 20
110.1913
  0
VERTEX
999
2,2
  8
1
 10
83.0217
 20
107.9424
  0
VERTEX
999
2,1,,25
  8
1
 10
83.4229
 20
105.6318
  0
VERTEX
999
2,2
  8
1
 10
84.5023
 20
109.8148
  0
VERTEX
999
2,2
  8
1
 10
87.4702
 20
113.7590
  0
VERTEX
999
2,2
  8
1
 10
91.9602
 20
117.1879
  0
VERTEX
999
2,2
  8
1
 10
97.6061
 20
119.8248
  0
VERTEX
999
2,2
  8
1
 10
104.0416
 20
121.3934
  0
VERTEX
999
2,2
  8
1
 10
110.9006
 20
121.6172
  0
VERTEX
999
2,2
  8
1
 10
117.8168
 20
120.2195
  0
VERTEX
999
2,2
  8
1
 10
124.4240
 20
116.9240
  0
VERTEX
999
2,2
  8
1
 10
130.3558
 20
111.4540
  0
VERTEX
999
2,1,,26
  8
1
 10
135.2461
 20
103.5332
  0
VERTEX
999
2,2
  8
1
 10
137.0845
 20
98.8727
  0
VERTEX
999
2,2
  8
1
 10
138.5721
 20
93.5778
  0
VERTEX
999
2,2
  8
1
 10
139.6707
 20
87.6194
  0
VERTEX
999
2,2
  8
1
 10
140.3418
 20
80.9688
  0
VERTEX
999
2,2
  8
1
 10
140.5420
 20
75.4521
  0
VERTEX
999
2,1,,27
  8
1
 10
140.4219
 20
59.2354
  0
VERTEX
999
2,2
  8
1
 10
140.3594
 20
57.2822
  0
VERTEX
999
2,2
  8
1
 10
139.9563
 20
49.1526
  0
VERTEX
999
2,2
  8
1
 10
139.6085
 20
43.6829
  0
VERTEX
999
2,2
  8
1
 10
139.5619
 20
39.8175
  0
VERTEX
999
2,2
  8
1
 10
140.0625
 20
36.5010
  0
VERTEX
999
2,1,,28
  8
1
 10
140.2529
 20
36.0850
  0
SEQEND
  0
LINE
999
5,1,,29
  8
1
 10
140.2529
 20
36.0850
 11
131.7828
 21
30.7692
  0
LINE
999
5,1,,31
  8
1
 10
121.6973
 20
9.6904
 11
121.2751
 21
19.6815
  0
LINE
999
5,1,,33
  8
1
 10
45.1484
 20
9.6904
 11
45.5698
 21
19.6815
  0
LINE
999
5,1,,35
  8
1
 10
28.3389
 20
35.1094
 11
36.5934
 21
29.4647
  0
LINE
999
5,1,,37
  8
1
 10
28.4229
 20
59.2930
 11
38.4186
 21
59.5839
  0
LINE
999
5,1,,39
  8
1
 10
33.4170
 20
102.6982
 11
42.4929
 21
98.4999
  0
LINE
999
5,1,,41
  8
1
 10
135.2461
 20
103.5332
 11
126.1602
 21
99.3564
  0
LINE
999
5,1,,43
  8
1
 10
140.4219
 20
59.2354
 11
130.4261
 21
59.5272
  0
LINE
999
3,1,,45
  8
1
 10
83.4219
 20
1.0811
 11
83.4229
 21
119.5547
  0
LINE
999
5,1,,45
  8
1
 10
134.7480
 20
101.9150
 11
129.7480
 21
78.5947
  0
LINE
999
5,1,,47
  8
1
 10
129.7480
 20
78.5947
 11
139.7480
 21
59.6045
  0
POLYLINE
999
5
  8
1
 66
1
 70
0
  0
VERTEX
999
5,1,,49
  8
1
 10
59.1826
 20
95.2520
  0
VERTEX
999
5,2
  8
1
 10
59.9611
 20
95.0944
  0
VERTEX
999
5,2
  8
1
 10
60.5969
 20
94.6656
  0
VERTEX
999
5,2
  8
1
 10
61.0259
 20
94.0298
  0
VERTEX
999
5,1,,50
  8
1
 10
61.1836
 20
93.2510
  0
SEQEND
  0
POLYLINE
999
5
  8
1
 66
1
 70
0
  0
VERTEX
999
5,1,,51
  8
1
 10
61.1836
 20
93.2510
  0
VERTEX
999
5,2
  8
1
 10
61.0264
 20
92.4730
  0
VERTEX
999
5,2
  8
1
 10
60.5978
 20
91.8373
  0
VERTEX
999
5,2
  8
1
 10
59.9620
 20
91.4087
  0
VERTEX
999
5,1,,52
  8
1
 10
59.1836
 20
91.2520
  0
SEQEND
  0
POLYLINE
999
5
  8
1
 66
1
 70
0
  0
VERTEX
999
5,1,,53
  8
1
 10
59.1836
 20
91.2520
  0
VERTEX
999
5,2
  8
1
 10
58.4052
 20
91.4087
  0
VERTEX
999
5,2
  8
1
 10
57.7694
 20
91.8373
  0
VERTEX
999
5,2
  8
1
 10
57.3408
 20
92.4730
  0
VERTEX
999
5,1,,54
  8
1
 10
57.1836
 20
93.2510
  0
SEQEND
  0
POLYLINE
999
5
  8
1
 66
1
 70
0
  0
VERTEX
999
5,1,,55
  8
1
 10
57.1836
 20
93.2510
  0
VERTEX
999
5,2
  8
1
 10
57.3402
 20
94.0298
  0
VERTEX
999
5,2
  8
1
 10
57.7686
 20
94.6656
  0
VERTEX
999
5,2
  8
1
 10
58.4042
 20
95.0944
  0
VERTEX
999
5,1,,56
  8
1
 10
59.1826
 20
95.2520
  0
SEQEND
  0
POLYLINE
999
5
  8
1
 66
1
 70
0
  0
VERTEX
999
5,1,,57
  8
1
 10
72.4521
 20
68.0029
  0
VERTEX
999
5,2
  8
1
 10
73.3143
 20
72.2733
  0
VERTEX
999
5,2
  8
1
 10
75.6654
 20
75.7601
  0
VERTEX
999
5,2
  8
1
 10
79.1523
 20
78.1108
  0
VERTEX
999
5,1,,58
  8
1
 10
83.4219
 20
78.9727
  0
SEQEND
  0
POLYLINE
999
5
  8
1
 66
1
 70
0
  0
VERTEX
999
5,1,,59
  8
1
 10
83.4219
 20
78.9727
  0
VERTEX
999
5,2
  8
1
 10
87.6920
 20
78.1106
  0
VERTEX
999
5,2
  8
1
 10
91.1792
 20
75.7598
  0
VERTEX
999
5,2
  8
1
 10
93.5304
 20
72.2729
  0
VERTEX
999
5,1,,60
  8
1
 10
94.3926
 20
68.0029
  0
SEQEND
  0
POLYLINE
999
5
  8
1
 66
1
 70
0
  0
VERTEX
999
5,1,,61
  8
1
 10
94.3926
 20
68.0029
  0
VERTEX
999
5,2
  8
1
 10
93.5300
 20
63.7331
  0
VERTEX
999
5,2
  8
1
 10
91.1790
 20
60.2465
  0
VERTEX
999
5,2
  8
1
 10
87.6923
 20
57.8956
  0
VERTEX
999
5,1,,62
  8
1
 10
83.4229
 20
57.0332
  0
SEQEND
  0
POLYLINE
999
5
  8
1
 66
1
 70
0
  0
VERTEX
999
5,1,,63
  8
1
 10
83.4229
 20
57.0332
  0
VERTEX
999
5,2
  8
1
 10
79.1527
 20
57.8953
  0
VERTEX
999
5,2
  8
1
 10
75.6655
 20
60.2461
  0
VERTEX
999
5,2
  8
1
 10
73.3143
 20
63.7329
  0
VERTEX
999
5,1,,64
  8
1
 10
72.4521
 20
68.0029
  0
SEQEND
  0
POLYLINE
999
5
  8
1
 66
1
 70
0
  0
VERTEX
999
5,1,,65
  8
1
 10
76.5225
 20
68.0029
  0
VERTEX
999
5,2
  8
1
 10
77.0648
 20
70.6887
  0
VERTEX
999
5,2
  8
1
 10
78.5437
 20
72.8821
  0
VERTEX
999
5,2
  8
1
 10
80.7371
 20
74.3610
  0
VERTEX
999
5,1,,66
  8
1
 10
83.4229
 20
74.9033
  0
SEQEND
  0
POLYLINE
999
5
  8
1
 66
1
 70
0
  0
VERTEX
999
5,1,,67
  8
1
 10
83.4229
 20
74.9033
  0
VERTEX
999
5,2
  8
1
 10
86.1082
 20
74.3610
  0
VERTEX
999
5,2
  8
1
 10
88.3015
 20
72.8821
  0
VERTEX
999
5,2
  8
1
 10
89.7804
 20
70.6887
  0
VERTEX
999
5,1,,68
  8
1
 10
90.3223
 20
68.0029
  0
SEQEND
  0
POLYLINE
999
5
  8
1
 66
1
 70
0
  0
VERTEX
999
5,1,,69
  8
1
 10
90.3223
 20
68.0029
  0
VERTEX
999
5,2
  8
1
 10
89.7799
 20
65.3171
  0
VERTEX
999
5,2
  8
1
 10
88.3011
 20
63.1238
  0
VERTEX
999
5,2
  8
1
 10
86.1080
 20
61.6449
  0
VERTEX
999
5,1,,70
  8
1
 10
83.4229
 20
61.1025
  0
SEQEND
  0
POLYLINE
999
5
  8
1
 66
1
 70
0
  0
VERTEX
999
5,1,,71
  8
1
 10
83.4229
 20
61.1025
  0
VERTEX
999
5,2
  8
1
 10
80.7369
 20
61.6449
  0
VERTEX
999
5,2
  8
1
 10
78.5433
 20
63.1238
  0
VERTEX
999
5,2
  8
1
 10
77.0643
 20
65.3171
  0
VERTEX
999
5,1,,72
  8
1
 10
76.5225
 20
68.0029
  0
SEQEND
  0
ENDBLK
  0
BLOCK
  8
1
  2
P0017_05
 70
64
 10
0.0000
 20
0.0000
  0
TEXT
  8
1
 10
83.9785
 20
33.9697
 40
5.0000
 50
359.9999
  1
PIECE: 左足
  7
STANDARD
  0
TEXT
  8
1
 10
83.9785
 20
28.2197
 40
5.0000
 50
359.9999
  1
SIZE: Free
  7
STANDARD
  0
TEXT
  8
1
 10
83.9785
 20
22.4697
 40
5.0000
 50
359.9999
  1
FABRIC: 表 地
  7
STANDARD
  0
TEXT
  8
1
 10
83.9785
 20
16.7197
 40
5.0000
 50
359.9999
  1
QUANTITY: 1
  7
STANDARD
  0
TEXT
  8
1
 10
98.9785
 20
30.9697
 40
3.0000
 50
359.9999
  1
COMMENT: テディベア
  7
STANDARD
  0
TEXT
  8
1
 10
98.9785
 20
27.9697
 40
3.0000
 50
359.9999
  1
COMMENT: 左足
  7
STANDARD
  0
TEXT
  8
1
 10
98.9785
 20
24.9697
 40
3.0000
 50
359.9999
  1
COMMENT: Free
  7
STANDARD
  0
TEXT
  8
1
 10
98.9785
 20
21.9697
 40
3.0000
 50
359.9999
  1
COMMENT: 表 地 x 1
  7
STANDARD
  0
TEXT
  8
1
 10
143.9961
 20
10.3643
 40
5.0000
 50
359.9999
  1
COMMENT: つま先
  7
STANDARD
  0
TEXT
  8
1
 10
83.8379
 20
9.1025
 40
5.0000
 50
359.9999
  1
COMMENT: 踵
  7
STANDARD
  0
TEXT
  8
1
 10
8.7578
 20
10.6738
 40
5.0000
 50
359.9999
  1
COMMENT: つま先
  7
STANDARD
  0
TEXT
  8
1
 10
37.9199
 20
76.2813
 40
5.0000
 50
0.0000
  1
COMMENT: 綿詰め口
  7
STANDARD
  0
POLYLINE
999
1
  8
1
 66
1
 70
0
  0
VERTEX
999
1,1,,1
  8
1
 10
1.1816
 20
0.0000
  0
VERTEX
999
1,2,1
  8
1
 10
0.0000
 20
6.8994
 38
10.0000
 50
9.7187
  0
VERTEX
999
1,2
  8
1
 10
-0.1796
 20
11.8486
  0
VERTEX
999
1,2
  8
1
 10
0.8444
 20
17.1158
  0
VERTEX
999
1,2
  8
1
 10
3.0139
 20
22.3488
  0
VERTEX
999
1,2
  8
1
 10
6.2715
 20
27.1953
  0
VERTEX
999
1,2
  8
1
 10
9.0265
 20
30.1907
  0
VERTEX
999
1,2
  8
1
 10
11.9711
 20
32.9330
  0
VERTEX
999
1,2
  8
1
 10
14.9163
 20
35.4011
  0
VERTEX
999
1,2
  8
1
 10
17.6729
 20
37.5742
  0
VERTEX
999
1,1,1,2
  8
1
 10
20.2070
 20
39.5537
 38
10.0000
 50
327.8878
  0
VERTEX
999
1,2
  8
1
 10
20.3046
 20
40.9321
  0
VERTEX
999
1,2
  8
1
 10
20.2769
 20
42.4388
  0
VERTEX
999
1,2
  8
1
 10
20.1664
 20
44.1945
  0
VERTEX
999
1,2
  8
1
 10
20.0156
 20
46.3193
  0
VERTEX
999
1,1,1,3
  8
1
 10
19.3818
 20
59.0311
 38
10.0000
 50
1.6725
  0
VERTEX
999
1,2
  8
1
 10
19.2588
 20
75.5283
  0
VERTEX
999
1,2
  8
1
 10
19.7551
 20
84.8726
  0
VERTEX
999
1,2
  8
1
 10
20.9679
 20
93.0988
  0
VERTEX
999
1,2
  8
1
 10
22.8099
 20
100.2719
  0
VERTEX
999
1,1,1,4
  8
1
 10
25.1943
 20
106.4570
 38
10.0000
 50
335.3117
  0
VERTEX
999
1,2
  8
1
 10
30.7974
 20
115.6819
  0
VERTEX
999
1,2
  8
1
 10
37.5564
 20
122.2277
  0
VERTEX
999
1,2
  8
1
 10
45.0985
 20
126.3778
  0
VERTEX
999
1,2
  8
1
 10
53.0507
 20
128.4159
  0
VERTEX
999
1,2
  8
1
 10
61.0400
 20
128.6254
  0
VERTEX
999
1,2
  8
1
 10
68.6935
 20
127.2900
  0
VERTEX
999
1,2
  8
1
 10
75.6381
 20
124.6931
  0
VERTEX
999
1,2
  8
1
 10
81.5010
 20
121.1182
  0
VERTEX
999
1,1,,5
  8
1
 10
83.7783
 20
119.1816
  0
VERTEX
999
1,2
  8
1
 10
84.6572
 20
119.8848
  0
VERTEX
999
1,2
  8
1
 10
90.3558
 20
123.3802
  0
VERTEX
999
1,2
  8
1
 10
97.1022
 20
125.9213
  0
VERTEX
999
1,2
  8
1
 10
104.5380
 20
127.2265
  0
VERTEX
999
1,2
  8
1
 10
112.3047
 20
127.0146
  0
VERTEX
999
1,2
  8
1
 10
117.5272
 20
125.9014
  0
VERTEX
999
1,2
  8
1
 10
122.6427
 20
123.9290
  0
VERTEX
999
1,2
  8
1
 10
127.5365
 20
121.0063
  0
VERTEX
999
1,2
  8
1
 10
132.0940
 20
117.0427
  0
VERTEX
999
1,2
  8
1
 10
136.2004
 20
111.9472
  0
VERTEX
999
1,1,1,6
  8
1
 10
139.7367
 20
105.6370
 38
9.9999
 50
204.8244
  0
VERTEX
999
1,2
  8
1
 10
142.0579
 20
99.6040
  0
VERTEX
999
1,2
  8
1
 10
143.8438
 20
92.6099
  0
VERTEX
999
1,2
  8
1
 10
145.0173
 20
84.5947
  0
VERTEX
999
1,2
  8
1
 10
145.4971
 20
75.5068
  0
VERTEX
999
1,1,1,7
  8
1
 10
145.3750
 20
59.0893
 38
10.0000
 50
178.3327
  0
VERTEX
999
1,2
  8
1
 10
144.7578
 20
46.2656
  0
VERTEX
999
1,2
  8
1
 10
144.5979
 20
43.8809
  0
VERTEX
999
1,2
  8
1
 10
144.4912
 20
41.9479
  0
VERTEX
999
1,2
  8
1
 10
144.4900
 20
40.3007
  0
VERTEX
999
1,2,1
  8
1
 10
144.5924
 20
39.3016
 38
10.0000
 50
214.3656
  0
VERTEX
999
1,1,,8
  8
1
 10
144.6465
 20
38.7734
  0
VERTEX
999
1,2
  8
1
 10
147.7988
 20
36.4639
  0
VERTEX
999
1,2
  8
1
 10
150.7312
 20
34.3257
  0
VERTEX
999
1,2
  8
1
 10
153.8584
 20
31.8989
  0
VERTEX
999
1,2
  8
1
 10
157.0054
 20
29.1821
  0
VERTEX
999
1,2
  8
1
 10
159.9971
 20
26.1738
  0
VERTEX
999
1,2
  8
1
 10
163.2856
 20
21.7050
  0
VERTEX
999
1,2
  8
1
 10
165.5698
 20
16.8324
  0
VERTEX
999
1,2
  8
1
 10
166.7686
 20
11.8827
  0
VERTEX
999
1,2,1
  8
1
 10
166.8008
 20
7.1826
 38
10.0001
 50
172.6261
  0
VERTEX
999
1,1,,9
  8
1
 10
165.9014
 20
0.2344
  0
VERTEX
999
1,1,1,10
  8
1
 10
158.9590
 20
1.1328
 38
10.0000
 50
82.6246
  0
VERTEX
999
1,2
  8
1
 10
152.8618
 20
2.0322
  0
VERTEX
999
1,2
  8
1
 10
146.7253
 20
2.6113
  0
VERTEX
999
1,2
  8
1
 10
140.5576
 20
2.9187
  0
VERTEX
999
1,2
  8
1
 10
134.3667
 20
3.0030
  0
VERTEX
999
1,2
  8
1
 10
128.1609
 20
2.9127
  0
VERTEX
999
1,1,1,11
  8
1
 10
121.9474
 20
2.6962
 38
10.0000
 50
92.4151
  0
VERTEX
999
1,2
  8
1
 10
102.6453
 20
1.6854
  0
VERTEX
999
1,1,,12
  8
1
 10
83.3789
 20
1.0811
  0
VERTEX
999
1,2
  8
1
 10
64.1105
 20
1.6851
  0
VERTEX
999
1,1,1,13
  8
1
 10
44.8080
 20
2.6963
 38
10.0000
 50
87.5807
  0
VERTEX
999
1,2
  8
1
 10
38.6467
 20
2.9095
  0
VERTEX
999
1,2
  8
1
 10
32.4968
 20
2.9968
  0
VERTEX
999
1,2
  8
1
 10
26.3616
 20
2.9127
  0
VERTEX
999
1,2
  8
1
 10
20.2446
 20
2.6123
  0
VERTEX
999
1,2
  8
1
 10
14.1499
 20
2.0504
  0
VERTEX
999
1,1,1,14
  8
1
 10
8.0811
 20
1.1816
 38
10.0000
 50
99.7187
  0
VERTEX
999
1,1,,15
  8
1
 10
1.1816
 20
0.0000
  0
SEQEND
  0
POLYLINE
999
2
  8
1
 66
1
 70
0
  0
VERTEX
999
2,1,,16
  8
1
 10
6.8994
 20
8.0811
  0
VERTEX
999
2,2
  8
1
 10
6.8020
 20
11.6547
  0
VERTEX
999
2,2
  8
1
 10
7.6145
 20
15.4463
  0
VERTEX
999
2,2
  8
1
 10
9.2566
 20
19.2130
  0
VERTEX
999
2,2
  8
1
 10
11.6475
 20
22.7119
  0
VERTEX
999
2,2
  8
1
 10
16.0378
 20
27.1948
  0
VERTEX
999
2,2
  8
1
 10
20.5764
 20
30.9614
  0
VERTEX
999
2,2
  8
1
 10
24.3757
 20
33.9465
  0
VERTEX
999
2,1,,17
  8
1
 10
26.5479
 20
36.0850
  0
VERTEX
999
2,2
  8
1
 10
26.7383
 20
36.5010
  0
VERTEX
999
2,2
  8
1
 10
27.2389
 20
39.8175
  0
VERTEX
999
2,2
  8
1
 10
27.1923
 20
43.6829
  0
VERTEX
999
2,2
  8
1
 10
26.8445
 20
49.1526
  0
VERTEX
999
2,2
  8
1
 10
26.4414
 20
57.2822
  0
VERTEX
999
2,1,,18
  8
1
 10
26.3789
 20
59.2354
  0
VERTEX
999
2,2
  8
1
 10
26.2588
 20
75.4521
  0
VERTEX
999
2,2
  8
1
 10
26.4590
 20
80.9688
  0
VERTEX
999
2,2
  8
1
 10
27.1301
 20
87.6194
  0
VERTEX
999
2,2
  8
1
 10
28.2286
 20
93.5778
  0
VERTEX
999
2,2
  8
1
 10
29.7163
 20
98.8727
  0
VERTEX
999
2,1,,19
  8
1
 10
31.5547
 20
103.5332
  0
VERTEX
999
2,2
  8
1
 10
36.4449
 20
111.4540
  0
VERTEX
999
2,2
  8
1
 10
42.3768
 20
116.9240
  0
VERTEX
999
2,2
  8
1
 10
48.9840
 20
120.2195
  0
VERTEX
999
2,2
  8
1
 10
55.9001
 20
121.6172
  0
VERTEX
999
2,2
  8
1
 10
62.7592
 20
121.3934
  0
VERTEX
999
2,2
  8
1
 10
69.1947
 20
119.8248
  0
VERTEX
999
2,2
  8
1
 10
74.8406
 20
117.1879
  0
VERTEX
999
2,2
  8
1
 10
79.3306
 20
113.7590
  0
VERTEX
999
2,2
  8
1
 10
82.2985
 20
109.8148
  0
VERTEX
999
2,1,,20
  8
1
 10
83.3779
 20
105.6318
  0
VERTEX
999
2,2
  8
1
 10
83.7791
 20
107.9424
  0
VERTEX
999
2,2
  8
1
 10
84.9065
 20
110.1913
  0
VERTEX
999
2,2
  8
1
 10
86.6545
 20
112.3353
  0
VERTEX
999
2,2
  8
1
 10
88.9180
 20
114.3311
  0
VERTEX
999
2,2
  8
1
 10
93.5430
 20
117.1617
  0
VERTEX
999
2,2
  8
1
 10
99.0199
 20
119.2108
  0
VERTEX
999
2,2
  8
1
 10
105.0562
 20
120.2571
  0
VERTEX
999
2,2
  8
1
 10
111.3589
 20
120.0792
  0
VERTEX
999
2,2
  8
1
 10
117.6356
 20
118.4557
  0
VERTEX
999
2,2
  8
1
 10
123.5939
 20
115.1653
  0
VERTEX
999
2,2
  8
1
 10
128.9408
 20
109.9866
  0
VERTEX
999
2,1,,21
  8
1
 10
133.3838
 20
102.6982
  0
VERTEX
999
2,2
  8
1
 10
135.4644
 20
97.2472
  0
VERTEX
999
2,2
  8
1
 10
137.0479
 20
90.9142
  0
VERTEX
999
2,2
  8
1
 10
138.0776
 20
83.6563
  0
VERTEX
999
2,2
  8
1
 10
138.4971
 20
75.4307
  0
VERTEX
999
2,1,,22
  8
1
 10
138.3779
 20
59.2930
  0
VERTEX
999
2,2
  8
1
 10
137.9681
 20
49.9043
  0
VERTEX
999
2,2
  8
1
 10
137.5942
 20
43.7668
  0
VERTEX
999
2,2
  8
1
 10
137.5375
 20
39.5714
  0
VERTEX
999
2,2
  8
1
 10
138.0791
 20
36.0088
  0
VERTEX
999
2,1,,23
  8
1
 10
138.4619
 20
35.1094
  0
VERTEX
999
2,2
  8
1
 10
140.9058
 20
32.8365
  0
VERTEX
999
2,2
  8
1
 10
145.0278
 20
29.8328
  0
VERTEX
999
2,2
  8
1
 10
149.9534
 20
26.0588
  0
VERTEX
999
2,2
  8
1
 10
154.8076
 20
21.4756
  0
VERTEX
999
2,2
  8
1
 10
157.1763
 20
18.3174
  0
VERTEX
999
2,2
  8
1
 10
158.8737
 20
14.8878
  0
VERTEX
999
2,2
  8
1
 10
159.8008
 20
11.4034
  0
VERTEX
999
2,1,,24
  8
1
 10
159.8584
 20
8.0811
  0
VERTEX
999
2,2
  8
1
 10
153.5453
 20
8.9874
  0
VERTEX
999
2,2
  8
1
 10
147.2051
 20
9.5782
  0
VERTEX
999
2,2
  8
1
 10
140.8418
 20
9.8987
  0
VERTEX
999
2,2
  8
1
 10
134.4594
 20
9.9941
  0
VERTEX
999
2,2
  8
1
 10
128.0615
 20
9.9096
  0
VERTEX
999
2,1,,25
  8
1
 10
121.6523
 20
9.6904
  0
VERTEX
999
2,2
  8
1
 10
102.4980
 20
8.6840
  0
VERTEX
999
2,1,,26
  8
1
 10
83.3789
 20
8.0811
  0
VERTEX
999
2,2
  8
1
 10
64.2584
 20
8.6836
  0
VERTEX
999
2,1,,27
  8
1
 10
45.1035
 20
9.6904
  0
VERTEX
999
2,2
  8
1
 10
38.6945
 20
9.9096
  0
VERTEX
999
2,2
  8
1
 10
32.2970
 20
9.9941
  0
VERTEX
999
2,2
  8
1
 10
25.9150
 20
9.8987
  0
VERTEX
999
2,2
  8
1
 10
19.5522
 20
9.5782
  0
VERTEX
999
2,2
  8
1
 10
13.2124
 20
8.9874
  0
VERTEX
999
2,1,,28
  8
1
 10
6.8994
 20
8.0811
  0
SEQEND
  0
LINE
999
5,1,,29
  8
1
 10
26.5479
 20
36.0850
 11
35.0179
 21
30.7692
  0
LINE
999
5,1,,31
  8
1
 10
31.5547
 20
103.5332
 11
40.6406
 21
99.3564
  0
LINE
999
5,1,,33
  8
1
 10
26.3789
 20
59.2354
 11
36.3746
 21
59.5272
  0
LINE
999
5,1,,35
  8
1
 10
133.3838
 20
102.6982
 11
124.3079
 21
98.4999
  0
LINE
999
5,1,,37
  8
1
 10
138.3779
 20
59.2930
 11
128.3822
 21
59.5839
  0
LINE
999
5,1,,39
  8
1
 10
138.4619
 20
35.1094
 11
130.2074
 21
29.4647
  0
LINE
999
5,1,,41
  8
1
 10
121.6523
 20
9.6904
 11
121.2310
 21
19.6815
  0
LINE
999
5,1,,43
  8
1
 10
45.1035
 20
9.6904
 11
45.5256
 21
19.6815
  0
LINE
999
3,1,,45
  8
1
 10
83.3789
 20
1.0811
 11
83.3779
 21
119.5547
  0
LINE
999
5,1,,45
  8
1
 10
32.0527
 20
101.9150
 11
37.0527
 21
78.5947
  0
LINE
999
5,1,,47
  8
1
 10
37.0527
 20
78.5947
 11
27.0527
 21
59.6045
  0
POLYLINE
999
5
  8
1
 66
1
 70
0
  0
VERTEX
999
5,1,,49
  8
1
 10
107.6182
 20
95.2520
  0
VERTEX
999
5,2
  8
1
 10
106.8397
 20
95.0944
  0
VERTEX
999
5,2
  8
1
 10
106.2039
 20
94.6656
  0
VERTEX
999
5,2
  8
1
 10
105.7749
 20
94.0298
  0
VERTEX
999
5,1,,50
  8
1
 10
105.6172
 20
93.2510
  0
SEQEND
  0
POLYLINE
999
5
  8
1
 66
1
 70
0
  0
VERTEX
999
5,1,,51
  8
1
 10
105.6172
 20
93.2510
  0
VERTEX
999
5,2
  8
1
 10
105.7744
 20
92.4730
  0
VERTEX
999
5,2
  8
1
 10
106.2030
 20
91.8373
  0
VERTEX
999
5,2
  8
1
 10
106.8387
 20
91.4087
  0
VERTEX
999
5,1,,52
  8
1
 10
107.6172
 20
91.2520
  0
SEQEND
  0
POLYLINE
999
5
  8
1
 66
1
 70
0
  0
VERTEX
999
5,1,,53
  8
1
 10
107.6172
 20
91.2520
  0
VERTEX
999
5,2
  8
1
 10
108.3956
 20
91.4087
  0
VERTEX
999
5,2
  8
1
 10
109.0314
 20
91.8373
  0
VERTEX
999
5,2
  8
1
 10
109.4600
 20
92.4730
  0
VERTEX
999
5,1,,54
  8
1
 10
109.6172
 20
93.2510
  0
SEQEND
  0
POLYLINE
999
5
  8
1
 66
1
 70
0
  0
VERTEX
999
5,1,,55
  8
1
 10
109.6172
 20
93.2510
  0
VERTEX
999
5,2
  8
1
 10
109.4606
 20
94.0298
  0
VERTEX
999
5,2
  8
1
 10
109.0322
 20
94.6656
  0
VERTEX
999
5,2
  8
1
 10
108.3966
 20
95.0944
  0
VERTEX
999
5,1,,56
  8
1
 10
107.6182
 20
95.2520
  0
SEQEND
  0
POLYLINE
999
5
  8
1
 66
1
 70
0
  0
VERTEX
999
5,1,,57
  8
1
 10
94.3486
 20
68.0029
  0
VERTEX
999
5,2
  8
1
 10
93.4865
 20
72.2733
  0
VERTEX
999
5,2
  8
1
 10
91.1354
 20
75.7601
  0
VERTEX
999
5,2
  8
1
 10
87.6484
 20
78.1108
  0
VERTEX
999
5,1,,58
  8
1
 10
83.3789
 20
78.9727
  0
SEQEND
  0
POLYLINE
999
5
  8
1
 66
1
 70
0
  0
VERTEX
999
5,1,,59
  8
1
 10
83.3789
 20
78.9727
  0
VERTEX
999
5,2
  8
1
 10
79.1088
 20
78.1106
  0
VERTEX
999
5,2
  8
1
 10
75.6216
 20
75.7598
  0
VERTEX
999
5,2
  8
1
 10
73.2704
 20
72.2729
  0
VERTEX
999
5,1,,60
  8
1
 10
72.4082
 20
68.0029
  0
SEQEND
  0
POLYLINE
999
5
  8
1
 66
1
 70
0
  0
VERTEX
999
5,1,,61
  8
1
 10
72.4082
 20
68.0029
  0
VERTEX
999
5,2
  8
1
 10
73.2708
 20
63.7331
  0
VERTEX
999
5,2
  8
1
 10
75.6218
 20
60.2465
  0
VERTEX
999
5,2
  8
1
 10
79.1085
 20
57.8956
  0
VERTEX
999
5,1,,62
  8
1
 10
83.3779
 20
57.0332
  0
SEQEND
  0
POLYLINE
999
5
  8
1
 66
1
 70
0
  0
VERTEX
999
5,1,,63
  8
1
 10
83.3779
 20
57.0332
  0
VERTEX
999
5,2
  8
1
 10
87.6481
 20
57.8953
  0
VERTEX
999
5,2
  8
1
 10
91.1353
 20
60.2461
  0
VERTEX
999
5,2
  8
1
 10
93.4865
 20
63.7329
  0
VERTEX
999
5,1,,64
  8
1
 10
94.3486
 20
68.0029
  0
SEQEND
  0
POLYLINE
999
5
  8
1
 66
1
 70
0
  0
VERTEX
999
5,1,,65
  8
1
 10
90.2783
 20
68.0029
  0
VERTEX
999
5,2
  8
1
 10
89.7360
 20
70.6887
  0
VERTEX
999
5,2
  8
1
 10
88.2571
 20
72.8821
  0
VERTEX
999
5,2
  8
1
 10
86.0637
 20
74.3610
  0
VERTEX
999
5,1,,66
  8
1
 10
83.3779
 20
74.9033
  0
SEQEND
  0
POLYLINE
999
5
  8
1
 66
1
 70
0
  0
VERTEX
999
5,1,,67
  8
1
 10
83.3779
 20
74.9033
  0
VERTEX
999
5,2
  8
1
 10
80.6926
 20
74.3610
  0
VERTEX
999
5,2
  8
1
 10
78.4993
 20
72.8821
  0
VERTEX
999
5,2
  8
1
 10
77.0204
 20
70.6887
  0
VERTEX
999
5,1,,68
  8
1
 10
76.4785
 20
68.0029
  0
SEQEND
  0
POLYLINE
999
5
  8
1
 66
1
 70
0
  0
VERTEX
999
5,1,,69
  8
1
 10
76.4785
 20
68.0029
  0
VERTEX
999
5,2
  8
1
 10
77.0209
 20
65.3171
  0
VERTEX
999
5,2
  8
1
 10
78.4996
 20
63.1238
  0
VERTEX
999
5,2
  8
1
 10
80.6927
 20
61.6449
  0
VERTEX
999
5,1,,70
  8
1
 10
83.3779
 20
61.1025
  0
SEQEND
  0
POLYLINE
999
5
  8
1
 66
1
 70
0
  0
VERTEX
999
5,1,,71
  8
1
 10
83.3779
 20
61.1025
  0
VERTEX
999
5,2
  8
1
 10
86.0638
 20
61.6449
  0
VERTEX
999
5,2
  8
1
 10
88.2574
 20
63.1238
  0
VERTEX
999
5,2
  8
1
 10
89.7365
 20
65.3171
  0
VERTEX
999
5,1,,72
  8
1
 10
90.2783
 20
68.0029
  0
SEQEND
  0
ENDBLK
  0
BLOCK
  8
1
  2
P0018_05
 70
64
 10
0.0000
 20
0.0000
  0
TEXT
  8
1
 10
16.9785
 20
20.6064
 40
5.0000
 50
0.0000
  1
PIECE: 右足裏
  7
STANDARD
  0
TEXT
  8
1
 10
16.9785
 20
14.8564
 40
5.0000
 50
0.0000
  1
SIZE: Free
  7
STANDARD
  0
TEXT
  8
1
 10
16.9785
 20
9.1064
 40
5.0000
 50
0.0000
  1
FABRIC: 表 地
  7
STANDARD
  0
TEXT
  8
1
 10
16.9785
 20
3.3564
 40
5.0000
 50
0.0000
  1
QUANTITY: 1
  7
STANDARD
  0
TEXT
  8
1
 10
31.9785
 20
17.6064
 40
3.0000
 50
0.0000
  1
COMMENT: テディベア
  7
STANDARD
  0
TEXT
  8
1
 10
31.9785
 20
14.6064
 40
3.0000
 50
0.0000
  1
COMMENT: 右足裏
  7
STANDARD
  0
TEXT
  8
1
 10
31.9785
 20
11.6064
 40
3.0000
 50
0.0000
  1
COMMENT: Free
  7
STANDARD
  0
TEXT
  8
1
 10
31.9785
 20
8.6064
 40
3.0000
 50
0.0000
  1
COMMENT: 表 地 x 1
  7
STANDARD
  0
TEXT
  8
1
 10
12.7207
 20
50.3741
 40
5.0000
 50
0.0000
  1
COMMENT: つま先
  7
STANDARD
  0
TEXT
  8
1
 10
21.2695
 20
8.3223
 40
5.0000
 50
0.0000
  1
COMMENT: 踵
  7
STANDARD
  0
POLYLINE
999
1
  8
1
 66
1
 70
0
  0
VERTEX
999
1,1,1,1
  8
1
 10
53.3086
 20
31.8623
 38
10.0000
 50
180.0000
  0
VERTEX
999
1,2
  8
1
 10
52.5854
 20
23.8062
  0
VERTEX
999
1,2
  8
1
 10
50.4015
 20
16.3116
  0
VERTEX
999
1,2
  8
1
 10
46.7367
 20
9.7810
  0
VERTEX
999
1,2
  8
1
 10
41.5708
 20
4.6172
  0
VERTEX
999
1,2
  8
1
 10
34.8838
 20
1.2226
  0
VERTEX
999
1,1,1,2
  8
1
 10
26.6523
 20
0.0004
 38
10.0000
 50
89.9839
  0
VERTEX
999
1,2
  8
1
 10
18.4268
 20
1.2227
  0
VERTEX
999
1,2
  8
1
 10
11.7394
 20
4.6173
  0
VERTEX
999
1,2
  8
1
 10
6.5732
 20
9.7813
  0
VERTEX
999
1,2
  8
1
 10
2.9081
 20
16.3117
  0
VERTEX
999
1,2
  8
1
 10
0.7236
 20
23.8060
  0
VERTEX
999
1,1,1,3
  8
1
 10
0.0000
 20
31.8608
 38
10.0000
 50
0.0045
  0
VERTEX
999
1,2
  8
1
 10
0.7240
 20
39.9181
  0
VERTEX
999
1,2
  8
1
 10
2.9084
 20
47.4127
  0
VERTEX
999
1,2
  8
1
 10
6.5737
 20
53.9429
  0
VERTEX
999
1,2
  8
1
 10
11.7400
 20
59.1062
  0
VERTEX
999
1,2
  8
1
 10
18.4274
 20
62.5003
  0
VERTEX
999
1,1,1,4
  8
1
 10
26.6543
 20
63.7224
 38
10.0000
 50
270.0161
  0
VERTEX
999
1,2
  8
1
 10
34.8855
 20
62.5002
  0
VERTEX
999
1,2
  8
1
 10
41.5731
 20
59.1060
  0
VERTEX
999
1,2
  8
1
 10
46.7390
 20
53.9427
  0
VERTEX
999
1,2
  8
1
 10
50.4034
 20
47.4126
  0
VERTEX
999
1,2
  8
1
 10
52.5867
 20
39.9183
  0
VERTEX
999
1,1,,5
  8
1
 10
53.3086
 20
31.8623
  0
SEQEND
  0
POLYLINE
999
2
  8
1
 66
1
 70
0
  0
VERTEX
999
2,1,,6
  8
1
 10
46.3096
 20
31.8613
  0
VERTEX
999
2,2
  8
1
 10
45.8079
 20
25.6743
  0
VERTEX
999
2,2
  8
1
 10
44.2673
 20
19.8542
  0
VERTEX
999
2,2
  8
1
 10
41.6349
 20
14.7388
  0
VERTEX
999
2,2
  8
1
 10
37.8573
 20
10.6660
  0
VERTEX
999
2,2
  8
1
 10
32.8815
 20
7.9738
  0
VERTEX
999
2,1,,7
  8
1
 10
26.6543
 20
7.0000
  0
VERTEX
999
2,2
  8
1
 10
20.4276
 20
7.9738
  0
VERTEX
999
2,2
  8
1
 10
15.4521
 20
10.6660
  0
VERTEX
999
2,2
  8
1
 10
11.6749
 20
14.7388
  0
VERTEX
999
2,2
  8
1
 10
9.0426
 20
19.8542
  0
VERTEX
999
2,2
  8
1
 10
7.5021
 20
25.6743
  0
VERTEX
999
2,1,,8
  8
1
 10
7.0000
 20
31.8613
  0
VERTEX
999
2,2
  8
1
 10
7.5021
 20
38.0490
  0
VERTEX
999
2,2
  8
1
 10
9.0428
 20
43.8694
  0
VERTEX
999
2,2
  8
1
 10
11.6755
 20
48.9846
  0
VERTEX
999
2,2
  8
1
 10
15.4532
 20
53.0571
  0
VERTEX
999
2,2
  8
1
 10
20.4291
 20
55.7491
  0
VERTEX
999
2,1,,9
  8
1
 10
26.6563
 20
56.7227
  0
VERTEX
999
2,2
  8
1
 10
32.8834
 20
55.7491
  0
VERTEX
999
2,2
  8
1
 10
37.8590
 20
53.0571
  0
VERTEX
999
2,2
  8
1
 10
41.6362
 20
48.9846
  0
VERTEX
999
2,2
  8
1
 10
44.2683
 20
43.8694
  0
VERTEX
999
2,2
  8
1
 10
45.8083
 20
38.0490
  0
VERTEX
999
2,1,,10
  8
1
 10
46.3096
 20
31.8613
  0
SEQEND
  0
LINE
999
5,1,,11
  8
1
 10
46.3096
 20
31.8613
 11
36.3096
 21
31.8613
  0
LINE
999
5,1,,13
  8
1
 10
7.0000
 20
31.8613
 11
17.0000
 21
31.8621
  0
LINE
999
5,1,,15
  8
1
 10
26.6543
 20
7.0000
 11
26.6571
 21
17.0000
  0
LINE
999
5,1,,17
  8
1
 10
26.6563
 20
56.7227
 11
26.6591
 21
46.7227
  0
LINE
999
5,1,,19
  8
1
 10
26.6543
 20
7.0000
 11
26.6563
 21
56.7227
  0
LINE
999
3,1,,21
  8
1
 10
30.2139
 20
63.5108
 11
30.2129
 21
0.2129
  0
ENDBLK
  0
BLOCK
  8
1
  2
P0019_05
 70
64
 10
0.0000
 20
0.0000
  0
TEXT
  8
1
 10
14.7607
 20
25.6465
 40
5.0000
 50
359.9999
  1
PIECE: 左足裏
  7
STANDARD
  0
TEXT
  8
1
 10
14.7607
 20
19.8965
 40
5.0000
 50
359.9999
  1
SIZE: Free
  7
STANDARD
  0
TEXT
  8
1
 10
14.7607
 20
14.1465
 40
5.0000
 50
359.9999
  1
FABRIC: 表 地
  7
STANDARD
  0
TEXT
  8
1
 10
14.7607
 20
8.3965
 40
5.0000
 50
359.9999
  1
QUANTITY: 1
  7
STANDARD
  0
TEXT
  8
1
 10
29.7607
 20
22.6465
 40
3.0000
 50
359.9999
  1
COMMENT: テディベア
  7
STANDARD
  0
TEXT
  8
1
 10
29.7607
 20
19.6465
 40
3.0000
 50
359.9999
  1
COMMENT: 左足裏
  7
STANDARD
  0
TEXT
  8
1
 10
29.7607
 20
16.6465
 40
3.0000
 50
359.9999
  1
COMMENT: Free
  7
STANDARD
  0
TEXT
  8
1
 10
29.7607
 20
13.6465
 40
3.0000
 50
359.9999
  1
COMMENT: 表 地 x 1
  7
STANDARD
  0
TEXT
  8
1
 10
25.7676
 20
50.3741
 40
5.0000
 50
359.9999
  1
COMMENT: つま先
  7
STANDARD
  0
TEXT
  8
1
 10
27.0986
 20
8.3223
 40
5.0000
 50
359.9999
  1
COMMENT: 踵
  7
STANDARD
  0
POLYLINE
999
1
  8
1
 66
1
 70
0
  0
VERTEX
999
1,1,1,1
  8
1
 10
26.6533
 20
0.0000
 38
10.0000
 50
90.0161
  0
VERTEX
999
1,2
  8
1
 10
18.4248
 20
1.2226
  0
VERTEX
999
1,2
  8
1
 10
11.7378
 20
4.6172
  0
VERTEX
999
1,2
  8
1
 10
6.5719
 20
9.7810
  0
VERTEX
999
1,2
  8
1
 10
2.9071
 20
16.3116
  0
VERTEX
999
1,2
  8
1
 10
0.7231
 20
23.8062
  0
VERTEX
999
1,1,1,2
  8
1
 10
0.0001
 20
31.8613
 38
10.0000
 50
0.0000
  0
VERTEX
999
1,2
  8
1
 10
0.7219
 20
39.9183
  0
VERTEX
999
1,2
  8
1
 10
2.9052
 20
47.4126
  0
VERTEX
999
1,2
  8
1
 10
6.5696
 20
53.9427
  0
VERTEX
999
1,2
  8
1
 10
11.7355
 20
59.1060
  0
VERTEX
999
1,2
  8
1
 10
18.4231
 20
62.5002
  0
VERTEX
999
1,1,1,3
  8
1
 10
26.6543
 20
63.7224
 38
10.0000
 50
269.9839
  0
VERTEX
999
1,2
  8
1
 10
34.8812
 20
62.5003
  0
VERTEX
999
1,2
  8
1
 10
41.5686
 20
59.1062
  0
VERTEX
999
1,2
  8
1
 10
46.7349
 20
53.9429
  0
VERTEX
999
1,2
  8
1
 10
50.4001
 20
47.4127
  0
VERTEX
999
1,2
  8
1
 10
52.5846
 20
39.9181
  0
VERTEX
999
1,1,1,4
  8
1
 10
53.3086
 20
31.8608
 38
10.0000
 50
179.9955
  0
VERTEX
999
1,2
  8
1
 10
52.5850
 20
23.8060
  0
VERTEX
999
1,2
  8
1
 10
50.4005
 20
16.3117
  0
VERTEX
999
1,2
  8
1
 10
46.7354
 20
9.7813
  0
VERTEX
999
1,2
  8
1
 10
41.5692
 20
4.6173
  0
VERTEX
999
1,2
  8
1
 10
34.8818
 20
1.2227
  0
VERTEX
999
1,1,,5
  8
1
 10
26.6533
 20
0.0000
  0
SEQEND
  0
POLYLINE
999
2
  8
1
 66
1
 70
0
  0
VERTEX
999
2,1,,6
  8
1
 10
26.6543
 20
7.0000
  0
VERTEX
999
2,2
  8
1
 10
20.4271
 20
7.9738
  0
VERTEX
999
2,2
  8
1
 10
15.4513
 20
10.6660
  0
VERTEX
999
2,2
  8
1
 10
11.6737
 20
14.7388
  0
VERTEX
999
2,2
  8
1
 10
9.0413
 20
19.8542
  0
VERTEX
999
2,2
  8
1
 10
7.5007
 20
25.6743
  0
VERTEX
999
2,1,,7
  8
1
 10
6.9990
 20
31.8613
  0
VERTEX
999
2,2
  8
1
 10
7.5002
 20
38.0490
  0
VERTEX
999
2,2
  8
1
 10
9.0403
 20
43.8694
  0
VERTEX
999
2,2
  8
1
 10
11.6724
 20
48.9846
  0
VERTEX
999
2,2
  8
1
 10
15.4496
 20
53.0571
  0
VERTEX
999
2,2
  8
1
 10
20.4252
 20
55.7491
  0
VERTEX
999
2,1,,8
  8
1
 10
26.6523
 20
56.7227
  0
VERTEX
999
2,2
  8
1
 10
32.8795
 20
55.7491
  0
VERTEX
999
2,2
  8
1
 10
37.8553
 20
53.0571
  0
VERTEX
999
2,2
  8
1
 10
41.6331
 20
48.9846
  0
VERTEX
999
2,2
  8
1
 10
44.2657
 20
43.8694
  0
VERTEX
999
2,2
  8
1
 10
45.8065
 20
38.0490
  0
VERTEX
999
2,1,,9
  8
1
 10
46.3086
 20
31.8613
  0
VERTEX
999
2,2
  8
1
 10
45.8065
 20
25.6743
  0
VERTEX
999
2,2
  8
1
 10
44.2660
 20
19.8542
  0
VERTEX
999
2,2
  8
1
 10
41.6337
 20
14.7388
  0
VERTEX
999
2,2
  8
1
 10
37.8564
 20
10.6660
  0
VERTEX
999
2,2
  8
1
 10
32.8810
 20
7.9738
  0
VERTEX
999
2,1,,10
  8
1
 10
26.6543
 20
7.0000
  0
SEQEND
  0
LINE
999
5,1,,11
  8
1
 10
6.9990
 20
31.8613
 11
16.9990
 21
31.8613
  0
LINE
999
5,1,,13
  8
1
 10
26.6523
 20
56.7227
 11
26.6495
 21
46.7227
  0
LINE
999
5,1,,15
  8
1
 10
46.3086
 20
31.8613
 11
36.3086
 21
31.8621
  0
LINE
999
5,1,,17
  8
1
 10
26.6543
 20
7.0000
 11
26.6515
 21
17.0000
  0
LINE
999
5,1,,19
  8
1
 10
26.6543
 20
7.0000
 11
26.6523
 21
56.7227
  0
LINE
999
3,1,,21
  8
1
 10
23.0947
 20
63.5108
 11
23.0957
 21
0.2129
  0
ENDBLK
  0
ENDSEC
  0
SECTION
  2
ENTITIES
  0
TEXT
  8
1
 10
0.0000
 20
50.0000
 40
5.0000
  1
DESIGN: テディベア
  7
STANDARD
  0
TEXT
  8
1
 10
0.0000
 20
44.0000
 40
5.0000
  1
DATE: 2014/03/13 22:37
  7
STANDARD
  0
TEXT
  8
1
 10
0.0000
 20
38.0000
 40
5.0000
  1
AUTHOR: TORAY A.C.S  CREACOMPO
  7
STANDARD
  0
TEXT
  8
1
 10
0.0000
 20
32.0000
 40
5.0000
  1
MASTER SIZE: Free
  7
STANDARD
  0
TEXT
  8
1
 10
0.0000
 20
26.0000
 40
5.0000
  1
UNITS: METRIC
  7
STANDARD
  0
TEXT
  8
1
 10
0.0000
 20
20.0000
 40
5.0000
  1
VERSION: 1.10
  7
STANDARD
  0
INSERT
  8
1
  2
P0001_05
 10
280.3083
 20
638.0532
  0
INSERT
  8
1
  2
P0002_05
 10
588.3850
 20
646.3823
  0
INSERT
  8
1
  2
P0003_05
 10
656.5538
 20
647.5522
  0
INSERT
  8
1
  2
P0004_05
 10
205.2366
 20
639.2231
  0
INSERT
  8
1
  2
P0005_05
 10
30.0000
 20
306.3651
  0
INSERT
  8
1
  2
P0006_05
 10
790.7852
 20
315.3258
  0
INSERT
  8
1
  2
P0007_05
 10
186.7434
 20
332.6148
  0
INSERT
  8
1
  2
P0008_05
 10
672.5159
 20
343.5357
  0
INSERT
  8
1
  2
P0009_05
 10
722.5510
 20
309.1150
  0
INSERT
  8
1
  2
P0010_05
 10
145.0496
 20
305.3550
  0
INSERT
  8
1
  2
P0011_05
 10
527.9905
 20
501.3247
  0
INSERT
  8
1
  2
P0012_05
 10
224.3232
 20
492.7544
  0
INSERT
  8
1
  2
P0013_05
 10
404.4934
 20
460.4156
  0
INSERT
  8
1
  2
P0014_05
 10
271.6393
 20
284.3192
  0
INSERT
  8
1
  2
P0015_05
 10
482.7186
 20
284.3499
  0
INSERT
  8
1
  2
P0016_05
 10
492.9524
 20
114.0596
  0
INSERT
  8
1
  2
P0017_05
 10
279.3069
 20
111.4698
  0
INSERT
  8
1
  2
P0018_05
 10
549.8662
 20
32.5898
  0
INSERT
  8
1
  2
P0019_05
 10
335.8453
 20
30.0000
  0
ENDSEC
  0
EOF
